M48
; DRILL file {KiCad (6.0.5)} date Wed Jun 29 14:33:54 2022
; FORMAT={-:-/ absolute / inch / decimal}
; #@! TF.CreationDate,2022-06-29T14:33:54-03:00
; #@! TF.GenerationSoftware,Kicad,Pcbnew,(6.0.5)
; #@! TF.FileFunction,Plated,1,2,PTH
FMAT,2
INCH
; #@! TA.AperFunction,Plated,PTH,ComponentDrill
T1C0.0315
; #@! TA.AperFunction,Plated,PTH,ComponentDrill
T2C0.0354
; #@! TA.AperFunction,Plated,PTH,ComponentDrill
T3C0.0394
; #@! TA.AperFunction,Plated,PTH,ComponentDrill
T4C0.0433
; #@! TA.AperFunction,Plated,PTH,ComponentDrill
T5C0.0591
; #@! TA.AperFunction,Plated,PTH,ComponentDrill
T6C0.0598
; #@! TA.AperFunction,Plated,PTH,ComponentDrill
T7C0.0630
; #@! TA.AperFunction,Plated,PTH,ComponentDrill
T8C0.1181
%
G90
G05
T1
X4.0Y-2.35
X4.15Y-3.35
X4.2Y-3.8
X4.2Y-4.05
X4.2Y-4.3
X4.2506Y-2.8994
X4.2506Y-3.1994
X4.3Y-4.628
X4.3Y-4.928
X4.3Y-5.128
X4.3Y-5.428
X4.3506Y-2.8994
X4.3506Y-3.1994
X4.45Y-3.35
X4.4506Y-2.8994
X4.4506Y-3.1994
X4.5Y-2.35
X4.5Y-3.8
X4.5Y-4.05
X4.5Y-4.3
X4.5563Y-4.8
X4.7Y-4.9563
X4.7Y-5.35
X4.85Y-4.9563
X4.85Y-5.35
X4.95Y-4.8
X5.0Y-2.7
X5.3Y-1.85
X5.3Y-2.2437
X5.3Y-3.35
X5.4Y-2.9
X5.4Y-3.2
X5.5Y-2.7
X5.5Y-2.9
X5.5Y-3.2
X5.6Y-2.9
X5.6Y-3.2
X5.6Y-3.35
X5.8063Y-5.0
X5.8063Y-5.15
X5.95Y-5.53
X5.9994Y-2.4
X6.0526Y-2.15
X6.0526Y-2.25
X6.0996Y-3.8496
X6.0996Y-3.9496
X6.0996Y-4.0496
X6.0996Y-4.1496
X6.0996Y-4.2496
X6.0996Y-4.3496
X6.0996Y-4.4496
X6.0996Y-4.5496
X6.1Y-4.7
X6.1Y-4.85
X6.2Y-5.0
X6.2Y-5.15
X6.25Y-3.35
X6.25Y-5.53
X6.35Y-2.8994
X6.35Y-3.1994
X6.3996Y-3.8496
X6.3996Y-3.9496
X6.3996Y-4.0496
X6.3996Y-4.1496
X6.3996Y-4.2496
X6.3996Y-4.3496
X6.3996Y-4.4496
X6.3996Y-4.5496
X6.4Y-4.7
X6.4Y-4.85
X6.4463Y-2.15
X6.4463Y-2.25
X6.45Y-2.8994
X6.45Y-3.1994
X6.4994Y-2.4
X6.55Y-2.8994
X6.55Y-3.1994
X6.55Y-3.35
X6.55Y-5.4016
X6.55Y-5.5984
X7.0Y-5.4016
X7.0Y-5.5984
X7.4Y-4.65
X7.4Y-5.0437
T2
X3.95Y-3.8
X3.95Y-4.05
X3.95Y-4.3
X4.05Y-3.8
X4.05Y-4.05
X4.05Y-4.3
T3
X4.85Y-5.55
X4.85Y-5.65
X5.0Y-2.35
X5.0Y-2.55
X5.0Y-2.9
X5.2Y-2.35
X5.2Y-2.55
X5.2Y-2.9
X5.4Y-2.35
X5.4Y-2.55
X5.6Y-2.35
X5.6Y-2.55
X6.85Y-3.7006
X6.85Y-3.8006
X6.85Y-3.9006
X6.85Y-4.0006
X6.85Y-4.1006
X6.85Y-4.2006
X6.85Y-4.3006
X6.85Y-4.4006
X7.15Y-3.7
X7.15Y-3.8
X7.15Y-3.9
X7.15Y-4.0
X7.15Y-4.1
X7.15Y-4.2
X7.15Y-4.3
X7.15Y-4.4
X7.45Y-3.7
X7.45Y-3.8
X7.45Y-3.9
X7.45Y-4.0
X7.45Y-4.1
X7.45Y-4.2
X7.45Y-4.3
X7.45Y-4.4
X7.65Y-5.4
X7.65Y-5.5
T4
X3.95Y-4.65
X3.95Y-4.9059
X3.95Y-5.15
X3.95Y-5.4059
X4.1272Y-4.65
X4.1272Y-4.9059
X4.1272Y-5.15
X4.1272Y-5.4059
X4.4Y-1.85
X4.5Y-1.85
X4.6Y-1.85
X6.0Y-1.85
X6.1Y-1.85
X6.2Y-1.85
X6.9433Y-4.95
X7.0433Y-4.95
X7.1433Y-4.95
T5
X4.1472Y-1.8106
X4.8559Y-1.8106
X5.7472Y-1.8106
X6.4559Y-1.8106
X7.1Y-2.2602
X7.1Y-3.15
T6
X7.8Y-2.0
X7.8Y-2.2
X7.8Y-2.45
X7.8Y-2.65
X7.8Y-2.95
X7.8Y-3.15
T7
X7.5492Y-4.95
X7.6673Y-5.135
X7.7854Y-4.95
T8
X3.5Y-1.3
X3.5Y-5.9
X7.95Y-1.3
X7.95Y-5.9
T0
M30
