%TF.GenerationSoftware,KiCad,Pcbnew,(6.0.5)*%
%TF.CreationDate,2022-07-02T14:22:21-03:00*%
%TF.ProjectId,oven_control,6f76656e-5f63-46f6-9e74-726f6c2e6b69,0*%
%TF.SameCoordinates,Original*%
%TF.FileFunction,Legend,Bot*%
%TF.FilePolarity,Positive*%
%FSLAX46Y46*%
G04 Gerber Fmt 4.6, Leading zero omitted, Abs format (unit mm)*
G04 Created by KiCad (PCBNEW (6.0.5)) date 2022-07-02 14:22:21*
%MOMM*%
%LPD*%
G01*
G04 APERTURE LIST*
%ADD10C,0.400000*%
%ADD11C,0.150000*%
%ADD12C,0.120000*%
G04 APERTURE END LIST*
D10*
X97789999Y-111124999D02*
G75*
G03*
X97789999Y-107315001I-1904999J1904999D01*
G01*
X96014515Y-109220000D02*
G75*
G03*
X96014515Y-109220000I-129515J0D01*
G01*
X96520000Y-109855000D02*
G75*
G03*
X96520000Y-108585000I-635000J635000D01*
G01*
X98425000Y-103505000D02*
X97790000Y-104140000D01*
X98425000Y-100965000D02*
X98425000Y-103505000D01*
X97790000Y-104140000D02*
X95885000Y-104775000D01*
X97155000Y-110490000D02*
G75*
G03*
X97155000Y-107950000I-1270000J1270000D01*
G01*
X96431190Y-98196190D02*
X98031190Y-98196190D01*
X98107380Y-96291428D02*
X96050238Y-97662857D01*
X98031190Y-95453333D02*
X98031190Y-95148571D01*
X97955000Y-94996190D01*
X97802619Y-94843809D01*
X97497857Y-94767619D01*
X96964523Y-94767619D01*
X96659761Y-94843809D01*
X96507380Y-94996190D01*
X96431190Y-95148571D01*
X96431190Y-95453333D01*
X96507380Y-95605714D01*
X96659761Y-95758095D01*
X96964523Y-95834285D01*
X97497857Y-95834285D01*
X97802619Y-95758095D01*
X97955000Y-95605714D01*
X98031190Y-95453333D01*
D11*
X177926904Y-94384761D02*
X177784047Y-94432380D01*
X177545952Y-94432380D01*
X177450714Y-94384761D01*
X177403095Y-94337142D01*
X177355476Y-94241904D01*
X177355476Y-94146666D01*
X177403095Y-94051428D01*
X177450714Y-94003809D01*
X177545952Y-93956190D01*
X177736428Y-93908571D01*
X177831666Y-93860952D01*
X177879285Y-93813333D01*
X177926904Y-93718095D01*
X177926904Y-93622857D01*
X177879285Y-93527619D01*
X177831666Y-93480000D01*
X177736428Y-93432380D01*
X177498333Y-93432380D01*
X177355476Y-93480000D01*
X177022142Y-93432380D02*
X176403095Y-93432380D01*
X176736428Y-93813333D01*
X176593571Y-93813333D01*
X176498333Y-93860952D01*
X176450714Y-93908571D01*
X176403095Y-94003809D01*
X176403095Y-94241904D01*
X176450714Y-94337142D01*
X176498333Y-94384761D01*
X176593571Y-94432380D01*
X176879285Y-94432380D01*
X176974523Y-94384761D01*
X177022142Y-94337142D01*
X177926904Y-102004761D02*
X177784047Y-102052380D01*
X177545952Y-102052380D01*
X177450714Y-102004761D01*
X177403095Y-101957142D01*
X177355476Y-101861904D01*
X177355476Y-101766666D01*
X177403095Y-101671428D01*
X177450714Y-101623809D01*
X177545952Y-101576190D01*
X177736428Y-101528571D01*
X177831666Y-101480952D01*
X177879285Y-101433333D01*
X177926904Y-101338095D01*
X177926904Y-101242857D01*
X177879285Y-101147619D01*
X177831666Y-101100000D01*
X177736428Y-101052380D01*
X177498333Y-101052380D01*
X177355476Y-101100000D01*
X176974523Y-101147619D02*
X176926904Y-101100000D01*
X176831666Y-101052380D01*
X176593571Y-101052380D01*
X176498333Y-101100000D01*
X176450714Y-101147619D01*
X176403095Y-101242857D01*
X176403095Y-101338095D01*
X176450714Y-101480952D01*
X177022142Y-102052380D01*
X176403095Y-102052380D01*
X199405714Y-137231428D02*
X198643809Y-137231428D01*
X199024761Y-137612380D02*
X199024761Y-136850476D01*
X197691428Y-136612380D02*
X198167619Y-136612380D01*
X198215238Y-137088571D01*
X198167619Y-137040952D01*
X198072380Y-136993333D01*
X197834285Y-136993333D01*
X197739047Y-137040952D01*
X197691428Y-137088571D01*
X197643809Y-137183809D01*
X197643809Y-137421904D01*
X197691428Y-137517142D01*
X197739047Y-137564761D01*
X197834285Y-137612380D01*
X198072380Y-137612380D01*
X198167619Y-137564761D01*
X198215238Y-137517142D01*
X197358095Y-136612380D02*
X197024761Y-137612380D01*
X196691428Y-136612380D01*
X190515714Y-114371428D02*
X189753809Y-114371428D01*
X190134761Y-114752380D02*
X190134761Y-113990476D01*
X188801428Y-113752380D02*
X189277619Y-113752380D01*
X189325238Y-114228571D01*
X189277619Y-114180952D01*
X189182380Y-114133333D01*
X188944285Y-114133333D01*
X188849047Y-114180952D01*
X188801428Y-114228571D01*
X188753809Y-114323809D01*
X188753809Y-114561904D01*
X188801428Y-114657142D01*
X188849047Y-114704761D01*
X188944285Y-114752380D01*
X189182380Y-114752380D01*
X189277619Y-114704761D01*
X189325238Y-114657142D01*
X188468095Y-113752380D02*
X188134761Y-114752380D01*
X187801428Y-113752380D01*
X182371904Y-113800000D02*
X182467142Y-113752380D01*
X182610000Y-113752380D01*
X182752857Y-113800000D01*
X182848095Y-113895238D01*
X182895714Y-113990476D01*
X182943333Y-114180952D01*
X182943333Y-114323809D01*
X182895714Y-114514285D01*
X182848095Y-114609523D01*
X182752857Y-114704761D01*
X182610000Y-114752380D01*
X182514761Y-114752380D01*
X182371904Y-114704761D01*
X182324285Y-114657142D01*
X182324285Y-114323809D01*
X182514761Y-114323809D01*
X181895714Y-114752380D02*
X181895714Y-113752380D01*
X181324285Y-114752380D01*
X181324285Y-113752380D01*
X180848095Y-114752380D02*
X180848095Y-113752380D01*
X180610000Y-113752380D01*
X180467142Y-113800000D01*
X180371904Y-113895238D01*
X180324285Y-113990476D01*
X180276666Y-114180952D01*
X180276666Y-114323809D01*
X180324285Y-114514285D01*
X180371904Y-114609523D01*
X180467142Y-114704761D01*
X180610000Y-114752380D01*
X180848095Y-114752380D01*
X177926904Y-109624761D02*
X177784047Y-109672380D01*
X177545952Y-109672380D01*
X177450714Y-109624761D01*
X177403095Y-109577142D01*
X177355476Y-109481904D01*
X177355476Y-109386666D01*
X177403095Y-109291428D01*
X177450714Y-109243809D01*
X177545952Y-109196190D01*
X177736428Y-109148571D01*
X177831666Y-109100952D01*
X177879285Y-109053333D01*
X177926904Y-108958095D01*
X177926904Y-108862857D01*
X177879285Y-108767619D01*
X177831666Y-108720000D01*
X177736428Y-108672380D01*
X177498333Y-108672380D01*
X177355476Y-108720000D01*
X177022142Y-108672380D02*
X176355476Y-108672380D01*
X176784047Y-109672380D01*
X177926904Y-96924761D02*
X177784047Y-96972380D01*
X177545952Y-96972380D01*
X177450714Y-96924761D01*
X177403095Y-96877142D01*
X177355476Y-96781904D01*
X177355476Y-96686666D01*
X177403095Y-96591428D01*
X177450714Y-96543809D01*
X177545952Y-96496190D01*
X177736428Y-96448571D01*
X177831666Y-96400952D01*
X177879285Y-96353333D01*
X177926904Y-96258095D01*
X177926904Y-96162857D01*
X177879285Y-96067619D01*
X177831666Y-96020000D01*
X177736428Y-95972380D01*
X177498333Y-95972380D01*
X177355476Y-96020000D01*
X176736428Y-95972380D02*
X176641190Y-95972380D01*
X176545952Y-96020000D01*
X176498333Y-96067619D01*
X176450714Y-96162857D01*
X176403095Y-96353333D01*
X176403095Y-96591428D01*
X176450714Y-96781904D01*
X176498333Y-96877142D01*
X176545952Y-96924761D01*
X176641190Y-96972380D01*
X176736428Y-96972380D01*
X176831666Y-96924761D01*
X176879285Y-96877142D01*
X176926904Y-96781904D01*
X176974523Y-96591428D01*
X176974523Y-96353333D01*
X176926904Y-96162857D01*
X176879285Y-96067619D01*
X176831666Y-96020000D01*
X176736428Y-95972380D01*
X198810476Y-139485714D02*
X198810476Y-140295238D01*
X198858095Y-140390476D01*
X198905714Y-140438095D01*
X199000952Y-140485714D01*
X199143809Y-140485714D01*
X199239047Y-140438095D01*
X198810476Y-140104761D02*
X198905714Y-140152380D01*
X199096190Y-140152380D01*
X199191428Y-140104761D01*
X199239047Y-140057142D01*
X199286666Y-139961904D01*
X199286666Y-139676190D01*
X199239047Y-139580952D01*
X199191428Y-139533333D01*
X199096190Y-139485714D01*
X198905714Y-139485714D01*
X198810476Y-139533333D01*
X198334285Y-139485714D02*
X198334285Y-140152380D01*
X198334285Y-139580952D02*
X198286666Y-139533333D01*
X198191428Y-139485714D01*
X198048571Y-139485714D01*
X197953333Y-139533333D01*
X197905714Y-139628571D01*
X197905714Y-140152380D01*
X197000952Y-140152380D02*
X197000952Y-139152380D01*
X197000952Y-140104761D02*
X197096190Y-140152380D01*
X197286666Y-140152380D01*
X197381904Y-140104761D01*
X197429523Y-140057142D01*
X197477142Y-139961904D01*
X197477142Y-139676190D01*
X197429523Y-139580952D01*
X197381904Y-139533333D01*
X197286666Y-139485714D01*
X197096190Y-139485714D01*
X197000952Y-139533333D01*
X177926904Y-99464761D02*
X177784047Y-99512380D01*
X177545952Y-99512380D01*
X177450714Y-99464761D01*
X177403095Y-99417142D01*
X177355476Y-99321904D01*
X177355476Y-99226666D01*
X177403095Y-99131428D01*
X177450714Y-99083809D01*
X177545952Y-99036190D01*
X177736428Y-98988571D01*
X177831666Y-98940952D01*
X177879285Y-98893333D01*
X177926904Y-98798095D01*
X177926904Y-98702857D01*
X177879285Y-98607619D01*
X177831666Y-98560000D01*
X177736428Y-98512380D01*
X177498333Y-98512380D01*
X177355476Y-98560000D01*
X176403095Y-99512380D02*
X176974523Y-99512380D01*
X176688809Y-99512380D02*
X176688809Y-98512380D01*
X176784047Y-98655238D01*
X176879285Y-98750476D01*
X176974523Y-98798095D01*
X177926904Y-104544761D02*
X177784047Y-104592380D01*
X177545952Y-104592380D01*
X177450714Y-104544761D01*
X177403095Y-104497142D01*
X177355476Y-104401904D01*
X177355476Y-104306666D01*
X177403095Y-104211428D01*
X177450714Y-104163809D01*
X177545952Y-104116190D01*
X177736428Y-104068571D01*
X177831666Y-104020952D01*
X177879285Y-103973333D01*
X177926904Y-103878095D01*
X177926904Y-103782857D01*
X177879285Y-103687619D01*
X177831666Y-103640000D01*
X177736428Y-103592380D01*
X177498333Y-103592380D01*
X177355476Y-103640000D01*
X176498333Y-103925714D02*
X176498333Y-104592380D01*
X176736428Y-103544761D02*
X176974523Y-104259047D01*
X176355476Y-104259047D01*
X177926904Y-112164761D02*
X177784047Y-112212380D01*
X177545952Y-112212380D01*
X177450714Y-112164761D01*
X177403095Y-112117142D01*
X177355476Y-112021904D01*
X177355476Y-111926666D01*
X177403095Y-111831428D01*
X177450714Y-111783809D01*
X177545952Y-111736190D01*
X177736428Y-111688571D01*
X177831666Y-111640952D01*
X177879285Y-111593333D01*
X177926904Y-111498095D01*
X177926904Y-111402857D01*
X177879285Y-111307619D01*
X177831666Y-111260000D01*
X177736428Y-111212380D01*
X177498333Y-111212380D01*
X177355476Y-111260000D01*
X176450714Y-111212380D02*
X176926904Y-111212380D01*
X176974523Y-111688571D01*
X176926904Y-111640952D01*
X176831666Y-111593333D01*
X176593571Y-111593333D01*
X176498333Y-111640952D01*
X176450714Y-111688571D01*
X176403095Y-111783809D01*
X176403095Y-112021904D01*
X176450714Y-112117142D01*
X176498333Y-112164761D01*
X176593571Y-112212380D01*
X176831666Y-112212380D01*
X176926904Y-112164761D01*
X176974523Y-112117142D01*
X177926904Y-107084761D02*
X177784047Y-107132380D01*
X177545952Y-107132380D01*
X177450714Y-107084761D01*
X177403095Y-107037142D01*
X177355476Y-106941904D01*
X177355476Y-106846666D01*
X177403095Y-106751428D01*
X177450714Y-106703809D01*
X177545952Y-106656190D01*
X177736428Y-106608571D01*
X177831666Y-106560952D01*
X177879285Y-106513333D01*
X177926904Y-106418095D01*
X177926904Y-106322857D01*
X177879285Y-106227619D01*
X177831666Y-106180000D01*
X177736428Y-106132380D01*
X177498333Y-106132380D01*
X177355476Y-106180000D01*
X176498333Y-106132380D02*
X176688809Y-106132380D01*
X176784047Y-106180000D01*
X176831666Y-106227619D01*
X176926904Y-106370476D01*
X176974523Y-106560952D01*
X176974523Y-106941904D01*
X176926904Y-107037142D01*
X176879285Y-107084761D01*
X176784047Y-107132380D01*
X176593571Y-107132380D01*
X176498333Y-107084761D01*
X176450714Y-107037142D01*
X176403095Y-106941904D01*
X176403095Y-106703809D01*
X176450714Y-106608571D01*
X176498333Y-106560952D01*
X176593571Y-106513333D01*
X176784047Y-106513333D01*
X176879285Y-106560952D01*
X176926904Y-106608571D01*
X176974523Y-106703809D01*
%TO.C,Rreset1*%
X112212380Y-132036190D02*
X111736190Y-131702857D01*
X112212380Y-131464761D02*
X111212380Y-131464761D01*
X111212380Y-131845714D01*
X111260000Y-131940952D01*
X111307619Y-131988571D01*
X111402857Y-132036190D01*
X111545714Y-132036190D01*
X111640952Y-131988571D01*
X111688571Y-131940952D01*
X111736190Y-131845714D01*
X111736190Y-131464761D01*
X112212380Y-132464761D02*
X111545714Y-132464761D01*
X111736190Y-132464761D02*
X111640952Y-132512380D01*
X111593333Y-132560000D01*
X111545714Y-132655238D01*
X111545714Y-132750476D01*
X112164761Y-133464761D02*
X112212380Y-133369523D01*
X112212380Y-133179047D01*
X112164761Y-133083809D01*
X112069523Y-133036190D01*
X111688571Y-133036190D01*
X111593333Y-133083809D01*
X111545714Y-133179047D01*
X111545714Y-133369523D01*
X111593333Y-133464761D01*
X111688571Y-133512380D01*
X111783809Y-133512380D01*
X111879047Y-133036190D01*
X112164761Y-133893333D02*
X112212380Y-133988571D01*
X112212380Y-134179047D01*
X112164761Y-134274285D01*
X112069523Y-134321904D01*
X112021904Y-134321904D01*
X111926666Y-134274285D01*
X111879047Y-134179047D01*
X111879047Y-134036190D01*
X111831428Y-133940952D01*
X111736190Y-133893333D01*
X111688571Y-133893333D01*
X111593333Y-133940952D01*
X111545714Y-134036190D01*
X111545714Y-134179047D01*
X111593333Y-134274285D01*
X112164761Y-135131428D02*
X112212380Y-135036190D01*
X112212380Y-134845714D01*
X112164761Y-134750476D01*
X112069523Y-134702857D01*
X111688571Y-134702857D01*
X111593333Y-134750476D01*
X111545714Y-134845714D01*
X111545714Y-135036190D01*
X111593333Y-135131428D01*
X111688571Y-135179047D01*
X111783809Y-135179047D01*
X111879047Y-134702857D01*
X111545714Y-135464761D02*
X111545714Y-135845714D01*
X111212380Y-135607619D02*
X112069523Y-135607619D01*
X112164761Y-135655238D01*
X112212380Y-135750476D01*
X112212380Y-135845714D01*
X112212380Y-136702857D02*
X112212380Y-136131428D01*
X112212380Y-136417142D02*
X111212380Y-136417142D01*
X111355238Y-136321904D01*
X111450476Y-136226666D01*
X111498095Y-136131428D01*
%TO.C,Don1*%
X103242857Y-99932380D02*
X103242857Y-98932380D01*
X103004761Y-98932380D01*
X102861904Y-98980000D01*
X102766666Y-99075238D01*
X102719047Y-99170476D01*
X102671428Y-99360952D01*
X102671428Y-99503809D01*
X102719047Y-99694285D01*
X102766666Y-99789523D01*
X102861904Y-99884761D01*
X103004761Y-99932380D01*
X103242857Y-99932380D01*
X102100000Y-99932380D02*
X102195238Y-99884761D01*
X102242857Y-99837142D01*
X102290476Y-99741904D01*
X102290476Y-99456190D01*
X102242857Y-99360952D01*
X102195238Y-99313333D01*
X102100000Y-99265714D01*
X101957142Y-99265714D01*
X101861904Y-99313333D01*
X101814285Y-99360952D01*
X101766666Y-99456190D01*
X101766666Y-99741904D01*
X101814285Y-99837142D01*
X101861904Y-99884761D01*
X101957142Y-99932380D01*
X102100000Y-99932380D01*
X101338095Y-99265714D02*
X101338095Y-99932380D01*
X101338095Y-99360952D02*
X101290476Y-99313333D01*
X101195238Y-99265714D01*
X101052380Y-99265714D01*
X100957142Y-99313333D01*
X100909523Y-99408571D01*
X100909523Y-99932380D01*
X99909523Y-99932380D02*
X100480952Y-99932380D01*
X100195238Y-99932380D02*
X100195238Y-98932380D01*
X100290476Y-99075238D01*
X100385714Y-99170476D01*
X100480952Y-99218095D01*
%TO.C,SWexit1*%
X107234761Y-118669523D02*
X107282380Y-118812380D01*
X107282380Y-119050476D01*
X107234761Y-119145714D01*
X107187142Y-119193333D01*
X107091904Y-119240952D01*
X106996666Y-119240952D01*
X106901428Y-119193333D01*
X106853809Y-119145714D01*
X106806190Y-119050476D01*
X106758571Y-118860000D01*
X106710952Y-118764761D01*
X106663333Y-118717142D01*
X106568095Y-118669523D01*
X106472857Y-118669523D01*
X106377619Y-118717142D01*
X106330000Y-118764761D01*
X106282380Y-118860000D01*
X106282380Y-119098095D01*
X106330000Y-119240952D01*
X106282380Y-119574285D02*
X107282380Y-119812380D01*
X106568095Y-120002857D01*
X107282380Y-120193333D01*
X106282380Y-120431428D01*
X107234761Y-121193333D02*
X107282380Y-121098095D01*
X107282380Y-120907619D01*
X107234761Y-120812380D01*
X107139523Y-120764761D01*
X106758571Y-120764761D01*
X106663333Y-120812380D01*
X106615714Y-120907619D01*
X106615714Y-121098095D01*
X106663333Y-121193333D01*
X106758571Y-121240952D01*
X106853809Y-121240952D01*
X106949047Y-120764761D01*
X107282380Y-121574285D02*
X106615714Y-122098095D01*
X106615714Y-121574285D02*
X107282380Y-122098095D01*
X107282380Y-122479047D02*
X106615714Y-122479047D01*
X106282380Y-122479047D02*
X106330000Y-122431428D01*
X106377619Y-122479047D01*
X106330000Y-122526666D01*
X106282380Y-122479047D01*
X106377619Y-122479047D01*
X106615714Y-122812380D02*
X106615714Y-123193333D01*
X106282380Y-122955238D02*
X107139523Y-122955238D01*
X107234761Y-123002857D01*
X107282380Y-123098095D01*
X107282380Y-123193333D01*
X107282380Y-124050476D02*
X107282380Y-123479047D01*
X107282380Y-123764761D02*
X106282380Y-123764761D01*
X106425238Y-123669523D01*
X106520476Y-123574285D01*
X106568095Y-123479047D01*
%TO.C,JP6*%
X151646666Y-130087619D02*
X151646666Y-129373333D01*
X151599047Y-129230476D01*
X151503809Y-129135238D01*
X151360952Y-129087619D01*
X151265714Y-129087619D01*
X152122857Y-129087619D02*
X152122857Y-130087619D01*
X152503809Y-130087619D01*
X152599047Y-130040000D01*
X152646666Y-129992380D01*
X152694285Y-129897142D01*
X152694285Y-129754285D01*
X152646666Y-129659047D01*
X152599047Y-129611428D01*
X152503809Y-129563809D01*
X152122857Y-129563809D01*
X153551428Y-130087619D02*
X153360952Y-130087619D01*
X153265714Y-130040000D01*
X153218095Y-129992380D01*
X153122857Y-129849523D01*
X153075238Y-129659047D01*
X153075238Y-129278095D01*
X153122857Y-129182857D01*
X153170476Y-129135238D01*
X153265714Y-129087619D01*
X153456190Y-129087619D01*
X153551428Y-129135238D01*
X153599047Y-129182857D01*
X153646666Y-129278095D01*
X153646666Y-129516190D01*
X153599047Y-129611428D01*
X153551428Y-129659047D01*
X153456190Y-129706666D01*
X153265714Y-129706666D01*
X153170476Y-129659047D01*
X153122857Y-129611428D01*
X153075238Y-129516190D01*
%TO.C,D2*%
X135192380Y-61491904D02*
X134192380Y-61491904D01*
X134192380Y-61730000D01*
X134240000Y-61872857D01*
X134335238Y-61968095D01*
X134430476Y-62015714D01*
X134620952Y-62063333D01*
X134763809Y-62063333D01*
X134954285Y-62015714D01*
X135049523Y-61968095D01*
X135144761Y-61872857D01*
X135192380Y-61730000D01*
X135192380Y-61491904D01*
X134287619Y-62444285D02*
X134240000Y-62491904D01*
X134192380Y-62587142D01*
X134192380Y-62825238D01*
X134240000Y-62920476D01*
X134287619Y-62968095D01*
X134382857Y-63015714D01*
X134478095Y-63015714D01*
X134620952Y-62968095D01*
X135192380Y-62396666D01*
X135192380Y-63015714D01*
X135612380Y-59428095D02*
X134612380Y-59428095D01*
X135612380Y-59999523D02*
X135040952Y-59570952D01*
X134612380Y-59999523D02*
X135183809Y-59428095D01*
%TO.C,JP3*%
X159568333Y-55332380D02*
X159568333Y-56046666D01*
X159615952Y-56189523D01*
X159711190Y-56284761D01*
X159854047Y-56332380D01*
X159949285Y-56332380D01*
X159092142Y-56332380D02*
X159092142Y-55332380D01*
X158711190Y-55332380D01*
X158615952Y-55380000D01*
X158568333Y-55427619D01*
X158520714Y-55522857D01*
X158520714Y-55665714D01*
X158568333Y-55760952D01*
X158615952Y-55808571D01*
X158711190Y-55856190D01*
X159092142Y-55856190D01*
X158187380Y-55332380D02*
X157568333Y-55332380D01*
X157901666Y-55713333D01*
X157758809Y-55713333D01*
X157663571Y-55760952D01*
X157615952Y-55808571D01*
X157568333Y-55903809D01*
X157568333Y-56141904D01*
X157615952Y-56237142D01*
X157663571Y-56284761D01*
X157758809Y-56332380D01*
X158044523Y-56332380D01*
X158139761Y-56284761D01*
X158187380Y-56237142D01*
%TO.C,Jserial_power1*%
X199286190Y-134282380D02*
X199286190Y-134996666D01*
X199333809Y-135139523D01*
X199429047Y-135234761D01*
X199571904Y-135282380D01*
X199667142Y-135282380D01*
X198857619Y-135234761D02*
X198762380Y-135282380D01*
X198571904Y-135282380D01*
X198476666Y-135234761D01*
X198429047Y-135139523D01*
X198429047Y-135091904D01*
X198476666Y-134996666D01*
X198571904Y-134949047D01*
X198714761Y-134949047D01*
X198810000Y-134901428D01*
X198857619Y-134806190D01*
X198857619Y-134758571D01*
X198810000Y-134663333D01*
X198714761Y-134615714D01*
X198571904Y-134615714D01*
X198476666Y-134663333D01*
X197619523Y-135234761D02*
X197714761Y-135282380D01*
X197905238Y-135282380D01*
X198000476Y-135234761D01*
X198048095Y-135139523D01*
X198048095Y-134758571D01*
X198000476Y-134663333D01*
X197905238Y-134615714D01*
X197714761Y-134615714D01*
X197619523Y-134663333D01*
X197571904Y-134758571D01*
X197571904Y-134853809D01*
X198048095Y-134949047D01*
X197143333Y-135282380D02*
X197143333Y-134615714D01*
X197143333Y-134806190D02*
X197095714Y-134710952D01*
X197048095Y-134663333D01*
X196952857Y-134615714D01*
X196857619Y-134615714D01*
X196524285Y-135282380D02*
X196524285Y-134615714D01*
X196524285Y-134282380D02*
X196571904Y-134330000D01*
X196524285Y-134377619D01*
X196476666Y-134330000D01*
X196524285Y-134282380D01*
X196524285Y-134377619D01*
X195619523Y-135282380D02*
X195619523Y-134758571D01*
X195667142Y-134663333D01*
X195762380Y-134615714D01*
X195952857Y-134615714D01*
X196048095Y-134663333D01*
X195619523Y-135234761D02*
X195714761Y-135282380D01*
X195952857Y-135282380D01*
X196048095Y-135234761D01*
X196095714Y-135139523D01*
X196095714Y-135044285D01*
X196048095Y-134949047D01*
X195952857Y-134901428D01*
X195714761Y-134901428D01*
X195619523Y-134853809D01*
X195000476Y-135282380D02*
X195095714Y-135234761D01*
X195143333Y-135139523D01*
X195143333Y-134282380D01*
X194857619Y-135377619D02*
X194095714Y-135377619D01*
X193857619Y-134615714D02*
X193857619Y-135615714D01*
X193857619Y-134663333D02*
X193762380Y-134615714D01*
X193571904Y-134615714D01*
X193476666Y-134663333D01*
X193429047Y-134710952D01*
X193381428Y-134806190D01*
X193381428Y-135091904D01*
X193429047Y-135187142D01*
X193476666Y-135234761D01*
X193571904Y-135282380D01*
X193762380Y-135282380D01*
X193857619Y-135234761D01*
X192810000Y-135282380D02*
X192905238Y-135234761D01*
X192952857Y-135187142D01*
X193000476Y-135091904D01*
X193000476Y-134806190D01*
X192952857Y-134710952D01*
X192905238Y-134663333D01*
X192810000Y-134615714D01*
X192667142Y-134615714D01*
X192571904Y-134663333D01*
X192524285Y-134710952D01*
X192476666Y-134806190D01*
X192476666Y-135091904D01*
X192524285Y-135187142D01*
X192571904Y-135234761D01*
X192667142Y-135282380D01*
X192810000Y-135282380D01*
X192143333Y-134615714D02*
X191952857Y-135282380D01*
X191762380Y-134806190D01*
X191571904Y-135282380D01*
X191381428Y-134615714D01*
X190619523Y-135234761D02*
X190714761Y-135282380D01*
X190905238Y-135282380D01*
X191000476Y-135234761D01*
X191048095Y-135139523D01*
X191048095Y-134758571D01*
X191000476Y-134663333D01*
X190905238Y-134615714D01*
X190714761Y-134615714D01*
X190619523Y-134663333D01*
X190571904Y-134758571D01*
X190571904Y-134853809D01*
X191048095Y-134949047D01*
X190143333Y-135282380D02*
X190143333Y-134615714D01*
X190143333Y-134806190D02*
X190095714Y-134710952D01*
X190048095Y-134663333D01*
X189952857Y-134615714D01*
X189857619Y-134615714D01*
X189000476Y-135282380D02*
X189571904Y-135282380D01*
X189286190Y-135282380D02*
X189286190Y-134282380D01*
X189381428Y-134425238D01*
X189476666Y-134520476D01*
X189571904Y-134568095D01*
%TO.C,Rz2*%
X139001428Y-88082380D02*
X139334761Y-87606190D01*
X139572857Y-88082380D02*
X139572857Y-87082380D01*
X139191904Y-87082380D01*
X139096666Y-87130000D01*
X139049047Y-87177619D01*
X139001428Y-87272857D01*
X139001428Y-87415714D01*
X139049047Y-87510952D01*
X139096666Y-87558571D01*
X139191904Y-87606190D01*
X139572857Y-87606190D01*
X138668095Y-87415714D02*
X138144285Y-87415714D01*
X138668095Y-88082380D01*
X138144285Y-88082380D01*
X137810952Y-87177619D02*
X137763333Y-87130000D01*
X137668095Y-87082380D01*
X137430000Y-87082380D01*
X137334761Y-87130000D01*
X137287142Y-87177619D01*
X137239523Y-87272857D01*
X137239523Y-87368095D01*
X137287142Y-87510952D01*
X137858571Y-88082380D01*
X137239523Y-88082380D01*
%TO.C,Jpwr_sens2*%
X185300476Y-91102380D02*
X185300476Y-91816666D01*
X185348095Y-91959523D01*
X185443333Y-92054761D01*
X185586190Y-92102380D01*
X185681428Y-92102380D01*
X184824285Y-91435714D02*
X184824285Y-92435714D01*
X184824285Y-91483333D02*
X184729047Y-91435714D01*
X184538571Y-91435714D01*
X184443333Y-91483333D01*
X184395714Y-91530952D01*
X184348095Y-91626190D01*
X184348095Y-91911904D01*
X184395714Y-92007142D01*
X184443333Y-92054761D01*
X184538571Y-92102380D01*
X184729047Y-92102380D01*
X184824285Y-92054761D01*
X184014761Y-91435714D02*
X183824285Y-92102380D01*
X183633809Y-91626190D01*
X183443333Y-92102380D01*
X183252857Y-91435714D01*
X182871904Y-92102380D02*
X182871904Y-91435714D01*
X182871904Y-91626190D02*
X182824285Y-91530952D01*
X182776666Y-91483333D01*
X182681428Y-91435714D01*
X182586190Y-91435714D01*
X182490952Y-92197619D02*
X181729047Y-92197619D01*
X181538571Y-92054761D02*
X181443333Y-92102380D01*
X181252857Y-92102380D01*
X181157619Y-92054761D01*
X181110000Y-91959523D01*
X181110000Y-91911904D01*
X181157619Y-91816666D01*
X181252857Y-91769047D01*
X181395714Y-91769047D01*
X181490952Y-91721428D01*
X181538571Y-91626190D01*
X181538571Y-91578571D01*
X181490952Y-91483333D01*
X181395714Y-91435714D01*
X181252857Y-91435714D01*
X181157619Y-91483333D01*
X180300476Y-92054761D02*
X180395714Y-92102380D01*
X180586190Y-92102380D01*
X180681428Y-92054761D01*
X180729047Y-91959523D01*
X180729047Y-91578571D01*
X180681428Y-91483333D01*
X180586190Y-91435714D01*
X180395714Y-91435714D01*
X180300476Y-91483333D01*
X180252857Y-91578571D01*
X180252857Y-91673809D01*
X180729047Y-91769047D01*
X179824285Y-91435714D02*
X179824285Y-92102380D01*
X179824285Y-91530952D02*
X179776666Y-91483333D01*
X179681428Y-91435714D01*
X179538571Y-91435714D01*
X179443333Y-91483333D01*
X179395714Y-91578571D01*
X179395714Y-92102380D01*
X178967142Y-92054761D02*
X178871904Y-92102380D01*
X178681428Y-92102380D01*
X178586190Y-92054761D01*
X178538571Y-91959523D01*
X178538571Y-91911904D01*
X178586190Y-91816666D01*
X178681428Y-91769047D01*
X178824285Y-91769047D01*
X178919523Y-91721428D01*
X178967142Y-91626190D01*
X178967142Y-91578571D01*
X178919523Y-91483333D01*
X178824285Y-91435714D01*
X178681428Y-91435714D01*
X178586190Y-91483333D01*
X178157619Y-91197619D02*
X178110000Y-91150000D01*
X178014761Y-91102380D01*
X177776666Y-91102380D01*
X177681428Y-91150000D01*
X177633809Y-91197619D01*
X177586190Y-91292857D01*
X177586190Y-91388095D01*
X177633809Y-91530952D01*
X178205238Y-92102380D01*
X177586190Y-92102380D01*
%TO.C,U3v3*%
X180519047Y-129452380D02*
X180519047Y-130261904D01*
X180471428Y-130357142D01*
X180423809Y-130404761D01*
X180328571Y-130452380D01*
X180138095Y-130452380D01*
X180042857Y-130404761D01*
X179995238Y-130357142D01*
X179947619Y-130261904D01*
X179947619Y-129452380D01*
X179566666Y-129452380D02*
X178947619Y-129452380D01*
X179280952Y-129833333D01*
X179138095Y-129833333D01*
X179042857Y-129880952D01*
X178995238Y-129928571D01*
X178947619Y-130023809D01*
X178947619Y-130261904D01*
X178995238Y-130357142D01*
X179042857Y-130404761D01*
X179138095Y-130452380D01*
X179423809Y-130452380D01*
X179519047Y-130404761D01*
X179566666Y-130357142D01*
X178614285Y-129785714D02*
X178376190Y-130452380D01*
X178138095Y-129785714D01*
X177852380Y-129452380D02*
X177233333Y-129452380D01*
X177566666Y-129833333D01*
X177423809Y-129833333D01*
X177328571Y-129880952D01*
X177280952Y-129928571D01*
X177233333Y-130023809D01*
X177233333Y-130261904D01*
X177280952Y-130357142D01*
X177328571Y-130404761D01*
X177423809Y-130452380D01*
X177709523Y-130452380D01*
X177804761Y-130404761D01*
X177852380Y-130357142D01*
%TO.C,SWreset1*%
X107234761Y-130869523D02*
X107282380Y-131012380D01*
X107282380Y-131250476D01*
X107234761Y-131345714D01*
X107187142Y-131393333D01*
X107091904Y-131440952D01*
X106996666Y-131440952D01*
X106901428Y-131393333D01*
X106853809Y-131345714D01*
X106806190Y-131250476D01*
X106758571Y-131060000D01*
X106710952Y-130964761D01*
X106663333Y-130917142D01*
X106568095Y-130869523D01*
X106472857Y-130869523D01*
X106377619Y-130917142D01*
X106330000Y-130964761D01*
X106282380Y-131060000D01*
X106282380Y-131298095D01*
X106330000Y-131440952D01*
X106282380Y-131774285D02*
X107282380Y-132012380D01*
X106568095Y-132202857D01*
X107282380Y-132393333D01*
X106282380Y-132631428D01*
X107282380Y-133012380D02*
X106615714Y-133012380D01*
X106806190Y-133012380D02*
X106710952Y-133060000D01*
X106663333Y-133107619D01*
X106615714Y-133202857D01*
X106615714Y-133298095D01*
X107234761Y-134012380D02*
X107282380Y-133917142D01*
X107282380Y-133726666D01*
X107234761Y-133631428D01*
X107139523Y-133583809D01*
X106758571Y-133583809D01*
X106663333Y-133631428D01*
X106615714Y-133726666D01*
X106615714Y-133917142D01*
X106663333Y-134012380D01*
X106758571Y-134060000D01*
X106853809Y-134060000D01*
X106949047Y-133583809D01*
X107234761Y-134440952D02*
X107282380Y-134536190D01*
X107282380Y-134726666D01*
X107234761Y-134821904D01*
X107139523Y-134869523D01*
X107091904Y-134869523D01*
X106996666Y-134821904D01*
X106949047Y-134726666D01*
X106949047Y-134583809D01*
X106901428Y-134488571D01*
X106806190Y-134440952D01*
X106758571Y-134440952D01*
X106663333Y-134488571D01*
X106615714Y-134583809D01*
X106615714Y-134726666D01*
X106663333Y-134821904D01*
X107234761Y-135679047D02*
X107282380Y-135583809D01*
X107282380Y-135393333D01*
X107234761Y-135298095D01*
X107139523Y-135250476D01*
X106758571Y-135250476D01*
X106663333Y-135298095D01*
X106615714Y-135393333D01*
X106615714Y-135583809D01*
X106663333Y-135679047D01*
X106758571Y-135726666D01*
X106853809Y-135726666D01*
X106949047Y-135250476D01*
X106615714Y-136012380D02*
X106615714Y-136393333D01*
X106282380Y-136155238D02*
X107139523Y-136155238D01*
X107234761Y-136202857D01*
X107282380Y-136298095D01*
X107282380Y-136393333D01*
X107282380Y-137250476D02*
X107282380Y-136679047D01*
X107282380Y-136964761D02*
X106282380Y-136964761D01*
X106425238Y-136869523D01*
X106520476Y-136774285D01*
X106568095Y-136679047D01*
%TO.C,Rtriac2*%
X109830952Y-62862380D02*
X110164285Y-62386190D01*
X110402380Y-62862380D02*
X110402380Y-61862380D01*
X110021428Y-61862380D01*
X109926190Y-61910000D01*
X109878571Y-61957619D01*
X109830952Y-62052857D01*
X109830952Y-62195714D01*
X109878571Y-62290952D01*
X109926190Y-62338571D01*
X110021428Y-62386190D01*
X110402380Y-62386190D01*
X109545238Y-62195714D02*
X109164285Y-62195714D01*
X109402380Y-61862380D02*
X109402380Y-62719523D01*
X109354761Y-62814761D01*
X109259523Y-62862380D01*
X109164285Y-62862380D01*
X108830952Y-62862380D02*
X108830952Y-62195714D01*
X108830952Y-62386190D02*
X108783333Y-62290952D01*
X108735714Y-62243333D01*
X108640476Y-62195714D01*
X108545238Y-62195714D01*
X108211904Y-62862380D02*
X108211904Y-62195714D01*
X108211904Y-61862380D02*
X108259523Y-61910000D01*
X108211904Y-61957619D01*
X108164285Y-61910000D01*
X108211904Y-61862380D01*
X108211904Y-61957619D01*
X107307142Y-62862380D02*
X107307142Y-62338571D01*
X107354761Y-62243333D01*
X107450000Y-62195714D01*
X107640476Y-62195714D01*
X107735714Y-62243333D01*
X107307142Y-62814761D02*
X107402380Y-62862380D01*
X107640476Y-62862380D01*
X107735714Y-62814761D01*
X107783333Y-62719523D01*
X107783333Y-62624285D01*
X107735714Y-62529047D01*
X107640476Y-62481428D01*
X107402380Y-62481428D01*
X107307142Y-62433809D01*
X106402380Y-62814761D02*
X106497619Y-62862380D01*
X106688095Y-62862380D01*
X106783333Y-62814761D01*
X106830952Y-62767142D01*
X106878571Y-62671904D01*
X106878571Y-62386190D01*
X106830952Y-62290952D01*
X106783333Y-62243333D01*
X106688095Y-62195714D01*
X106497619Y-62195714D01*
X106402380Y-62243333D01*
X106021428Y-61957619D02*
X105973809Y-61910000D01*
X105878571Y-61862380D01*
X105640476Y-61862380D01*
X105545238Y-61910000D01*
X105497619Y-61957619D01*
X105450000Y-62052857D01*
X105450000Y-62148095D01*
X105497619Y-62290952D01*
X106069047Y-62862380D01*
X105450000Y-62862380D01*
%TO.C,Jl1*%
X192492380Y-64174761D02*
X193206666Y-64174761D01*
X193349523Y-64127142D01*
X193444761Y-64031904D01*
X193492380Y-63889047D01*
X193492380Y-63793809D01*
X193492380Y-64793809D02*
X193444761Y-64698571D01*
X193349523Y-64650952D01*
X192492380Y-64650952D01*
X193492380Y-65698571D02*
X193492380Y-65127142D01*
X193492380Y-65412857D02*
X192492380Y-65412857D01*
X192635238Y-65317619D01*
X192730476Y-65222380D01*
X192778095Y-65127142D01*
%TO.C,JP4*%
X132072380Y-51156666D02*
X132786666Y-51156666D01*
X132929523Y-51109047D01*
X133024761Y-51013809D01*
X133072380Y-50870952D01*
X133072380Y-50775714D01*
X133072380Y-51632857D02*
X132072380Y-51632857D01*
X132072380Y-52013809D01*
X132120000Y-52109047D01*
X132167619Y-52156666D01*
X132262857Y-52204285D01*
X132405714Y-52204285D01*
X132500952Y-52156666D01*
X132548571Y-52109047D01*
X132596190Y-52013809D01*
X132596190Y-51632857D01*
X132405714Y-53061428D02*
X133072380Y-53061428D01*
X132024761Y-52823333D02*
X132739047Y-52585238D01*
X132739047Y-53204285D01*
%TO.C,Jac1*%
X192492380Y-76255714D02*
X193206666Y-76255714D01*
X193349523Y-76208095D01*
X193444761Y-76112857D01*
X193492380Y-75970000D01*
X193492380Y-75874761D01*
X193492380Y-77160476D02*
X192968571Y-77160476D01*
X192873333Y-77112857D01*
X192825714Y-77017619D01*
X192825714Y-76827142D01*
X192873333Y-76731904D01*
X193444761Y-77160476D02*
X193492380Y-77065238D01*
X193492380Y-76827142D01*
X193444761Y-76731904D01*
X193349523Y-76684285D01*
X193254285Y-76684285D01*
X193159047Y-76731904D01*
X193111428Y-76827142D01*
X193111428Y-77065238D01*
X193063809Y-77160476D01*
X193444761Y-78065238D02*
X193492380Y-77970000D01*
X193492380Y-77779523D01*
X193444761Y-77684285D01*
X193397142Y-77636666D01*
X193301904Y-77589047D01*
X193016190Y-77589047D01*
X192920952Y-77636666D01*
X192873333Y-77684285D01*
X192825714Y-77779523D01*
X192825714Y-77970000D01*
X192873333Y-78065238D01*
X193492380Y-79017619D02*
X193492380Y-78446190D01*
X193492380Y-78731904D02*
X192492380Y-78731904D01*
X192635238Y-78636666D01*
X192730476Y-78541428D01*
X192778095Y-78446190D01*
%TO.C,Ron1*%
X111561428Y-94602380D02*
X111894761Y-94126190D01*
X112132857Y-94602380D02*
X112132857Y-93602380D01*
X111751904Y-93602380D01*
X111656666Y-93650000D01*
X111609047Y-93697619D01*
X111561428Y-93792857D01*
X111561428Y-93935714D01*
X111609047Y-94030952D01*
X111656666Y-94078571D01*
X111751904Y-94126190D01*
X112132857Y-94126190D01*
X110990000Y-94602380D02*
X111085238Y-94554761D01*
X111132857Y-94507142D01*
X111180476Y-94411904D01*
X111180476Y-94126190D01*
X111132857Y-94030952D01*
X111085238Y-93983333D01*
X110990000Y-93935714D01*
X110847142Y-93935714D01*
X110751904Y-93983333D01*
X110704285Y-94030952D01*
X110656666Y-94126190D01*
X110656666Y-94411904D01*
X110704285Y-94507142D01*
X110751904Y-94554761D01*
X110847142Y-94602380D01*
X110990000Y-94602380D01*
X110228095Y-93935714D02*
X110228095Y-94602380D01*
X110228095Y-94030952D02*
X110180476Y-93983333D01*
X110085238Y-93935714D01*
X109942380Y-93935714D01*
X109847142Y-93983333D01*
X109799523Y-94078571D01*
X109799523Y-94602380D01*
X108799523Y-94602380D02*
X109370952Y-94602380D01*
X109085238Y-94602380D02*
X109085238Y-93602380D01*
X109180476Y-93745238D01*
X109275714Y-93840476D01*
X109370952Y-93888095D01*
%TO.C,Ren1*%
X155987619Y-143284380D02*
X156320952Y-142808190D01*
X156559047Y-143284380D02*
X156559047Y-142284380D01*
X156178095Y-142284380D01*
X156082857Y-142332000D01*
X156035238Y-142379619D01*
X155987619Y-142474857D01*
X155987619Y-142617714D01*
X156035238Y-142712952D01*
X156082857Y-142760571D01*
X156178095Y-142808190D01*
X156559047Y-142808190D01*
X155178095Y-143236761D02*
X155273333Y-143284380D01*
X155463809Y-143284380D01*
X155559047Y-143236761D01*
X155606666Y-143141523D01*
X155606666Y-142760571D01*
X155559047Y-142665333D01*
X155463809Y-142617714D01*
X155273333Y-142617714D01*
X155178095Y-142665333D01*
X155130476Y-142760571D01*
X155130476Y-142855809D01*
X155606666Y-142951047D01*
X154701904Y-142617714D02*
X154701904Y-143284380D01*
X154701904Y-142712952D02*
X154654285Y-142665333D01*
X154559047Y-142617714D01*
X154416190Y-142617714D01*
X154320952Y-142665333D01*
X154273333Y-142760571D01*
X154273333Y-143284380D01*
X153273333Y-143284380D02*
X153844761Y-143284380D01*
X153559047Y-143284380D02*
X153559047Y-142284380D01*
X153654285Y-142427238D01*
X153749523Y-142522476D01*
X153844761Y-142570095D01*
%TO.C,JP2*%
X159568333Y-57872380D02*
X159568333Y-58586666D01*
X159615952Y-58729523D01*
X159711190Y-58824761D01*
X159854047Y-58872380D01*
X159949285Y-58872380D01*
X159092142Y-58872380D02*
X159092142Y-57872380D01*
X158711190Y-57872380D01*
X158615952Y-57920000D01*
X158568333Y-57967619D01*
X158520714Y-58062857D01*
X158520714Y-58205714D01*
X158568333Y-58300952D01*
X158615952Y-58348571D01*
X158711190Y-58396190D01*
X159092142Y-58396190D01*
X158139761Y-57967619D02*
X158092142Y-57920000D01*
X157996904Y-57872380D01*
X157758809Y-57872380D01*
X157663571Y-57920000D01*
X157615952Y-57967619D01*
X157568333Y-58062857D01*
X157568333Y-58158095D01*
X157615952Y-58300952D01*
X158187380Y-58872380D01*
X157568333Y-58872380D01*
%TO.C,Uload1*%
X158412380Y-75074047D02*
X159221904Y-75074047D01*
X159317142Y-75121666D01*
X159364761Y-75169285D01*
X159412380Y-75264523D01*
X159412380Y-75455000D01*
X159364761Y-75550238D01*
X159317142Y-75597857D01*
X159221904Y-75645476D01*
X158412380Y-75645476D01*
X159412380Y-76264523D02*
X159364761Y-76169285D01*
X159269523Y-76121666D01*
X158412380Y-76121666D01*
X159412380Y-76788333D02*
X159364761Y-76693095D01*
X159317142Y-76645476D01*
X159221904Y-76597857D01*
X158936190Y-76597857D01*
X158840952Y-76645476D01*
X158793333Y-76693095D01*
X158745714Y-76788333D01*
X158745714Y-76931190D01*
X158793333Y-77026428D01*
X158840952Y-77074047D01*
X158936190Y-77121666D01*
X159221904Y-77121666D01*
X159317142Y-77074047D01*
X159364761Y-77026428D01*
X159412380Y-76931190D01*
X159412380Y-76788333D01*
X159412380Y-77978809D02*
X158888571Y-77978809D01*
X158793333Y-77931190D01*
X158745714Y-77835952D01*
X158745714Y-77645476D01*
X158793333Y-77550238D01*
X159364761Y-77978809D02*
X159412380Y-77883571D01*
X159412380Y-77645476D01*
X159364761Y-77550238D01*
X159269523Y-77502619D01*
X159174285Y-77502619D01*
X159079047Y-77550238D01*
X159031428Y-77645476D01*
X159031428Y-77883571D01*
X158983809Y-77978809D01*
X159412380Y-78883571D02*
X158412380Y-78883571D01*
X159364761Y-78883571D02*
X159412380Y-78788333D01*
X159412380Y-78597857D01*
X159364761Y-78502619D01*
X159317142Y-78455000D01*
X159221904Y-78407380D01*
X158936190Y-78407380D01*
X158840952Y-78455000D01*
X158793333Y-78502619D01*
X158745714Y-78597857D01*
X158745714Y-78788333D01*
X158793333Y-78883571D01*
X159412380Y-79883571D02*
X159412380Y-79312142D01*
X159412380Y-79597857D02*
X158412380Y-79597857D01*
X158555238Y-79502619D01*
X158650476Y-79407380D01*
X158698095Y-79312142D01*
%TO.C,D4*%
X130112380Y-61491904D02*
X129112380Y-61491904D01*
X129112380Y-61730000D01*
X129160000Y-61872857D01*
X129255238Y-61968095D01*
X129350476Y-62015714D01*
X129540952Y-62063333D01*
X129683809Y-62063333D01*
X129874285Y-62015714D01*
X129969523Y-61968095D01*
X130064761Y-61872857D01*
X130112380Y-61730000D01*
X130112380Y-61491904D01*
X129445714Y-62920476D02*
X130112380Y-62920476D01*
X129064761Y-62682380D02*
X129779047Y-62444285D01*
X129779047Y-63063333D01*
X130532380Y-59428095D02*
X129532380Y-59428095D01*
X130532380Y-59999523D02*
X129960952Y-59570952D01*
X129532380Y-59999523D02*
X130103809Y-59428095D01*
%TO.C,JP7*%
X120642380Y-130056666D02*
X121356666Y-130056666D01*
X121499523Y-130009047D01*
X121594761Y-129913809D01*
X121642380Y-129770952D01*
X121642380Y-129675714D01*
X121642380Y-130532857D02*
X120642380Y-130532857D01*
X120642380Y-130913809D01*
X120690000Y-131009047D01*
X120737619Y-131056666D01*
X120832857Y-131104285D01*
X120975714Y-131104285D01*
X121070952Y-131056666D01*
X121118571Y-131009047D01*
X121166190Y-130913809D01*
X121166190Y-130532857D01*
X120642380Y-131437619D02*
X120642380Y-132104285D01*
X121642380Y-131675714D01*
%TO.C,Rmoc1*%
X164274285Y-88082380D02*
X164607619Y-87606190D01*
X164845714Y-88082380D02*
X164845714Y-87082380D01*
X164464761Y-87082380D01*
X164369523Y-87130000D01*
X164321904Y-87177619D01*
X164274285Y-87272857D01*
X164274285Y-87415714D01*
X164321904Y-87510952D01*
X164369523Y-87558571D01*
X164464761Y-87606190D01*
X164845714Y-87606190D01*
X163845714Y-88082380D02*
X163845714Y-87415714D01*
X163845714Y-87510952D02*
X163798095Y-87463333D01*
X163702857Y-87415714D01*
X163560000Y-87415714D01*
X163464761Y-87463333D01*
X163417142Y-87558571D01*
X163417142Y-88082380D01*
X163417142Y-87558571D02*
X163369523Y-87463333D01*
X163274285Y-87415714D01*
X163131428Y-87415714D01*
X163036190Y-87463333D01*
X162988571Y-87558571D01*
X162988571Y-88082380D01*
X162369523Y-88082380D02*
X162464761Y-88034761D01*
X162512380Y-87987142D01*
X162560000Y-87891904D01*
X162560000Y-87606190D01*
X162512380Y-87510952D01*
X162464761Y-87463333D01*
X162369523Y-87415714D01*
X162226666Y-87415714D01*
X162131428Y-87463333D01*
X162083809Y-87510952D01*
X162036190Y-87606190D01*
X162036190Y-87891904D01*
X162083809Y-87987142D01*
X162131428Y-88034761D01*
X162226666Y-88082380D01*
X162369523Y-88082380D01*
X161179047Y-88034761D02*
X161274285Y-88082380D01*
X161464761Y-88082380D01*
X161560000Y-88034761D01*
X161607619Y-87987142D01*
X161655238Y-87891904D01*
X161655238Y-87606190D01*
X161607619Y-87510952D01*
X161560000Y-87463333D01*
X161464761Y-87415714D01*
X161274285Y-87415714D01*
X161179047Y-87463333D01*
X160226666Y-88082380D02*
X160798095Y-88082380D01*
X160512380Y-88082380D02*
X160512380Y-87082380D01*
X160607619Y-87225238D01*
X160702857Y-87320476D01*
X160798095Y-87368095D01*
%TO.C,Rtriac1*%
X160615952Y-64132380D02*
X160949285Y-63656190D01*
X161187380Y-64132380D02*
X161187380Y-63132380D01*
X160806428Y-63132380D01*
X160711190Y-63180000D01*
X160663571Y-63227619D01*
X160615952Y-63322857D01*
X160615952Y-63465714D01*
X160663571Y-63560952D01*
X160711190Y-63608571D01*
X160806428Y-63656190D01*
X161187380Y-63656190D01*
X160330238Y-63465714D02*
X159949285Y-63465714D01*
X160187380Y-63132380D02*
X160187380Y-63989523D01*
X160139761Y-64084761D01*
X160044523Y-64132380D01*
X159949285Y-64132380D01*
X159615952Y-64132380D02*
X159615952Y-63465714D01*
X159615952Y-63656190D02*
X159568333Y-63560952D01*
X159520714Y-63513333D01*
X159425476Y-63465714D01*
X159330238Y-63465714D01*
X158996904Y-64132380D02*
X158996904Y-63465714D01*
X158996904Y-63132380D02*
X159044523Y-63180000D01*
X158996904Y-63227619D01*
X158949285Y-63180000D01*
X158996904Y-63132380D01*
X158996904Y-63227619D01*
X158092142Y-64132380D02*
X158092142Y-63608571D01*
X158139761Y-63513333D01*
X158235000Y-63465714D01*
X158425476Y-63465714D01*
X158520714Y-63513333D01*
X158092142Y-64084761D02*
X158187380Y-64132380D01*
X158425476Y-64132380D01*
X158520714Y-64084761D01*
X158568333Y-63989523D01*
X158568333Y-63894285D01*
X158520714Y-63799047D01*
X158425476Y-63751428D01*
X158187380Y-63751428D01*
X158092142Y-63703809D01*
X157187380Y-64084761D02*
X157282619Y-64132380D01*
X157473095Y-64132380D01*
X157568333Y-64084761D01*
X157615952Y-64037142D01*
X157663571Y-63941904D01*
X157663571Y-63656190D01*
X157615952Y-63560952D01*
X157568333Y-63513333D01*
X157473095Y-63465714D01*
X157282619Y-63465714D01*
X157187380Y-63513333D01*
X156235000Y-64132380D02*
X156806428Y-64132380D01*
X156520714Y-64132380D02*
X156520714Y-63132380D01*
X156615952Y-63275238D01*
X156711190Y-63370476D01*
X156806428Y-63418095D01*
%TO.C,Rsens2*%
X160607142Y-126012380D02*
X160940476Y-125536190D01*
X161178571Y-126012380D02*
X161178571Y-125012380D01*
X160797619Y-125012380D01*
X160702380Y-125060000D01*
X160654761Y-125107619D01*
X160607142Y-125202857D01*
X160607142Y-125345714D01*
X160654761Y-125440952D01*
X160702380Y-125488571D01*
X160797619Y-125536190D01*
X161178571Y-125536190D01*
X160226190Y-125964761D02*
X160130952Y-126012380D01*
X159940476Y-126012380D01*
X159845238Y-125964761D01*
X159797619Y-125869523D01*
X159797619Y-125821904D01*
X159845238Y-125726666D01*
X159940476Y-125679047D01*
X160083333Y-125679047D01*
X160178571Y-125631428D01*
X160226190Y-125536190D01*
X160226190Y-125488571D01*
X160178571Y-125393333D01*
X160083333Y-125345714D01*
X159940476Y-125345714D01*
X159845238Y-125393333D01*
X158988095Y-125964761D02*
X159083333Y-126012380D01*
X159273809Y-126012380D01*
X159369047Y-125964761D01*
X159416666Y-125869523D01*
X159416666Y-125488571D01*
X159369047Y-125393333D01*
X159273809Y-125345714D01*
X159083333Y-125345714D01*
X158988095Y-125393333D01*
X158940476Y-125488571D01*
X158940476Y-125583809D01*
X159416666Y-125679047D01*
X158511904Y-125345714D02*
X158511904Y-126012380D01*
X158511904Y-125440952D02*
X158464285Y-125393333D01*
X158369047Y-125345714D01*
X158226190Y-125345714D01*
X158130952Y-125393333D01*
X158083333Y-125488571D01*
X158083333Y-126012380D01*
X157654761Y-125964761D02*
X157559523Y-126012380D01*
X157369047Y-126012380D01*
X157273809Y-125964761D01*
X157226190Y-125869523D01*
X157226190Y-125821904D01*
X157273809Y-125726666D01*
X157369047Y-125679047D01*
X157511904Y-125679047D01*
X157607142Y-125631428D01*
X157654761Y-125536190D01*
X157654761Y-125488571D01*
X157607142Y-125393333D01*
X157511904Y-125345714D01*
X157369047Y-125345714D01*
X157273809Y-125393333D01*
X156845238Y-125107619D02*
X156797619Y-125060000D01*
X156702380Y-125012380D01*
X156464285Y-125012380D01*
X156369047Y-125060000D01*
X156321428Y-125107619D01*
X156273809Y-125202857D01*
X156273809Y-125298095D01*
X156321428Y-125440952D01*
X156892857Y-126012380D01*
X156273809Y-126012380D01*
%TO.C,Dwifi1*%
X103623809Y-112632380D02*
X103623809Y-111632380D01*
X103385714Y-111632380D01*
X103242857Y-111680000D01*
X103147619Y-111775238D01*
X103100000Y-111870476D01*
X103052380Y-112060952D01*
X103052380Y-112203809D01*
X103100000Y-112394285D01*
X103147619Y-112489523D01*
X103242857Y-112584761D01*
X103385714Y-112632380D01*
X103623809Y-112632380D01*
X102719047Y-111965714D02*
X102528571Y-112632380D01*
X102338095Y-112156190D01*
X102147619Y-112632380D01*
X101957142Y-111965714D01*
X101576190Y-112632380D02*
X101576190Y-111965714D01*
X101576190Y-111632380D02*
X101623809Y-111680000D01*
X101576190Y-111727619D01*
X101528571Y-111680000D01*
X101576190Y-111632380D01*
X101576190Y-111727619D01*
X101242857Y-111965714D02*
X100861904Y-111965714D01*
X101100000Y-112632380D02*
X101100000Y-111775238D01*
X101052380Y-111680000D01*
X100957142Y-111632380D01*
X100861904Y-111632380D01*
X100528571Y-112632380D02*
X100528571Y-111965714D01*
X100528571Y-111632380D02*
X100576190Y-111680000D01*
X100528571Y-111727619D01*
X100480952Y-111680000D01*
X100528571Y-111632380D01*
X100528571Y-111727619D01*
X99528571Y-112632380D02*
X100100000Y-112632380D01*
X99814285Y-112632380D02*
X99814285Y-111632380D01*
X99909523Y-111775238D01*
X100004761Y-111870476D01*
X100100000Y-111918095D01*
%TO.C,Rz1*%
X133921428Y-71752380D02*
X134254761Y-71276190D01*
X134492857Y-71752380D02*
X134492857Y-70752380D01*
X134111904Y-70752380D01*
X134016666Y-70800000D01*
X133969047Y-70847619D01*
X133921428Y-70942857D01*
X133921428Y-71085714D01*
X133969047Y-71180952D01*
X134016666Y-71228571D01*
X134111904Y-71276190D01*
X134492857Y-71276190D01*
X133588095Y-71085714D02*
X133064285Y-71085714D01*
X133588095Y-71752380D01*
X133064285Y-71752380D01*
X132159523Y-71752380D02*
X132730952Y-71752380D01*
X132445238Y-71752380D02*
X132445238Y-70752380D01*
X132540476Y-70895238D01*
X132635714Y-70990476D01*
X132730952Y-71038095D01*
%TO.C,Jl2*%
X192492380Y-52744761D02*
X193206666Y-52744761D01*
X193349523Y-52697142D01*
X193444761Y-52601904D01*
X193492380Y-52459047D01*
X193492380Y-52363809D01*
X193492380Y-53363809D02*
X193444761Y-53268571D01*
X193349523Y-53220952D01*
X192492380Y-53220952D01*
X192587619Y-53697142D02*
X192540000Y-53744761D01*
X192492380Y-53840000D01*
X192492380Y-54078095D01*
X192540000Y-54173333D01*
X192587619Y-54220952D01*
X192682857Y-54268571D01*
X192778095Y-54268571D01*
X192920952Y-54220952D01*
X193492380Y-53649523D01*
X193492380Y-54268571D01*
%TO.C,JP9*%
X121563333Y-119372380D02*
X121563333Y-120086666D01*
X121610952Y-120229523D01*
X121706190Y-120324761D01*
X121849047Y-120372380D01*
X121944285Y-120372380D01*
X121087142Y-120372380D02*
X121087142Y-119372380D01*
X120706190Y-119372380D01*
X120610952Y-119420000D01*
X120563333Y-119467619D01*
X120515714Y-119562857D01*
X120515714Y-119705714D01*
X120563333Y-119800952D01*
X120610952Y-119848571D01*
X120706190Y-119896190D01*
X121087142Y-119896190D01*
X120039523Y-120372380D02*
X119849047Y-120372380D01*
X119753809Y-120324761D01*
X119706190Y-120277142D01*
X119610952Y-120134285D01*
X119563333Y-119943809D01*
X119563333Y-119562857D01*
X119610952Y-119467619D01*
X119658571Y-119420000D01*
X119753809Y-119372380D01*
X119944285Y-119372380D01*
X120039523Y-119420000D01*
X120087142Y-119467619D01*
X120134761Y-119562857D01*
X120134761Y-119800952D01*
X120087142Y-119896190D01*
X120039523Y-119943809D01*
X119944285Y-119991428D01*
X119753809Y-119991428D01*
X119658571Y-119943809D01*
X119610952Y-119896190D01*
X119563333Y-119800952D01*
%TO.C,D3*%
X124912380Y-61491904D02*
X123912380Y-61491904D01*
X123912380Y-61730000D01*
X123960000Y-61872857D01*
X124055238Y-61968095D01*
X124150476Y-62015714D01*
X124340952Y-62063333D01*
X124483809Y-62063333D01*
X124674285Y-62015714D01*
X124769523Y-61968095D01*
X124864761Y-61872857D01*
X124912380Y-61730000D01*
X124912380Y-61491904D01*
X123912380Y-62396666D02*
X123912380Y-63015714D01*
X124293333Y-62682380D01*
X124293333Y-62825238D01*
X124340952Y-62920476D01*
X124388571Y-62968095D01*
X124483809Y-63015714D01*
X124721904Y-63015714D01*
X124817142Y-62968095D01*
X124864761Y-62920476D01*
X124912380Y-62825238D01*
X124912380Y-62539523D01*
X124864761Y-62444285D01*
X124817142Y-62396666D01*
X129452380Y-64508095D02*
X128452380Y-64508095D01*
X129452380Y-65079523D02*
X128880952Y-64650952D01*
X128452380Y-65079523D02*
X129023809Y-64508095D01*
%TO.C,Uload2*%
X105087380Y-75074047D02*
X105896904Y-75074047D01*
X105992142Y-75121666D01*
X106039761Y-75169285D01*
X106087380Y-75264523D01*
X106087380Y-75455000D01*
X106039761Y-75550238D01*
X105992142Y-75597857D01*
X105896904Y-75645476D01*
X105087380Y-75645476D01*
X106087380Y-76264523D02*
X106039761Y-76169285D01*
X105944523Y-76121666D01*
X105087380Y-76121666D01*
X106087380Y-76788333D02*
X106039761Y-76693095D01*
X105992142Y-76645476D01*
X105896904Y-76597857D01*
X105611190Y-76597857D01*
X105515952Y-76645476D01*
X105468333Y-76693095D01*
X105420714Y-76788333D01*
X105420714Y-76931190D01*
X105468333Y-77026428D01*
X105515952Y-77074047D01*
X105611190Y-77121666D01*
X105896904Y-77121666D01*
X105992142Y-77074047D01*
X106039761Y-77026428D01*
X106087380Y-76931190D01*
X106087380Y-76788333D01*
X106087380Y-77978809D02*
X105563571Y-77978809D01*
X105468333Y-77931190D01*
X105420714Y-77835952D01*
X105420714Y-77645476D01*
X105468333Y-77550238D01*
X106039761Y-77978809D02*
X106087380Y-77883571D01*
X106087380Y-77645476D01*
X106039761Y-77550238D01*
X105944523Y-77502619D01*
X105849285Y-77502619D01*
X105754047Y-77550238D01*
X105706428Y-77645476D01*
X105706428Y-77883571D01*
X105658809Y-77978809D01*
X106087380Y-78883571D02*
X105087380Y-78883571D01*
X106039761Y-78883571D02*
X106087380Y-78788333D01*
X106087380Y-78597857D01*
X106039761Y-78502619D01*
X105992142Y-78455000D01*
X105896904Y-78407380D01*
X105611190Y-78407380D01*
X105515952Y-78455000D01*
X105468333Y-78502619D01*
X105420714Y-78597857D01*
X105420714Y-78788333D01*
X105468333Y-78883571D01*
X105182619Y-79312142D02*
X105135000Y-79359761D01*
X105087380Y-79455000D01*
X105087380Y-79693095D01*
X105135000Y-79788333D01*
X105182619Y-79835952D01*
X105277857Y-79883571D01*
X105373095Y-79883571D01*
X105515952Y-79835952D01*
X106087380Y-79264523D01*
X106087380Y-79883571D01*
%TO.C,Jpwr_sens1*%
X194190476Y-91102380D02*
X194190476Y-91816666D01*
X194238095Y-91959523D01*
X194333333Y-92054761D01*
X194476190Y-92102380D01*
X194571428Y-92102380D01*
X193714285Y-91435714D02*
X193714285Y-92435714D01*
X193714285Y-91483333D02*
X193619047Y-91435714D01*
X193428571Y-91435714D01*
X193333333Y-91483333D01*
X193285714Y-91530952D01*
X193238095Y-91626190D01*
X193238095Y-91911904D01*
X193285714Y-92007142D01*
X193333333Y-92054761D01*
X193428571Y-92102380D01*
X193619047Y-92102380D01*
X193714285Y-92054761D01*
X192904761Y-91435714D02*
X192714285Y-92102380D01*
X192523809Y-91626190D01*
X192333333Y-92102380D01*
X192142857Y-91435714D01*
X191761904Y-92102380D02*
X191761904Y-91435714D01*
X191761904Y-91626190D02*
X191714285Y-91530952D01*
X191666666Y-91483333D01*
X191571428Y-91435714D01*
X191476190Y-91435714D01*
X191380952Y-92197619D02*
X190619047Y-92197619D01*
X190428571Y-92054761D02*
X190333333Y-92102380D01*
X190142857Y-92102380D01*
X190047619Y-92054761D01*
X190000000Y-91959523D01*
X190000000Y-91911904D01*
X190047619Y-91816666D01*
X190142857Y-91769047D01*
X190285714Y-91769047D01*
X190380952Y-91721428D01*
X190428571Y-91626190D01*
X190428571Y-91578571D01*
X190380952Y-91483333D01*
X190285714Y-91435714D01*
X190142857Y-91435714D01*
X190047619Y-91483333D01*
X189190476Y-92054761D02*
X189285714Y-92102380D01*
X189476190Y-92102380D01*
X189571428Y-92054761D01*
X189619047Y-91959523D01*
X189619047Y-91578571D01*
X189571428Y-91483333D01*
X189476190Y-91435714D01*
X189285714Y-91435714D01*
X189190476Y-91483333D01*
X189142857Y-91578571D01*
X189142857Y-91673809D01*
X189619047Y-91769047D01*
X188714285Y-91435714D02*
X188714285Y-92102380D01*
X188714285Y-91530952D02*
X188666666Y-91483333D01*
X188571428Y-91435714D01*
X188428571Y-91435714D01*
X188333333Y-91483333D01*
X188285714Y-91578571D01*
X188285714Y-92102380D01*
X187857142Y-92054761D02*
X187761904Y-92102380D01*
X187571428Y-92102380D01*
X187476190Y-92054761D01*
X187428571Y-91959523D01*
X187428571Y-91911904D01*
X187476190Y-91816666D01*
X187571428Y-91769047D01*
X187714285Y-91769047D01*
X187809523Y-91721428D01*
X187857142Y-91626190D01*
X187857142Y-91578571D01*
X187809523Y-91483333D01*
X187714285Y-91435714D01*
X187571428Y-91435714D01*
X187476190Y-91483333D01*
X186476190Y-92102380D02*
X187047619Y-92102380D01*
X186761904Y-92102380D02*
X186761904Y-91102380D01*
X186857142Y-91245238D01*
X186952380Y-91340476D01*
X187047619Y-91388095D01*
%TO.C,C1*%
X173077142Y-143343333D02*
X173124761Y-143295714D01*
X173172380Y-143152857D01*
X173172380Y-143057619D01*
X173124761Y-142914761D01*
X173029523Y-142819523D01*
X172934285Y-142771904D01*
X172743809Y-142724285D01*
X172600952Y-142724285D01*
X172410476Y-142771904D01*
X172315238Y-142819523D01*
X172220000Y-142914761D01*
X172172380Y-143057619D01*
X172172380Y-143152857D01*
X172220000Y-143295714D01*
X172267619Y-143343333D01*
X173172380Y-144295714D02*
X173172380Y-143724285D01*
X173172380Y-144010000D02*
X172172380Y-144010000D01*
X172315238Y-143914761D01*
X172410476Y-143819523D01*
X172458095Y-143724285D01*
%TO.C,Rwifi1*%
X111942380Y-107302380D02*
X112275714Y-106826190D01*
X112513809Y-107302380D02*
X112513809Y-106302380D01*
X112132857Y-106302380D01*
X112037619Y-106350000D01*
X111990000Y-106397619D01*
X111942380Y-106492857D01*
X111942380Y-106635714D01*
X111990000Y-106730952D01*
X112037619Y-106778571D01*
X112132857Y-106826190D01*
X112513809Y-106826190D01*
X111609047Y-106635714D02*
X111418571Y-107302380D01*
X111228095Y-106826190D01*
X111037619Y-107302380D01*
X110847142Y-106635714D01*
X110466190Y-107302380D02*
X110466190Y-106635714D01*
X110466190Y-106302380D02*
X110513809Y-106350000D01*
X110466190Y-106397619D01*
X110418571Y-106350000D01*
X110466190Y-106302380D01*
X110466190Y-106397619D01*
X110132857Y-106635714D02*
X109751904Y-106635714D01*
X109990000Y-107302380D02*
X109990000Y-106445238D01*
X109942380Y-106350000D01*
X109847142Y-106302380D01*
X109751904Y-106302380D01*
X109418571Y-107302380D02*
X109418571Y-106635714D01*
X109418571Y-106302380D02*
X109466190Y-106350000D01*
X109418571Y-106397619D01*
X109370952Y-106350000D01*
X109418571Y-106302380D01*
X109418571Y-106397619D01*
X108418571Y-107302380D02*
X108990000Y-107302380D01*
X108704285Y-107302380D02*
X108704285Y-106302380D01*
X108799523Y-106445238D01*
X108894761Y-106540476D01*
X108990000Y-106588095D01*
%TO.C,Jserial_com1*%
X127547142Y-138092380D02*
X127547142Y-138806666D01*
X127594761Y-138949523D01*
X127690000Y-139044761D01*
X127832857Y-139092380D01*
X127928095Y-139092380D01*
X127118571Y-139044761D02*
X127023333Y-139092380D01*
X126832857Y-139092380D01*
X126737619Y-139044761D01*
X126690000Y-138949523D01*
X126690000Y-138901904D01*
X126737619Y-138806666D01*
X126832857Y-138759047D01*
X126975714Y-138759047D01*
X127070952Y-138711428D01*
X127118571Y-138616190D01*
X127118571Y-138568571D01*
X127070952Y-138473333D01*
X126975714Y-138425714D01*
X126832857Y-138425714D01*
X126737619Y-138473333D01*
X125880476Y-139044761D02*
X125975714Y-139092380D01*
X126166190Y-139092380D01*
X126261428Y-139044761D01*
X126309047Y-138949523D01*
X126309047Y-138568571D01*
X126261428Y-138473333D01*
X126166190Y-138425714D01*
X125975714Y-138425714D01*
X125880476Y-138473333D01*
X125832857Y-138568571D01*
X125832857Y-138663809D01*
X126309047Y-138759047D01*
X125404285Y-139092380D02*
X125404285Y-138425714D01*
X125404285Y-138616190D02*
X125356666Y-138520952D01*
X125309047Y-138473333D01*
X125213809Y-138425714D01*
X125118571Y-138425714D01*
X124785238Y-139092380D02*
X124785238Y-138425714D01*
X124785238Y-138092380D02*
X124832857Y-138140000D01*
X124785238Y-138187619D01*
X124737619Y-138140000D01*
X124785238Y-138092380D01*
X124785238Y-138187619D01*
X123880476Y-139092380D02*
X123880476Y-138568571D01*
X123928095Y-138473333D01*
X124023333Y-138425714D01*
X124213809Y-138425714D01*
X124309047Y-138473333D01*
X123880476Y-139044761D02*
X123975714Y-139092380D01*
X124213809Y-139092380D01*
X124309047Y-139044761D01*
X124356666Y-138949523D01*
X124356666Y-138854285D01*
X124309047Y-138759047D01*
X124213809Y-138711428D01*
X123975714Y-138711428D01*
X123880476Y-138663809D01*
X123261428Y-139092380D02*
X123356666Y-139044761D01*
X123404285Y-138949523D01*
X123404285Y-138092380D01*
X123118571Y-139187619D02*
X122356666Y-139187619D01*
X121690000Y-139044761D02*
X121785238Y-139092380D01*
X121975714Y-139092380D01*
X122070952Y-139044761D01*
X122118571Y-138997142D01*
X122166190Y-138901904D01*
X122166190Y-138616190D01*
X122118571Y-138520952D01*
X122070952Y-138473333D01*
X121975714Y-138425714D01*
X121785238Y-138425714D01*
X121690000Y-138473333D01*
X121118571Y-139092380D02*
X121213809Y-139044761D01*
X121261428Y-138997142D01*
X121309047Y-138901904D01*
X121309047Y-138616190D01*
X121261428Y-138520952D01*
X121213809Y-138473333D01*
X121118571Y-138425714D01*
X120975714Y-138425714D01*
X120880476Y-138473333D01*
X120832857Y-138520952D01*
X120785238Y-138616190D01*
X120785238Y-138901904D01*
X120832857Y-138997142D01*
X120880476Y-139044761D01*
X120975714Y-139092380D01*
X121118571Y-139092380D01*
X120356666Y-139092380D02*
X120356666Y-138425714D01*
X120356666Y-138520952D02*
X120309047Y-138473333D01*
X120213809Y-138425714D01*
X120070952Y-138425714D01*
X119975714Y-138473333D01*
X119928095Y-138568571D01*
X119928095Y-139092380D01*
X119928095Y-138568571D02*
X119880476Y-138473333D01*
X119785238Y-138425714D01*
X119642380Y-138425714D01*
X119547142Y-138473333D01*
X119499523Y-138568571D01*
X119499523Y-139092380D01*
X118499523Y-139092380D02*
X119070952Y-139092380D01*
X118785238Y-139092380D02*
X118785238Y-138092380D01*
X118880476Y-138235238D01*
X118975714Y-138330476D01*
X119070952Y-138378095D01*
%TO.C,Umultiplex1*%
X162954285Y-94902380D02*
X162954285Y-95711904D01*
X162906666Y-95807142D01*
X162859047Y-95854761D01*
X162763809Y-95902380D01*
X162573333Y-95902380D01*
X162478095Y-95854761D01*
X162430476Y-95807142D01*
X162382857Y-95711904D01*
X162382857Y-94902380D01*
X161906666Y-95902380D02*
X161906666Y-95235714D01*
X161906666Y-95330952D02*
X161859047Y-95283333D01*
X161763809Y-95235714D01*
X161620952Y-95235714D01*
X161525714Y-95283333D01*
X161478095Y-95378571D01*
X161478095Y-95902380D01*
X161478095Y-95378571D02*
X161430476Y-95283333D01*
X161335238Y-95235714D01*
X161192380Y-95235714D01*
X161097142Y-95283333D01*
X161049523Y-95378571D01*
X161049523Y-95902380D01*
X160144761Y-95235714D02*
X160144761Y-95902380D01*
X160573333Y-95235714D02*
X160573333Y-95759523D01*
X160525714Y-95854761D01*
X160430476Y-95902380D01*
X160287619Y-95902380D01*
X160192380Y-95854761D01*
X160144761Y-95807142D01*
X159525714Y-95902380D02*
X159620952Y-95854761D01*
X159668571Y-95759523D01*
X159668571Y-94902380D01*
X159287619Y-95235714D02*
X158906666Y-95235714D01*
X159144761Y-94902380D02*
X159144761Y-95759523D01*
X159097142Y-95854761D01*
X159001904Y-95902380D01*
X158906666Y-95902380D01*
X158573333Y-95902380D02*
X158573333Y-95235714D01*
X158573333Y-94902380D02*
X158620952Y-94950000D01*
X158573333Y-94997619D01*
X158525714Y-94950000D01*
X158573333Y-94902380D01*
X158573333Y-94997619D01*
X158097142Y-95235714D02*
X158097142Y-96235714D01*
X158097142Y-95283333D02*
X158001904Y-95235714D01*
X157811428Y-95235714D01*
X157716190Y-95283333D01*
X157668571Y-95330952D01*
X157620952Y-95426190D01*
X157620952Y-95711904D01*
X157668571Y-95807142D01*
X157716190Y-95854761D01*
X157811428Y-95902380D01*
X158001904Y-95902380D01*
X158097142Y-95854761D01*
X157049523Y-95902380D02*
X157144761Y-95854761D01*
X157192380Y-95759523D01*
X157192380Y-94902380D01*
X156287619Y-95854761D02*
X156382857Y-95902380D01*
X156573333Y-95902380D01*
X156668571Y-95854761D01*
X156716190Y-95759523D01*
X156716190Y-95378571D01*
X156668571Y-95283333D01*
X156573333Y-95235714D01*
X156382857Y-95235714D01*
X156287619Y-95283333D01*
X156240000Y-95378571D01*
X156240000Y-95473809D01*
X156716190Y-95569047D01*
X155906666Y-95902380D02*
X155382857Y-95235714D01*
X155906666Y-95235714D02*
X155382857Y-95902380D01*
X154478095Y-95902380D02*
X155049523Y-95902380D01*
X154763809Y-95902380D02*
X154763809Y-94902380D01*
X154859047Y-95045238D01*
X154954285Y-95140476D01*
X155049523Y-95188095D01*
%TO.C,Jdc1*%
X201414285Y-130932380D02*
X201414285Y-131646666D01*
X201461904Y-131789523D01*
X201557142Y-131884761D01*
X201700000Y-131932380D01*
X201795238Y-131932380D01*
X200509523Y-131932380D02*
X200509523Y-130932380D01*
X200509523Y-131884761D02*
X200604761Y-131932380D01*
X200795238Y-131932380D01*
X200890476Y-131884761D01*
X200938095Y-131837142D01*
X200985714Y-131741904D01*
X200985714Y-131456190D01*
X200938095Y-131360952D01*
X200890476Y-131313333D01*
X200795238Y-131265714D01*
X200604761Y-131265714D01*
X200509523Y-131313333D01*
X199604761Y-131884761D02*
X199700000Y-131932380D01*
X199890476Y-131932380D01*
X199985714Y-131884761D01*
X200033333Y-131837142D01*
X200080952Y-131741904D01*
X200080952Y-131456190D01*
X200033333Y-131360952D01*
X199985714Y-131313333D01*
X199890476Y-131265714D01*
X199700000Y-131265714D01*
X199604761Y-131313333D01*
X198652380Y-131932380D02*
X199223809Y-131932380D01*
X198938095Y-131932380D02*
X198938095Y-130932380D01*
X199033333Y-131075238D01*
X199128571Y-131170476D01*
X199223809Y-131218095D01*
%TO.C,C2*%
X161647142Y-143343333D02*
X161694761Y-143295714D01*
X161742380Y-143152857D01*
X161742380Y-143057619D01*
X161694761Y-142914761D01*
X161599523Y-142819523D01*
X161504285Y-142771904D01*
X161313809Y-142724285D01*
X161170952Y-142724285D01*
X160980476Y-142771904D01*
X160885238Y-142819523D01*
X160790000Y-142914761D01*
X160742380Y-143057619D01*
X160742380Y-143152857D01*
X160790000Y-143295714D01*
X160837619Y-143343333D01*
X160837619Y-143724285D02*
X160790000Y-143771904D01*
X160742380Y-143867142D01*
X160742380Y-144105238D01*
X160790000Y-144200476D01*
X160837619Y-144248095D01*
X160932857Y-144295714D01*
X161028095Y-144295714D01*
X161170952Y-144248095D01*
X161742380Y-143676666D01*
X161742380Y-144295714D01*
%TO.C,Rss1*%
X111466190Y-100952380D02*
X111799523Y-100476190D01*
X112037619Y-100952380D02*
X112037619Y-99952380D01*
X111656666Y-99952380D01*
X111561428Y-100000000D01*
X111513809Y-100047619D01*
X111466190Y-100142857D01*
X111466190Y-100285714D01*
X111513809Y-100380952D01*
X111561428Y-100428571D01*
X111656666Y-100476190D01*
X112037619Y-100476190D01*
X111085238Y-100904761D02*
X110990000Y-100952380D01*
X110799523Y-100952380D01*
X110704285Y-100904761D01*
X110656666Y-100809523D01*
X110656666Y-100761904D01*
X110704285Y-100666666D01*
X110799523Y-100619047D01*
X110942380Y-100619047D01*
X111037619Y-100571428D01*
X111085238Y-100476190D01*
X111085238Y-100428571D01*
X111037619Y-100333333D01*
X110942380Y-100285714D01*
X110799523Y-100285714D01*
X110704285Y-100333333D01*
X110275714Y-100904761D02*
X110180476Y-100952380D01*
X109990000Y-100952380D01*
X109894761Y-100904761D01*
X109847142Y-100809523D01*
X109847142Y-100761904D01*
X109894761Y-100666666D01*
X109990000Y-100619047D01*
X110132857Y-100619047D01*
X110228095Y-100571428D01*
X110275714Y-100476190D01*
X110275714Y-100428571D01*
X110228095Y-100333333D01*
X110132857Y-100285714D01*
X109990000Y-100285714D01*
X109894761Y-100333333D01*
X108894761Y-100952380D02*
X109466190Y-100952380D01*
X109180476Y-100952380D02*
X109180476Y-99952380D01*
X109275714Y-100095238D01*
X109370952Y-100190476D01*
X109466190Y-100238095D01*
%TO.C,Q1*%
X155035238Y-43267619D02*
X155130476Y-43220000D01*
X155225714Y-43124761D01*
X155368571Y-42981904D01*
X155463809Y-42934285D01*
X155559047Y-42934285D01*
X155511428Y-43172380D02*
X155606666Y-43124761D01*
X155701904Y-43029523D01*
X155749523Y-42839047D01*
X155749523Y-42505714D01*
X155701904Y-42315238D01*
X155606666Y-42220000D01*
X155511428Y-42172380D01*
X155320952Y-42172380D01*
X155225714Y-42220000D01*
X155130476Y-42315238D01*
X155082857Y-42505714D01*
X155082857Y-42839047D01*
X155130476Y-43029523D01*
X155225714Y-43124761D01*
X155320952Y-43172380D01*
X155511428Y-43172380D01*
X154130476Y-43172380D02*
X154701904Y-43172380D01*
X154416190Y-43172380D02*
X154416190Y-42172380D01*
X154511428Y-42315238D01*
X154606666Y-42410476D01*
X154701904Y-42458095D01*
%TO.C,Udet_0*%
X134282380Y-75160476D02*
X135091904Y-75160476D01*
X135187142Y-75208095D01*
X135234761Y-75255714D01*
X135282380Y-75350952D01*
X135282380Y-75541428D01*
X135234761Y-75636666D01*
X135187142Y-75684285D01*
X135091904Y-75731904D01*
X134282380Y-75731904D01*
X135282380Y-76636666D02*
X134282380Y-76636666D01*
X135234761Y-76636666D02*
X135282380Y-76541428D01*
X135282380Y-76350952D01*
X135234761Y-76255714D01*
X135187142Y-76208095D01*
X135091904Y-76160476D01*
X134806190Y-76160476D01*
X134710952Y-76208095D01*
X134663333Y-76255714D01*
X134615714Y-76350952D01*
X134615714Y-76541428D01*
X134663333Y-76636666D01*
X135234761Y-77493809D02*
X135282380Y-77398571D01*
X135282380Y-77208095D01*
X135234761Y-77112857D01*
X135139523Y-77065238D01*
X134758571Y-77065238D01*
X134663333Y-77112857D01*
X134615714Y-77208095D01*
X134615714Y-77398571D01*
X134663333Y-77493809D01*
X134758571Y-77541428D01*
X134853809Y-77541428D01*
X134949047Y-77065238D01*
X134615714Y-77827142D02*
X134615714Y-78208095D01*
X134282380Y-77970000D02*
X135139523Y-77970000D01*
X135234761Y-78017619D01*
X135282380Y-78112857D01*
X135282380Y-78208095D01*
X135377619Y-78303333D02*
X135377619Y-79065238D01*
X134282380Y-79493809D02*
X134282380Y-79589047D01*
X134330000Y-79684285D01*
X134377619Y-79731904D01*
X134472857Y-79779523D01*
X134663333Y-79827142D01*
X134901428Y-79827142D01*
X135091904Y-79779523D01*
X135187142Y-79731904D01*
X135234761Y-79684285D01*
X135282380Y-79589047D01*
X135282380Y-79493809D01*
X135234761Y-79398571D01*
X135187142Y-79350952D01*
X135091904Y-79303333D01*
X134901428Y-79255714D01*
X134663333Y-79255714D01*
X134472857Y-79303333D01*
X134377619Y-79350952D01*
X134330000Y-79398571D01*
X134282380Y-79493809D01*
%TO.C,Rexit1*%
X112042380Y-119836190D02*
X111566190Y-119502857D01*
X112042380Y-119264761D02*
X111042380Y-119264761D01*
X111042380Y-119645714D01*
X111090000Y-119740952D01*
X111137619Y-119788571D01*
X111232857Y-119836190D01*
X111375714Y-119836190D01*
X111470952Y-119788571D01*
X111518571Y-119740952D01*
X111566190Y-119645714D01*
X111566190Y-119264761D01*
X111994761Y-120645714D02*
X112042380Y-120550476D01*
X112042380Y-120360000D01*
X111994761Y-120264761D01*
X111899523Y-120217142D01*
X111518571Y-120217142D01*
X111423333Y-120264761D01*
X111375714Y-120360000D01*
X111375714Y-120550476D01*
X111423333Y-120645714D01*
X111518571Y-120693333D01*
X111613809Y-120693333D01*
X111709047Y-120217142D01*
X112042380Y-121026666D02*
X111375714Y-121550476D01*
X111375714Y-121026666D02*
X112042380Y-121550476D01*
X112042380Y-121931428D02*
X111375714Y-121931428D01*
X111042380Y-121931428D02*
X111090000Y-121883809D01*
X111137619Y-121931428D01*
X111090000Y-121979047D01*
X111042380Y-121931428D01*
X111137619Y-121931428D01*
X111375714Y-122264761D02*
X111375714Y-122645714D01*
X111042380Y-122407619D02*
X111899523Y-122407619D01*
X111994761Y-122455238D01*
X112042380Y-122550476D01*
X112042380Y-122645714D01*
X112042380Y-123502857D02*
X112042380Y-122931428D01*
X112042380Y-123217142D02*
X111042380Y-123217142D01*
X111185238Y-123121904D01*
X111280476Y-123026666D01*
X111328095Y-122931428D01*
%TO.C,Jsens1*%
X176013809Y-91117380D02*
X176013809Y-91831666D01*
X176061428Y-91974523D01*
X176156666Y-92069761D01*
X176299523Y-92117380D01*
X176394761Y-92117380D01*
X175585238Y-92069761D02*
X175490000Y-92117380D01*
X175299523Y-92117380D01*
X175204285Y-92069761D01*
X175156666Y-91974523D01*
X175156666Y-91926904D01*
X175204285Y-91831666D01*
X175299523Y-91784047D01*
X175442380Y-91784047D01*
X175537619Y-91736428D01*
X175585238Y-91641190D01*
X175585238Y-91593571D01*
X175537619Y-91498333D01*
X175442380Y-91450714D01*
X175299523Y-91450714D01*
X175204285Y-91498333D01*
X174347142Y-92069761D02*
X174442380Y-92117380D01*
X174632857Y-92117380D01*
X174728095Y-92069761D01*
X174775714Y-91974523D01*
X174775714Y-91593571D01*
X174728095Y-91498333D01*
X174632857Y-91450714D01*
X174442380Y-91450714D01*
X174347142Y-91498333D01*
X174299523Y-91593571D01*
X174299523Y-91688809D01*
X174775714Y-91784047D01*
X173870952Y-91450714D02*
X173870952Y-92117380D01*
X173870952Y-91545952D02*
X173823333Y-91498333D01*
X173728095Y-91450714D01*
X173585238Y-91450714D01*
X173490000Y-91498333D01*
X173442380Y-91593571D01*
X173442380Y-92117380D01*
X173013809Y-92069761D02*
X172918571Y-92117380D01*
X172728095Y-92117380D01*
X172632857Y-92069761D01*
X172585238Y-91974523D01*
X172585238Y-91926904D01*
X172632857Y-91831666D01*
X172728095Y-91784047D01*
X172870952Y-91784047D01*
X172966190Y-91736428D01*
X173013809Y-91641190D01*
X173013809Y-91593571D01*
X172966190Y-91498333D01*
X172870952Y-91450714D01*
X172728095Y-91450714D01*
X172632857Y-91498333D01*
X171632857Y-92117380D02*
X172204285Y-92117380D01*
X171918571Y-92117380D02*
X171918571Y-91117380D01*
X172013809Y-91260238D01*
X172109047Y-91355476D01*
X172204285Y-91403095D01*
%TO.C,JP5*%
X153313333Y-125182380D02*
X153313333Y-125896666D01*
X153360952Y-126039523D01*
X153456190Y-126134761D01*
X153599047Y-126182380D01*
X153694285Y-126182380D01*
X152837142Y-126182380D02*
X152837142Y-125182380D01*
X152456190Y-125182380D01*
X152360952Y-125230000D01*
X152313333Y-125277619D01*
X152265714Y-125372857D01*
X152265714Y-125515714D01*
X152313333Y-125610952D01*
X152360952Y-125658571D01*
X152456190Y-125706190D01*
X152837142Y-125706190D01*
X151360952Y-125182380D02*
X151837142Y-125182380D01*
X151884761Y-125658571D01*
X151837142Y-125610952D01*
X151741904Y-125563333D01*
X151503809Y-125563333D01*
X151408571Y-125610952D01*
X151360952Y-125658571D01*
X151313333Y-125753809D01*
X151313333Y-125991904D01*
X151360952Y-126087142D01*
X151408571Y-126134761D01*
X151503809Y-126182380D01*
X151741904Y-126182380D01*
X151837142Y-126134761D01*
X151884761Y-126087142D01*
%TO.C,Q2*%
X114935238Y-42537619D02*
X115030476Y-42490000D01*
X115125714Y-42394761D01*
X115268571Y-42251904D01*
X115363809Y-42204285D01*
X115459047Y-42204285D01*
X115411428Y-42442380D02*
X115506666Y-42394761D01*
X115601904Y-42299523D01*
X115649523Y-42109047D01*
X115649523Y-41775714D01*
X115601904Y-41585238D01*
X115506666Y-41490000D01*
X115411428Y-41442380D01*
X115220952Y-41442380D01*
X115125714Y-41490000D01*
X115030476Y-41585238D01*
X114982857Y-41775714D01*
X114982857Y-42109047D01*
X115030476Y-42299523D01*
X115125714Y-42394761D01*
X115220952Y-42442380D01*
X115411428Y-42442380D01*
X114601904Y-41537619D02*
X114554285Y-41490000D01*
X114459047Y-41442380D01*
X114220952Y-41442380D01*
X114125714Y-41490000D01*
X114078095Y-41537619D01*
X114030476Y-41632857D01*
X114030476Y-41728095D01*
X114078095Y-41870952D01*
X114649523Y-42442380D01*
X114030476Y-42442380D01*
%TO.C,Dss1*%
X103147619Y-106282380D02*
X103147619Y-105282380D01*
X102909523Y-105282380D01*
X102766666Y-105330000D01*
X102671428Y-105425238D01*
X102623809Y-105520476D01*
X102576190Y-105710952D01*
X102576190Y-105853809D01*
X102623809Y-106044285D01*
X102671428Y-106139523D01*
X102766666Y-106234761D01*
X102909523Y-106282380D01*
X103147619Y-106282380D01*
X102195238Y-106234761D02*
X102100000Y-106282380D01*
X101909523Y-106282380D01*
X101814285Y-106234761D01*
X101766666Y-106139523D01*
X101766666Y-106091904D01*
X101814285Y-105996666D01*
X101909523Y-105949047D01*
X102052380Y-105949047D01*
X102147619Y-105901428D01*
X102195238Y-105806190D01*
X102195238Y-105758571D01*
X102147619Y-105663333D01*
X102052380Y-105615714D01*
X101909523Y-105615714D01*
X101814285Y-105663333D01*
X101385714Y-106234761D02*
X101290476Y-106282380D01*
X101100000Y-106282380D01*
X101004761Y-106234761D01*
X100957142Y-106139523D01*
X100957142Y-106091904D01*
X101004761Y-105996666D01*
X101100000Y-105949047D01*
X101242857Y-105949047D01*
X101338095Y-105901428D01*
X101385714Y-105806190D01*
X101385714Y-105758571D01*
X101338095Y-105663333D01*
X101242857Y-105615714D01*
X101100000Y-105615714D01*
X101004761Y-105663333D01*
X100004761Y-106282380D02*
X100576190Y-106282380D01*
X100290476Y-106282380D02*
X100290476Y-105282380D01*
X100385714Y-105425238D01*
X100480952Y-105520476D01*
X100576190Y-105568095D01*
%TO.C,Rmoc2*%
X110934285Y-88082380D02*
X111267619Y-87606190D01*
X111505714Y-88082380D02*
X111505714Y-87082380D01*
X111124761Y-87082380D01*
X111029523Y-87130000D01*
X110981904Y-87177619D01*
X110934285Y-87272857D01*
X110934285Y-87415714D01*
X110981904Y-87510952D01*
X111029523Y-87558571D01*
X111124761Y-87606190D01*
X111505714Y-87606190D01*
X110505714Y-88082380D02*
X110505714Y-87415714D01*
X110505714Y-87510952D02*
X110458095Y-87463333D01*
X110362857Y-87415714D01*
X110220000Y-87415714D01*
X110124761Y-87463333D01*
X110077142Y-87558571D01*
X110077142Y-88082380D01*
X110077142Y-87558571D02*
X110029523Y-87463333D01*
X109934285Y-87415714D01*
X109791428Y-87415714D01*
X109696190Y-87463333D01*
X109648571Y-87558571D01*
X109648571Y-88082380D01*
X109029523Y-88082380D02*
X109124761Y-88034761D01*
X109172380Y-87987142D01*
X109220000Y-87891904D01*
X109220000Y-87606190D01*
X109172380Y-87510952D01*
X109124761Y-87463333D01*
X109029523Y-87415714D01*
X108886666Y-87415714D01*
X108791428Y-87463333D01*
X108743809Y-87510952D01*
X108696190Y-87606190D01*
X108696190Y-87891904D01*
X108743809Y-87987142D01*
X108791428Y-88034761D01*
X108886666Y-88082380D01*
X109029523Y-88082380D01*
X107839047Y-88034761D02*
X107934285Y-88082380D01*
X108124761Y-88082380D01*
X108220000Y-88034761D01*
X108267619Y-87987142D01*
X108315238Y-87891904D01*
X108315238Y-87606190D01*
X108267619Y-87510952D01*
X108220000Y-87463333D01*
X108124761Y-87415714D01*
X107934285Y-87415714D01*
X107839047Y-87463333D01*
X107458095Y-87177619D02*
X107410476Y-87130000D01*
X107315238Y-87082380D01*
X107077142Y-87082380D01*
X106981904Y-87130000D01*
X106934285Y-87177619D01*
X106886666Y-87272857D01*
X106886666Y-87368095D01*
X106934285Y-87510952D01*
X107505714Y-88082380D01*
X106886666Y-88082380D01*
%TO.C,F1*%
X186268571Y-68426666D02*
X186268571Y-68093333D01*
X186792380Y-68093333D02*
X185792380Y-68093333D01*
X185792380Y-68569523D01*
X186792380Y-69474285D02*
X186792380Y-68902857D01*
X186792380Y-69188571D02*
X185792380Y-69188571D01*
X185935238Y-69093333D01*
X186030476Y-68998095D01*
X186078095Y-68902857D01*
%TO.C,JP8*%
X116832380Y-130056666D02*
X117546666Y-130056666D01*
X117689523Y-130009047D01*
X117784761Y-129913809D01*
X117832380Y-129770952D01*
X117832380Y-129675714D01*
X117832380Y-130532857D02*
X116832380Y-130532857D01*
X116832380Y-130913809D01*
X116880000Y-131009047D01*
X116927619Y-131056666D01*
X117022857Y-131104285D01*
X117165714Y-131104285D01*
X117260952Y-131056666D01*
X117308571Y-131009047D01*
X117356190Y-130913809D01*
X117356190Y-130532857D01*
X117260952Y-131675714D02*
X117213333Y-131580476D01*
X117165714Y-131532857D01*
X117070476Y-131485238D01*
X117022857Y-131485238D01*
X116927619Y-131532857D01*
X116880000Y-131580476D01*
X116832380Y-131675714D01*
X116832380Y-131866190D01*
X116880000Y-131961428D01*
X116927619Y-132009047D01*
X117022857Y-132056666D01*
X117070476Y-132056666D01*
X117165714Y-132009047D01*
X117213333Y-131961428D01*
X117260952Y-131866190D01*
X117260952Y-131675714D01*
X117308571Y-131580476D01*
X117356190Y-131532857D01*
X117451428Y-131485238D01*
X117641904Y-131485238D01*
X117737142Y-131532857D01*
X117784761Y-131580476D01*
X117832380Y-131675714D01*
X117832380Y-131866190D01*
X117784761Y-131961428D01*
X117737142Y-132009047D01*
X117641904Y-132056666D01*
X117451428Y-132056666D01*
X117356190Y-132009047D01*
X117308571Y-131961428D01*
X117260952Y-131866190D01*
%TO.C,D1*%
X140152380Y-61491904D02*
X139152380Y-61491904D01*
X139152380Y-61730000D01*
X139200000Y-61872857D01*
X139295238Y-61968095D01*
X139390476Y-62015714D01*
X139580952Y-62063333D01*
X139723809Y-62063333D01*
X139914285Y-62015714D01*
X140009523Y-61968095D01*
X140104761Y-61872857D01*
X140152380Y-61730000D01*
X140152380Y-61491904D01*
X140152380Y-63015714D02*
X140152380Y-62444285D01*
X140152380Y-62730000D02*
X139152380Y-62730000D01*
X139295238Y-62634761D01*
X139390476Y-62539523D01*
X139438095Y-62444285D01*
X144692380Y-64508095D02*
X143692380Y-64508095D01*
X144692380Y-65079523D02*
X144120952Y-64650952D01*
X143692380Y-65079523D02*
X144263809Y-64508095D01*
%TO.C,Rsens1*%
X168227142Y-119832380D02*
X168560476Y-119356190D01*
X168798571Y-119832380D02*
X168798571Y-118832380D01*
X168417619Y-118832380D01*
X168322380Y-118880000D01*
X168274761Y-118927619D01*
X168227142Y-119022857D01*
X168227142Y-119165714D01*
X168274761Y-119260952D01*
X168322380Y-119308571D01*
X168417619Y-119356190D01*
X168798571Y-119356190D01*
X167846190Y-119784761D02*
X167750952Y-119832380D01*
X167560476Y-119832380D01*
X167465238Y-119784761D01*
X167417619Y-119689523D01*
X167417619Y-119641904D01*
X167465238Y-119546666D01*
X167560476Y-119499047D01*
X167703333Y-119499047D01*
X167798571Y-119451428D01*
X167846190Y-119356190D01*
X167846190Y-119308571D01*
X167798571Y-119213333D01*
X167703333Y-119165714D01*
X167560476Y-119165714D01*
X167465238Y-119213333D01*
X166608095Y-119784761D02*
X166703333Y-119832380D01*
X166893809Y-119832380D01*
X166989047Y-119784761D01*
X167036666Y-119689523D01*
X167036666Y-119308571D01*
X166989047Y-119213333D01*
X166893809Y-119165714D01*
X166703333Y-119165714D01*
X166608095Y-119213333D01*
X166560476Y-119308571D01*
X166560476Y-119403809D01*
X167036666Y-119499047D01*
X166131904Y-119165714D02*
X166131904Y-119832380D01*
X166131904Y-119260952D02*
X166084285Y-119213333D01*
X165989047Y-119165714D01*
X165846190Y-119165714D01*
X165750952Y-119213333D01*
X165703333Y-119308571D01*
X165703333Y-119832380D01*
X165274761Y-119784761D02*
X165179523Y-119832380D01*
X164989047Y-119832380D01*
X164893809Y-119784761D01*
X164846190Y-119689523D01*
X164846190Y-119641904D01*
X164893809Y-119546666D01*
X164989047Y-119499047D01*
X165131904Y-119499047D01*
X165227142Y-119451428D01*
X165274761Y-119356190D01*
X165274761Y-119308571D01*
X165227142Y-119213333D01*
X165131904Y-119165714D01*
X164989047Y-119165714D01*
X164893809Y-119213333D01*
X163893809Y-119832380D02*
X164465238Y-119832380D01*
X164179523Y-119832380D02*
X164179523Y-118832380D01*
X164274761Y-118975238D01*
X164370000Y-119070476D01*
X164465238Y-119118095D01*
%TO.C,D5*%
X130278095Y-76532380D02*
X130278095Y-75532380D01*
X130040000Y-75532380D01*
X129897142Y-75580000D01*
X129801904Y-75675238D01*
X129754285Y-75770476D01*
X129706666Y-75960952D01*
X129706666Y-76103809D01*
X129754285Y-76294285D01*
X129801904Y-76389523D01*
X129897142Y-76484761D01*
X130040000Y-76532380D01*
X130278095Y-76532380D01*
X128801904Y-75532380D02*
X129278095Y-75532380D01*
X129325714Y-76008571D01*
X129278095Y-75960952D01*
X129182857Y-75913333D01*
X128944761Y-75913333D01*
X128849523Y-75960952D01*
X128801904Y-76008571D01*
X128754285Y-76103809D01*
X128754285Y-76341904D01*
X128801904Y-76437142D01*
X128849523Y-76484761D01*
X128944761Y-76532380D01*
X129182857Y-76532380D01*
X129278095Y-76484761D01*
X129325714Y-76437142D01*
X127261904Y-76112380D02*
X127261904Y-75112380D01*
X126690476Y-76112380D02*
X127119047Y-75540952D01*
X126690476Y-75112380D02*
X127261904Y-75683809D01*
D12*
%TO.C,Rreset1*%
X107850000Y-137330000D02*
X108180000Y-137330000D01*
X110590000Y-130790000D02*
X110590000Y-137330000D01*
X110590000Y-137330000D02*
X110260000Y-137330000D01*
X110260000Y-130790000D02*
X110590000Y-130790000D01*
X108180000Y-130790000D02*
X107850000Y-130790000D01*
X107850000Y-130790000D02*
X107850000Y-137330000D01*
%TO.C,Don1*%
X100040000Y-95440000D02*
X100040000Y-95284000D01*
X100040000Y-97756000D02*
X100040000Y-97600000D01*
X100040000Y-97755516D02*
G75*
G03*
X103272335Y-97598608I1560000J1235516D01*
G01*
X103272335Y-95441392D02*
G75*
G03*
X100040000Y-95284484I-1672335J-1078608D01*
G01*
X100559039Y-97600000D02*
G75*
G03*
X102641130Y-97599837I1040961J1080000D01*
G01*
X102641130Y-95440163D02*
G75*
G03*
X100559039Y-95440000I-1041130J-1079837D01*
G01*
%TO.C,SWexit1*%
X105830000Y-119110000D02*
X105830000Y-123610000D01*
X101830000Y-117860000D02*
X103330000Y-117860000D01*
X103330000Y-124860000D02*
X101830000Y-124860000D01*
X99330000Y-123610000D02*
X99330000Y-119110000D01*
%TO.C,JP6*%
X148480000Y-130810000D02*
X156480000Y-130810000D01*
%TO.C,D2*%
X135740000Y-60510000D02*
X135740000Y-63950000D01*
X135920000Y-60510000D02*
X135740000Y-60510000D01*
X138580000Y-63950000D02*
X138400000Y-63950000D01*
X135740000Y-63950000D02*
X135920000Y-63950000D01*
X138580000Y-60510000D02*
X138580000Y-63950000D01*
X135740000Y-61230000D02*
X138580000Y-61230000D01*
X138400000Y-60510000D02*
X138580000Y-60510000D01*
X135740000Y-60990000D02*
X138580000Y-60990000D01*
X135740000Y-61110000D02*
X138580000Y-61110000D01*
%TO.C,JP3*%
X162735000Y-54610000D02*
X154735000Y-54610000D01*
%TO.C,Jserial_power1*%
X195640000Y-141030000D02*
X192980000Y-141030000D01*
X195640000Y-137160000D02*
X195640000Y-135830000D01*
X192980000Y-138430000D02*
X192980000Y-141030000D01*
X195640000Y-135830000D02*
X194310000Y-135830000D01*
X195640000Y-138430000D02*
X195640000Y-141030000D01*
X195640000Y-138430000D02*
X192980000Y-138430000D01*
%TO.C,Rz2*%
X141700000Y-86460000D02*
X135160000Y-86460000D01*
X141700000Y-83720000D02*
X135160000Y-83720000D01*
X135160000Y-86460000D02*
X135160000Y-86130000D01*
X141700000Y-86130000D02*
X141700000Y-86460000D01*
X141700000Y-84050000D02*
X141700000Y-83720000D01*
X135160000Y-83720000D02*
X135160000Y-84050000D01*
%TO.C,Jpwr_sens2*%
X180280000Y-95250000D02*
X180280000Y-113090000D01*
X182940000Y-113090000D02*
X180280000Y-113090000D01*
X182940000Y-95250000D02*
X182940000Y-113090000D01*
X182940000Y-93980000D02*
X182940000Y-92650000D01*
X182940000Y-95250000D02*
X180280000Y-95250000D01*
X182940000Y-92650000D02*
X181610000Y-92650000D01*
%TO.C,U3v3*%
X173780000Y-129000000D02*
X173780000Y-124359000D01*
X184020000Y-129000000D02*
X184020000Y-124359000D01*
X177050000Y-129000000D02*
X177050000Y-127490000D01*
X173780000Y-129000000D02*
X184020000Y-129000000D01*
X173780000Y-124359000D02*
X184020000Y-124359000D01*
X180751000Y-129000000D02*
X180751000Y-127490000D01*
X173780000Y-127490000D02*
X184020000Y-127490000D01*
%TO.C,SWreset1*%
X99330000Y-136310000D02*
X99330000Y-131810000D01*
X101830000Y-130560000D02*
X103330000Y-130560000D01*
X103330000Y-137560000D02*
X101830000Y-137560000D01*
X105830000Y-131810000D02*
X105830000Y-136310000D01*
%TO.C,Rtriac2*%
X103330000Y-61410000D02*
X103330000Y-57970000D01*
X103330000Y-57970000D02*
X112570000Y-57970000D01*
X102640000Y-59690000D02*
X103330000Y-59690000D01*
X113260000Y-59690000D02*
X112570000Y-59690000D01*
X112570000Y-57970000D02*
X112570000Y-61410000D01*
X112570000Y-61410000D02*
X103330000Y-61410000D01*
%TO.C,Jl1*%
X194310000Y-69850000D02*
X194310000Y-59690000D01*
X201930000Y-69850000D02*
X194310000Y-69850000D01*
X200660000Y-69850000D02*
X200660000Y-59690000D01*
X194310000Y-59690000D02*
X201930000Y-59690000D01*
X201930000Y-59690000D02*
X201930000Y-69850000D01*
%TO.C,JP4*%
X134620000Y-47990000D02*
X134620000Y-55990000D01*
%TO.C,Jac1*%
X201930000Y-72390000D02*
X201930000Y-82550000D01*
X201930000Y-82550000D02*
X194310000Y-82550000D01*
X194310000Y-82550000D02*
X194310000Y-72390000D01*
X200660000Y-82550000D02*
X200660000Y-72390000D01*
X194310000Y-72390000D02*
X201930000Y-72390000D01*
%TO.C,Ron1*%
X107220000Y-95150000D02*
X107220000Y-95480000D01*
X113760000Y-97890000D02*
X107220000Y-97890000D01*
X107220000Y-97890000D02*
X107220000Y-97560000D01*
X113760000Y-95480000D02*
X113760000Y-95150000D01*
X113760000Y-97560000D02*
X113760000Y-97890000D01*
X113760000Y-95150000D02*
X107220000Y-95150000D01*
%TO.C,Ren1*%
X151670000Y-139092000D02*
X158210000Y-139092000D01*
X151670000Y-139422000D02*
X151670000Y-139092000D01*
X151670000Y-141832000D02*
X158210000Y-141832000D01*
X158210000Y-141832000D02*
X158210000Y-141502000D01*
X151670000Y-141502000D02*
X151670000Y-141832000D01*
X158210000Y-139092000D02*
X158210000Y-139422000D01*
%TO.C,JP2*%
X162735000Y-57150000D02*
X154735000Y-57150000D01*
%TO.C,Uload1*%
X159900000Y-72205000D02*
X167760000Y-72205000D01*
X167760000Y-82705000D02*
X159900000Y-82705000D01*
X167700000Y-79705000D02*
X159960000Y-79705000D01*
X159900000Y-82705000D02*
X159900000Y-72205000D01*
X159960000Y-76455000D02*
X159960000Y-75205000D01*
X159960000Y-79705000D02*
X159960000Y-78455000D01*
X167700000Y-75205000D02*
X167700000Y-79705000D01*
X167760000Y-72205000D02*
X167760000Y-82705000D01*
X159960000Y-75205000D02*
X167700000Y-75205000D01*
X159960000Y-78455000D02*
G75*
G03*
X159960000Y-76455000I0J1000000D01*
G01*
%TO.C,D4*%
X130840000Y-60510000D02*
X130660000Y-60510000D01*
X130660000Y-60510000D02*
X130660000Y-63950000D01*
X133500000Y-60510000D02*
X133500000Y-63950000D01*
X130660000Y-61230000D02*
X133500000Y-61230000D01*
X133320000Y-60510000D02*
X133500000Y-60510000D01*
X130660000Y-63950000D02*
X130840000Y-63950000D01*
X130660000Y-61110000D02*
X133500000Y-61110000D01*
X133500000Y-63950000D02*
X133320000Y-63950000D01*
X130660000Y-60990000D02*
X133500000Y-60990000D01*
%TO.C,JP7*%
X123190000Y-126890000D02*
X123190000Y-134890000D01*
%TO.C,Rmoc1*%
X165830000Y-86460000D02*
X159290000Y-86460000D01*
X159290000Y-86460000D02*
X159290000Y-86130000D01*
X165830000Y-86130000D02*
X165830000Y-86460000D01*
X165830000Y-83720000D02*
X159290000Y-83720000D01*
X165830000Y-84050000D02*
X165830000Y-83720000D01*
X159290000Y-83720000D02*
X159290000Y-84050000D01*
%TO.C,Rtriac1*%
X163355000Y-59240000D02*
X163355000Y-62680000D01*
X164045000Y-60960000D02*
X163355000Y-60960000D01*
X154115000Y-59240000D02*
X163355000Y-59240000D01*
X163355000Y-62680000D02*
X154115000Y-62680000D01*
X153425000Y-60960000D02*
X154115000Y-60960000D01*
X154115000Y-62680000D02*
X154115000Y-59240000D01*
%TO.C,Rsens2*%
X155480000Y-122150000D02*
X155480000Y-121820000D01*
X162020000Y-124560000D02*
X162020000Y-124230000D01*
X155480000Y-124560000D02*
X162020000Y-124560000D01*
X155480000Y-124230000D02*
X155480000Y-124560000D01*
X162020000Y-121820000D02*
X162020000Y-122150000D01*
X155480000Y-121820000D02*
X162020000Y-121820000D01*
%TO.C,Dwifi1*%
X100040000Y-108140000D02*
X100040000Y-107984000D01*
X100040000Y-110456000D02*
X100040000Y-110300000D01*
X100559039Y-110300000D02*
G75*
G03*
X102641130Y-110299837I1040961J1080000D01*
G01*
X103272335Y-108141392D02*
G75*
G03*
X100040000Y-107984484I-1672335J-1078608D01*
G01*
X100040000Y-110455516D02*
G75*
G03*
X103272335Y-110298608I1560000J1235516D01*
G01*
X102641130Y-108140163D02*
G75*
G03*
X100559039Y-108140000I-1041130J-1079837D01*
G01*
%TO.C,Rz1*%
X137970000Y-66860000D02*
X137970000Y-70300000D01*
X138660000Y-68580000D02*
X137970000Y-68580000D01*
X137970000Y-70300000D02*
X128730000Y-70300000D01*
X128040000Y-68580000D02*
X128730000Y-68580000D01*
X128730000Y-66860000D02*
X137970000Y-66860000D01*
X128730000Y-70300000D02*
X128730000Y-66860000D01*
%TO.C,Jl2*%
X201930000Y-48260000D02*
X201930000Y-58420000D01*
X200660000Y-58420000D02*
X200660000Y-48260000D01*
X201930000Y-58420000D02*
X194310000Y-58420000D01*
X194310000Y-48260000D02*
X201930000Y-48260000D01*
X194310000Y-58420000D02*
X194310000Y-48260000D01*
%TO.C,JP9*%
X124730000Y-121920000D02*
X116730000Y-121920000D01*
%TO.C,D3*%
X128420000Y-63350000D02*
X125580000Y-63350000D01*
X128420000Y-60510000D02*
X128240000Y-60510000D01*
X128240000Y-63950000D02*
X128420000Y-63950000D01*
X125580000Y-60510000D02*
X125760000Y-60510000D01*
X125580000Y-63950000D02*
X125580000Y-60510000D01*
X128420000Y-63950000D02*
X128420000Y-60510000D01*
X128420000Y-63230000D02*
X125580000Y-63230000D01*
X128420000Y-63470000D02*
X125580000Y-63470000D01*
X125760000Y-63950000D02*
X125580000Y-63950000D01*
%TO.C,Uload2*%
X106635000Y-79705000D02*
X106635000Y-78455000D01*
X106635000Y-76455000D02*
X106635000Y-75205000D01*
X106635000Y-75205000D02*
X114375000Y-75205000D01*
X114375000Y-75205000D02*
X114375000Y-79705000D01*
X114435000Y-82705000D02*
X106575000Y-82705000D01*
X114375000Y-79705000D02*
X106635000Y-79705000D01*
X106575000Y-72205000D02*
X114435000Y-72205000D01*
X106575000Y-82705000D02*
X106575000Y-72205000D01*
X114435000Y-72205000D02*
X114435000Y-82705000D01*
X106635000Y-78455000D02*
G75*
G03*
X106635000Y-76455000I0J1000000D01*
G01*
%TO.C,Jpwr_sens1*%
X190560000Y-92650000D02*
X189230000Y-92650000D01*
X190560000Y-95250000D02*
X190560000Y-113090000D01*
X190560000Y-95250000D02*
X187900000Y-95250000D01*
X190560000Y-93980000D02*
X190560000Y-92650000D01*
X187900000Y-95250000D02*
X187900000Y-113090000D01*
X190560000Y-113090000D02*
X187900000Y-113090000D01*
%TO.C,C1*%
X182920000Y-139700000D02*
G75*
G03*
X182920000Y-139700000I-5120000J0D01*
G01*
%TO.C,Rwifi1*%
X113760000Y-110590000D02*
X107220000Y-110590000D01*
X113760000Y-107850000D02*
X107220000Y-107850000D01*
X107220000Y-110590000D02*
X107220000Y-110260000D01*
X107220000Y-107850000D02*
X107220000Y-108180000D01*
X113760000Y-110260000D02*
X113760000Y-110590000D01*
X113760000Y-108180000D02*
X113760000Y-107850000D01*
%TO.C,Jserial_com1*%
X124520000Y-140970000D02*
X124520000Y-139640000D01*
X121860000Y-142240000D02*
X121860000Y-144840000D01*
X124520000Y-139640000D02*
X123190000Y-139640000D01*
X124520000Y-142240000D02*
X121860000Y-142240000D01*
X124520000Y-144840000D02*
X121860000Y-144840000D01*
X124520000Y-142240000D02*
X124520000Y-144840000D01*
%TO.C,Umultiplex1*%
X163880000Y-96390000D02*
X163880000Y-116950000D01*
X161390000Y-116890000D02*
X156090000Y-116890000D01*
X153600000Y-96390000D02*
X163880000Y-96390000D01*
X161390000Y-96450000D02*
X161390000Y-116890000D01*
X156090000Y-116890000D02*
X156090000Y-96450000D01*
X163880000Y-116950000D02*
X153600000Y-116950000D01*
X159740000Y-96450000D02*
X161390000Y-96450000D01*
X156090000Y-96450000D02*
X157740000Y-96450000D01*
X153600000Y-116950000D02*
X153600000Y-96390000D01*
X157740000Y-96450000D02*
G75*
G03*
X159740000Y-96450000I1000000J0D01*
G01*
%TO.C,Jdc1*%
X205550000Y-121130000D02*
X190950000Y-121130000D01*
X196550000Y-130330000D02*
X205550000Y-130330000D01*
X190950000Y-130330000D02*
X192950000Y-130330000D01*
X190950000Y-121130000D02*
X190950000Y-123930000D01*
X205550000Y-130330000D02*
X205550000Y-121130000D01*
X192450000Y-120890000D02*
X190710000Y-120890000D01*
X190710000Y-120890000D02*
X190710000Y-122630000D01*
X190950000Y-127530000D02*
X190950000Y-130330000D01*
%TO.C,C2*%
X171490000Y-139700000D02*
G75*
G03*
X171490000Y-139700000I-5120000J0D01*
G01*
%TO.C,Rss1*%
X113760000Y-101830000D02*
X113760000Y-101500000D01*
X113760000Y-101500000D02*
X107220000Y-101500000D01*
X113760000Y-104240000D02*
X107220000Y-104240000D01*
X113760000Y-103910000D02*
X113760000Y-104240000D01*
X107220000Y-104240000D02*
X107220000Y-103910000D01*
X107220000Y-101500000D02*
X107220000Y-101830000D01*
%TO.C,Q1*%
X160060000Y-45230000D02*
X149820000Y-45230000D01*
X149820000Y-43720000D02*
X149820000Y-48361000D01*
X160060000Y-43720000D02*
X160060000Y-48361000D01*
X160060000Y-43720000D02*
X149820000Y-43720000D01*
X153089000Y-43720000D02*
X153089000Y-45230000D01*
X160060000Y-48361000D02*
X149820000Y-48361000D01*
X156790000Y-43720000D02*
X156790000Y-45230000D01*
X172480000Y-52990000D02*
X137480000Y-52990000D01*
X137480000Y-52990000D02*
X137480000Y-31990000D01*
X137480000Y-31990000D02*
X172480000Y-31990000D01*
X172480000Y-31990000D02*
X172480000Y-52990000D01*
%TO.C,Udet_0*%
X143630000Y-82720000D02*
X135770000Y-82720000D01*
X135830000Y-76470000D02*
X135830000Y-75220000D01*
X135770000Y-72220000D02*
X143630000Y-72220000D01*
X135770000Y-82720000D02*
X135770000Y-72220000D01*
X143570000Y-75220000D02*
X143570000Y-79720000D01*
X135830000Y-75220000D02*
X143570000Y-75220000D01*
X143630000Y-72220000D02*
X143630000Y-82720000D01*
X135830000Y-79720000D02*
X135830000Y-78470000D01*
X143570000Y-79720000D02*
X135830000Y-79720000D01*
X135830000Y-78470000D02*
G75*
G03*
X135830000Y-76470000I0J1000000D01*
G01*
%TO.C,Rexit1*%
X110260000Y-124630000D02*
X110590000Y-124630000D01*
X110590000Y-124630000D02*
X110590000Y-118090000D01*
X110590000Y-118090000D02*
X110260000Y-118090000D01*
X107850000Y-118090000D02*
X108180000Y-118090000D01*
X108180000Y-124630000D02*
X107850000Y-124630000D01*
X107850000Y-124630000D02*
X107850000Y-118090000D01*
%TO.C,Jsens1*%
X175320000Y-95265000D02*
X172660000Y-95265000D01*
X175320000Y-92665000D02*
X173990000Y-92665000D01*
X175320000Y-93995000D02*
X175320000Y-92665000D01*
X172660000Y-95265000D02*
X172660000Y-113105000D01*
X175320000Y-95265000D02*
X175320000Y-113105000D01*
X175320000Y-113105000D02*
X172660000Y-113105000D01*
%TO.C,JP5*%
X156480000Y-127000000D02*
X148480000Y-127000000D01*
%TO.C,Q2*%
X112449000Y-43720000D02*
X112449000Y-45230000D01*
X119420000Y-48361000D02*
X109180000Y-48361000D01*
X119420000Y-43720000D02*
X109180000Y-43720000D01*
X119420000Y-43720000D02*
X119420000Y-48361000D01*
X116150000Y-43720000D02*
X116150000Y-45230000D01*
X109180000Y-43720000D02*
X109180000Y-48361000D01*
X119420000Y-45230000D02*
X109180000Y-45230000D01*
X131840000Y-52990000D02*
X96840000Y-52990000D01*
X96840000Y-52990000D02*
X96840000Y-31990000D01*
X96840000Y-31990000D02*
X131840000Y-31990000D01*
X131840000Y-31990000D02*
X131840000Y-52990000D01*
%TO.C,Dss1*%
X100040000Y-101790000D02*
X100040000Y-101634000D01*
X100040000Y-104106000D02*
X100040000Y-103950000D01*
X102641130Y-101790163D02*
G75*
G03*
X100559039Y-101790000I-1041130J-1079837D01*
G01*
X100040000Y-104105516D02*
G75*
G03*
X103272335Y-103948608I1560000J1235516D01*
G01*
X103272335Y-101791392D02*
G75*
G03*
X100040000Y-101634484I-1672335J-1078608D01*
G01*
X100559039Y-103950000D02*
G75*
G03*
X102641130Y-103949837I1040961J1080000D01*
G01*
%TO.C,Rmoc2*%
X105950000Y-83720000D02*
X105950000Y-84050000D01*
X112490000Y-84050000D02*
X112490000Y-83720000D01*
X112490000Y-86130000D02*
X112490000Y-86460000D01*
X112490000Y-86460000D02*
X105950000Y-86460000D01*
X112490000Y-83720000D02*
X105950000Y-83720000D01*
X105950000Y-86460000D02*
X105950000Y-86130000D01*
%TO.C,F1*%
X185140000Y-80010000D02*
X185140000Y-57410000D01*
X175540000Y-57410000D02*
X178340000Y-57410000D01*
X175540000Y-80010000D02*
X175540000Y-57410000D01*
X182340000Y-80010000D02*
X185140000Y-80010000D01*
X182340000Y-57410000D02*
X185140000Y-57410000D01*
X175540000Y-80010000D02*
X178340000Y-80010000D01*
%TO.C,JP8*%
X119380000Y-126890000D02*
X119380000Y-134890000D01*
%TO.C,D1*%
X140820000Y-63950000D02*
X140820000Y-60510000D01*
X143480000Y-63950000D02*
X143660000Y-63950000D01*
X143660000Y-63470000D02*
X140820000Y-63470000D01*
X140820000Y-60510000D02*
X141000000Y-60510000D01*
X143660000Y-63350000D02*
X140820000Y-63350000D01*
X143660000Y-63230000D02*
X140820000Y-63230000D01*
X143660000Y-63950000D02*
X143660000Y-60510000D01*
X141000000Y-63950000D02*
X140820000Y-63950000D01*
X143660000Y-60510000D02*
X143480000Y-60510000D01*
%TO.C,Rsens1*%
X162020000Y-118010000D02*
X155480000Y-118010000D01*
X155480000Y-120750000D02*
X155480000Y-120420000D01*
X155480000Y-118010000D02*
X155480000Y-118340000D01*
X162020000Y-118340000D02*
X162020000Y-118010000D01*
X162020000Y-120420000D02*
X162020000Y-120750000D01*
X162020000Y-120750000D02*
X155480000Y-120750000D01*
%TO.C,D5*%
X128540000Y-75080000D02*
X128540000Y-72240000D01*
X127820000Y-75080000D02*
X131260000Y-75080000D01*
X131260000Y-75080000D02*
X131260000Y-74900000D01*
X127820000Y-74900000D02*
X127820000Y-75080000D01*
X127820000Y-72240000D02*
X131260000Y-72240000D01*
X127820000Y-72420000D02*
X127820000Y-72240000D01*
X131260000Y-72240000D02*
X131260000Y-72420000D01*
X128300000Y-75080000D02*
X128300000Y-72240000D01*
X128420000Y-75080000D02*
X128420000Y-72240000D01*
%TD*%
M02*
