%TF.GenerationSoftware,KiCad,Pcbnew,(6.0.5)*%
%TF.CreationDate,2022-07-02T14:22:21-03:00*%
%TF.ProjectId,oven_control,6f76656e-5f63-46f6-9e74-726f6c2e6b69,0*%
%TF.SameCoordinates,Original*%
%TF.FileFunction,Soldermask,Top*%
%TF.FilePolarity,Negative*%
%FSLAX46Y46*%
G04 Gerber Fmt 4.6, Leading zero omitted, Abs format (unit mm)*
G04 Created by KiCad (PCBNEW (6.0.5)) date 2022-07-02 14:22:21*
%MOMM*%
%LPD*%
G01*
G04 APERTURE LIST*
%ADD10C,6.000000*%
%ADD11C,1.524000*%
%ADD12R,2.500000X1.000000*%
%ADD13R,1.000000X1.800000*%
%ADD14C,1.600000*%
%ADD15O,1.600000X1.600000*%
%ADD16R,1.800000X1.800000*%
%ADD17C,1.800000*%
%ADD18C,2.000000*%
%ADD19R,2.000000X2.000000*%
%ADD20O,2.000000X2.000000*%
%ADD21R,1.700000X1.700000*%
%ADD22O,1.700000X1.700000*%
%ADD23R,1.905000X2.000000*%
%ADD24O,1.905000X2.000000*%
%ADD25R,3.000000X3.000000*%
%ADD26C,3.000000*%
%ADD27R,1.600000X2.400000*%
%ADD28O,1.600000X2.400000*%
%ADD29R,1.600000X1.600000*%
%ADD30R,2.600000X2.600000*%
%ADD31C,2.600000*%
%ADD32C,2.500000*%
G04 APERTURE END LIST*
D10*
%TO.C,REF\u002A\u002A*%
X201930000Y-149860000D03*
%TD*%
%TO.C,REF\u002A\u002A*%
X88900000Y-149860000D03*
%TD*%
%TO.C,REF\u002A\u002A*%
X201930000Y-33020000D03*
%TD*%
D11*
%TO.C,JP1*%
X187960000Y-118110000D03*
X187960000Y-128110000D03*
%TD*%
D12*
%TO.C,U1*%
X143490000Y-144470000D03*
X143490000Y-142470000D03*
X143490000Y-140470000D03*
X143490000Y-138470000D03*
X143490000Y-136470000D03*
X143490000Y-134470000D03*
X143490000Y-132470000D03*
X143490000Y-130470000D03*
D13*
X140890000Y-128970000D03*
X138890000Y-128970000D03*
X136890000Y-128970000D03*
X134890000Y-128970000D03*
X132890000Y-128970000D03*
X130890000Y-128970000D03*
D12*
X128290000Y-130470000D03*
X128290000Y-132470000D03*
X128290000Y-134470000D03*
X128290000Y-136470000D03*
X128290000Y-138470000D03*
X128290000Y-140470000D03*
X128290000Y-142470000D03*
X128290000Y-144470000D03*
%TD*%
D10*
%TO.C,REF\u002A\u002A*%
X88900000Y-33020000D03*
%TD*%
D14*
%TO.C,Rreset1*%
X109220000Y-130250000D03*
D15*
X109220000Y-137870000D03*
%TD*%
D16*
%TO.C,Don1*%
X100330000Y-96520000D03*
D17*
X102870000Y-96520000D03*
%TD*%
D18*
%TO.C,SWexit1*%
X104830000Y-118110000D03*
X104830000Y-124610000D03*
X100330000Y-124610000D03*
X100330000Y-118110000D03*
%TD*%
D11*
%TO.C,JP6*%
X147480000Y-130810000D03*
X157480000Y-130810000D03*
%TD*%
D19*
%TO.C,D2*%
X137160000Y-59690000D03*
D20*
X137160000Y-64770000D03*
%TD*%
D11*
%TO.C,JP3*%
X163735000Y-54610000D03*
X153735000Y-54610000D03*
%TD*%
D21*
%TO.C,Jserial_power1*%
X194310000Y-137160000D03*
D22*
X194310000Y-139700000D03*
%TD*%
D14*
%TO.C,Rz2*%
X142240000Y-85090000D03*
D15*
X134620000Y-85090000D03*
%TD*%
D21*
%TO.C,Jpwr_sens2*%
X181610000Y-93980000D03*
D22*
X181610000Y-96520000D03*
X181610000Y-99060000D03*
X181610000Y-101600000D03*
X181610000Y-104140000D03*
X181610000Y-106680000D03*
X181610000Y-109220000D03*
X181610000Y-111760000D03*
%TD*%
D23*
%TO.C,U3v3*%
X176360000Y-125730000D03*
D24*
X178900000Y-125730000D03*
X181440000Y-125730000D03*
%TD*%
D18*
%TO.C,SWreset1*%
X104830000Y-137310000D03*
X104830000Y-130810000D03*
X100330000Y-137310000D03*
X100330000Y-130810000D03*
%TD*%
D14*
%TO.C,Rtriac2*%
X101600000Y-59690000D03*
D15*
X114300000Y-59690000D03*
%TD*%
D25*
%TO.C,Jl1*%
X198120000Y-62230000D03*
D26*
X198120000Y-67310000D03*
%TD*%
D11*
%TO.C,JP4*%
X134620000Y-46990000D03*
X134620000Y-56990000D03*
%TD*%
D25*
%TO.C,Jac1*%
X198120000Y-74930000D03*
D26*
X198120000Y-80010000D03*
%TD*%
D14*
%TO.C,Ron1*%
X114300000Y-96520000D03*
D15*
X106680000Y-96520000D03*
%TD*%
D14*
%TO.C,Ren1*%
X151130000Y-140462000D03*
D15*
X158750000Y-140462000D03*
%TD*%
D11*
%TO.C,JP2*%
X163735000Y-57150000D03*
X153735000Y-57150000D03*
%TD*%
D27*
%TO.C,Uload1*%
X161290000Y-73645000D03*
D28*
X163830000Y-73645000D03*
X166370000Y-73645000D03*
X166370000Y-81265000D03*
X163830000Y-81265000D03*
X161290000Y-81265000D03*
%TD*%
D19*
%TO.C,D4*%
X132080000Y-59690000D03*
D20*
X132080000Y-64770000D03*
%TD*%
D11*
%TO.C,JP7*%
X123190000Y-125890000D03*
X123190000Y-135890000D03*
%TD*%
D14*
%TO.C,Rmoc1*%
X166370000Y-85090000D03*
D15*
X158750000Y-85090000D03*
%TD*%
D14*
%TO.C,Rtriac1*%
X152385000Y-60960000D03*
D15*
X165085000Y-60960000D03*
%TD*%
D14*
%TO.C,Rsens2*%
X154940000Y-123190000D03*
D15*
X162560000Y-123190000D03*
%TD*%
D16*
%TO.C,Dwifi1*%
X100330000Y-109220000D03*
D17*
X102870000Y-109220000D03*
%TD*%
D14*
%TO.C,Rz1*%
X127000000Y-68580000D03*
D15*
X139700000Y-68580000D03*
%TD*%
D25*
%TO.C,Jl2*%
X198120000Y-50800000D03*
D26*
X198120000Y-55880000D03*
%TD*%
D11*
%TO.C,JP9*%
X125730000Y-121920000D03*
X115730000Y-121920000D03*
%TD*%
D19*
%TO.C,D3*%
X127000000Y-64770000D03*
D20*
X127000000Y-59690000D03*
%TD*%
D27*
%TO.C,Uload2*%
X107965000Y-73645000D03*
D28*
X110505000Y-73645000D03*
X113045000Y-73645000D03*
X113045000Y-81265000D03*
X110505000Y-81265000D03*
X107965000Y-81265000D03*
%TD*%
D21*
%TO.C,Jpwr_sens1*%
X189230000Y-93980000D03*
D22*
X189230000Y-96520000D03*
X189230000Y-99060000D03*
X189230000Y-101600000D03*
X189230000Y-104140000D03*
X189230000Y-106680000D03*
X189230000Y-109220000D03*
X189230000Y-111760000D03*
%TD*%
D14*
%TO.C,C1*%
X177800000Y-137200000D03*
X177800000Y-142200000D03*
%TD*%
%TO.C,Rwifi1*%
X114300000Y-109220000D03*
D15*
X106680000Y-109220000D03*
%TD*%
D21*
%TO.C,Jserial_com1*%
X123190000Y-140970000D03*
D22*
X123190000Y-143510000D03*
%TD*%
D29*
%TO.C,Umultiplex1*%
X162550000Y-97780000D03*
D15*
X162550000Y-100320000D03*
X162550000Y-102860000D03*
X162550000Y-105400000D03*
X162550000Y-107940000D03*
X162550000Y-110480000D03*
X162550000Y-113020000D03*
X162550000Y-115560000D03*
X154930000Y-115560000D03*
X154930000Y-113020000D03*
X154930000Y-110480000D03*
X154930000Y-107940000D03*
X154930000Y-105400000D03*
X154930000Y-102860000D03*
X154930000Y-100320000D03*
X154930000Y-97780000D03*
%TD*%
D30*
%TO.C,Jdc1*%
X191750000Y-125730000D03*
D31*
X197750000Y-125730000D03*
X194750000Y-130430000D03*
%TD*%
D14*
%TO.C,C2*%
X166370000Y-137200000D03*
X166370000Y-142200000D03*
%TD*%
%TO.C,Rss1*%
X114300000Y-102870000D03*
D15*
X106680000Y-102870000D03*
%TD*%
D23*
%TO.C,Q1*%
X157480000Y-46990000D03*
D24*
X154940000Y-46990000D03*
X152400000Y-46990000D03*
D32*
X145980000Y-45990000D03*
X163980000Y-45990000D03*
%TD*%
D27*
%TO.C,Udet_0*%
X137160000Y-73660000D03*
D28*
X139700000Y-73660000D03*
X142240000Y-73660000D03*
X142240000Y-81280000D03*
X139700000Y-81280000D03*
X137160000Y-81280000D03*
%TD*%
D14*
%TO.C,Rexit1*%
X109220000Y-125170000D03*
D15*
X109220000Y-117550000D03*
%TD*%
D21*
%TO.C,Jsens1*%
X173990000Y-93995000D03*
D22*
X173990000Y-96535000D03*
X173990000Y-99075000D03*
X173990000Y-101615000D03*
X173990000Y-104155000D03*
X173990000Y-106695000D03*
X173990000Y-109235000D03*
X173990000Y-111775000D03*
%TD*%
D11*
%TO.C,JP5*%
X157480000Y-127000000D03*
X147480000Y-127000000D03*
%TD*%
D23*
%TO.C,Q2*%
X116840000Y-46990000D03*
D24*
X114300000Y-46990000D03*
X111760000Y-46990000D03*
D32*
X105340000Y-45990000D03*
X123340000Y-45990000D03*
%TD*%
D16*
%TO.C,Dss1*%
X100330000Y-102870000D03*
D17*
X102870000Y-102870000D03*
%TD*%
D14*
%TO.C,Rmoc2*%
X113030000Y-85090000D03*
D15*
X105410000Y-85090000D03*
%TD*%
D26*
%TO.C,F1*%
X180340000Y-80010000D03*
X180340000Y-57410000D03*
%TD*%
D11*
%TO.C,JP8*%
X119380000Y-125890000D03*
X119380000Y-135890000D03*
%TD*%
D19*
%TO.C,D1*%
X142240000Y-64770000D03*
D20*
X142240000Y-59690000D03*
%TD*%
D14*
%TO.C,Rsens1*%
X162560000Y-119380000D03*
D15*
X154940000Y-119380000D03*
%TD*%
D19*
%TO.C,D5*%
X127000000Y-73660000D03*
D20*
X132080000Y-73660000D03*
%TD*%
M02*
