%TF.GenerationSoftware,KiCad,Pcbnew,(6.0.5)*%
%TF.CreationDate,2022-07-02T14:22:21-03:00*%
%TF.ProjectId,oven_control,6f76656e-5f63-46f6-9e74-726f6c2e6b69,0*%
%TF.SameCoordinates,Original*%
%TF.FileFunction,Copper,L1,Top*%
%TF.FilePolarity,Positive*%
%FSLAX46Y46*%
G04 Gerber Fmt 4.6, Leading zero omitted, Abs format (unit mm)*
G04 Created by KiCad (PCBNEW (6.0.5)) date 2022-07-02 14:22:21*
%MOMM*%
%LPD*%
G01*
G04 APERTURE LIST*
%TA.AperFunction,NonConductor*%
%ADD10C,0.010000*%
%TD*%
%TA.AperFunction,ComponentPad*%
%ADD11C,6.000000*%
%TD*%
%TA.AperFunction,ComponentPad*%
%ADD12C,1.524000*%
%TD*%
%TA.AperFunction,SMDPad,CuDef*%
%ADD13R,2.500000X1.000000*%
%TD*%
%TA.AperFunction,SMDPad,CuDef*%
%ADD14R,1.000000X1.800000*%
%TD*%
%TA.AperFunction,ComponentPad*%
%ADD15C,1.600000*%
%TD*%
%TA.AperFunction,ComponentPad*%
%ADD16O,1.600000X1.600000*%
%TD*%
%TA.AperFunction,ComponentPad*%
%ADD17R,1.800000X1.800000*%
%TD*%
%TA.AperFunction,ComponentPad*%
%ADD18C,1.800000*%
%TD*%
%TA.AperFunction,ComponentPad*%
%ADD19C,2.000000*%
%TD*%
%TA.AperFunction,ComponentPad*%
%ADD20R,2.000000X2.000000*%
%TD*%
%TA.AperFunction,ComponentPad*%
%ADD21O,2.000000X2.000000*%
%TD*%
%TA.AperFunction,ComponentPad*%
%ADD22R,1.700000X1.700000*%
%TD*%
%TA.AperFunction,ComponentPad*%
%ADD23O,1.700000X1.700000*%
%TD*%
%TA.AperFunction,ComponentPad*%
%ADD24R,1.905000X2.000000*%
%TD*%
%TA.AperFunction,ComponentPad*%
%ADD25O,1.905000X2.000000*%
%TD*%
%TA.AperFunction,ComponentPad*%
%ADD26R,3.000000X3.000000*%
%TD*%
%TA.AperFunction,ComponentPad*%
%ADD27C,3.000000*%
%TD*%
%TA.AperFunction,ComponentPad*%
%ADD28R,1.600000X2.400000*%
%TD*%
%TA.AperFunction,ComponentPad*%
%ADD29O,1.600000X2.400000*%
%TD*%
%TA.AperFunction,ComponentPad*%
%ADD30R,1.600000X1.600000*%
%TD*%
%TA.AperFunction,ComponentPad*%
%ADD31R,2.600000X2.600000*%
%TD*%
%TA.AperFunction,ComponentPad*%
%ADD32C,2.600000*%
%TD*%
%TA.AperFunction,ComponentPad*%
%ADD33C,2.500000*%
%TD*%
%TA.AperFunction,Conductor*%
%ADD34C,0.400000*%
%TD*%
%TA.AperFunction,Conductor*%
%ADD35C,0.500000*%
%TD*%
%TA.AperFunction,Conductor*%
%ADD36C,1.800000*%
%TD*%
G04 APERTURE END LIST*
D10*
G36*
X146102917Y-114643960D02*
G01*
X145520834Y-114643960D01*
X145520834Y-114061876D01*
X146102917Y-114061876D01*
X146102917Y-114643960D01*
G37*
X146102917Y-114643960D02*
X145520834Y-114643960D01*
X145520834Y-114061876D01*
X146102917Y-114061876D01*
X146102917Y-114643960D01*
G36*
X135043334Y-111151459D02*
G01*
X134461250Y-111151459D01*
X134461250Y-110569375D01*
X135043334Y-110569375D01*
X135043334Y-111151459D01*
G37*
X135043334Y-111151459D02*
X134461250Y-111151459D01*
X134461250Y-110569375D01*
X135043334Y-110569375D01*
X135043334Y-111151459D01*
G36*
X139117917Y-106494793D02*
G01*
X138535834Y-106494793D01*
X138535834Y-105912709D01*
X139117917Y-105912709D01*
X139117917Y-106494793D01*
G37*
X139117917Y-106494793D02*
X138535834Y-106494793D01*
X138535834Y-105912709D01*
X139117917Y-105912709D01*
X139117917Y-106494793D01*
G36*
X135625417Y-103584376D02*
G01*
X135043334Y-103584376D01*
X135043334Y-102420209D01*
X135625417Y-102420209D01*
X135625417Y-103584376D01*
G37*
X135625417Y-103584376D02*
X135043334Y-103584376D01*
X135043334Y-102420209D01*
X135625417Y-102420209D01*
X135625417Y-103584376D01*
G36*
X144356668Y-104748542D02*
G01*
X143774584Y-104748542D01*
X143774584Y-104166459D01*
X144356668Y-104166459D01*
X144356668Y-104748542D01*
G37*
X144356668Y-104748542D02*
X143774584Y-104748542D01*
X143774584Y-104166459D01*
X144356668Y-104166459D01*
X144356668Y-104748542D01*
G36*
X139700000Y-107076876D02*
G01*
X139117917Y-107076876D01*
X139117917Y-106494793D01*
X139700000Y-106494793D01*
X139700000Y-107076876D01*
G37*
X139700000Y-107076876D02*
X139117917Y-107076876D01*
X139117917Y-106494793D01*
X139700000Y-106494793D01*
X139700000Y-107076876D01*
G36*
X145520834Y-104748542D02*
G01*
X144938751Y-104748542D01*
X144938751Y-104166459D01*
X145520834Y-104166459D01*
X145520834Y-104748542D01*
G37*
X145520834Y-104748542D02*
X144938751Y-104748542D01*
X144938751Y-104166459D01*
X145520834Y-104166459D01*
X145520834Y-104748542D01*
G36*
X132715000Y-105912709D02*
G01*
X132715000Y-106494793D01*
X132132917Y-106494793D01*
X132132917Y-107076876D01*
X131550834Y-107076876D01*
X131550834Y-107658959D01*
X130386667Y-107658959D01*
X130386667Y-106494793D01*
X131550834Y-106494793D01*
X131550834Y-105912709D01*
X132132917Y-105912709D01*
X132132917Y-105330626D01*
X132715000Y-105330626D01*
X134461250Y-105330626D01*
X134461250Y-104748542D01*
X132715000Y-104748542D01*
X132715000Y-105330626D01*
X132132917Y-105330626D01*
X131550834Y-105330626D01*
X131550834Y-105912709D01*
X130968750Y-105912709D01*
X130968750Y-105330626D01*
X131550834Y-105330626D01*
X131550834Y-104748542D01*
X130386667Y-104748542D01*
X130386667Y-105912709D01*
X129804584Y-105912709D01*
X129804584Y-104748542D01*
X129222500Y-104748542D01*
X129222500Y-104166459D01*
X132132917Y-104166459D01*
X132132917Y-104748542D01*
X132715000Y-104748542D01*
X132715000Y-104166459D01*
X135625417Y-104166459D01*
X135625417Y-104748542D01*
X135043334Y-104748542D01*
X135043334Y-105912709D01*
X135625417Y-105912709D01*
X135625417Y-106494793D01*
X136207501Y-106494793D01*
X136207501Y-105912709D01*
X136789584Y-105912709D01*
X136789584Y-106494793D01*
X137371667Y-106494793D01*
X137371667Y-107658959D01*
X136789584Y-107658959D01*
X136789584Y-107076876D01*
X135625417Y-107076876D01*
X135625417Y-107658959D01*
X135043334Y-107658959D01*
X135043334Y-108241042D01*
X132715000Y-108241042D01*
X132715000Y-107658959D01*
X133879167Y-107658959D01*
X133879167Y-107076876D01*
X134461250Y-107076876D01*
X135043334Y-107076876D01*
X135625417Y-107076876D01*
X135625417Y-106494793D01*
X135043334Y-106494793D01*
X135043334Y-107076876D01*
X134461250Y-107076876D01*
X134461250Y-105912709D01*
X132715000Y-105912709D01*
G37*
X132715000Y-105912709D02*
X132715000Y-106494793D01*
X132132917Y-106494793D01*
X132132917Y-107076876D01*
X131550834Y-107076876D01*
X131550834Y-107658959D01*
X130386667Y-107658959D01*
X130386667Y-106494793D01*
X131550834Y-106494793D01*
X131550834Y-105912709D01*
X132132917Y-105912709D01*
X132132917Y-105330626D01*
X132715000Y-105330626D01*
X134461250Y-105330626D01*
X134461250Y-104748542D01*
X132715000Y-104748542D01*
X132715000Y-105330626D01*
X132132917Y-105330626D01*
X131550834Y-105330626D01*
X131550834Y-105912709D01*
X130968750Y-105912709D01*
X130968750Y-105330626D01*
X131550834Y-105330626D01*
X131550834Y-104748542D01*
X130386667Y-104748542D01*
X130386667Y-105912709D01*
X129804584Y-105912709D01*
X129804584Y-104748542D01*
X129222500Y-104748542D01*
X129222500Y-104166459D01*
X132132917Y-104166459D01*
X132132917Y-104748542D01*
X132715000Y-104748542D01*
X132715000Y-104166459D01*
X135625417Y-104166459D01*
X135625417Y-104748542D01*
X135043334Y-104748542D01*
X135043334Y-105912709D01*
X135625417Y-105912709D01*
X135625417Y-106494793D01*
X136207501Y-106494793D01*
X136207501Y-105912709D01*
X136789584Y-105912709D01*
X136789584Y-106494793D01*
X137371667Y-106494793D01*
X137371667Y-107658959D01*
X136789584Y-107658959D01*
X136789584Y-107076876D01*
X135625417Y-107076876D01*
X135625417Y-107658959D01*
X135043334Y-107658959D01*
X135043334Y-108241042D01*
X132715000Y-108241042D01*
X132715000Y-107658959D01*
X133879167Y-107658959D01*
X133879167Y-107076876D01*
X134461250Y-107076876D01*
X135043334Y-107076876D01*
X135625417Y-107076876D01*
X135625417Y-106494793D01*
X135043334Y-106494793D01*
X135043334Y-107076876D01*
X134461250Y-107076876D01*
X134461250Y-105912709D01*
X132715000Y-105912709D01*
G36*
X133879167Y-107076876D02*
G01*
X132715000Y-107076876D01*
X132715000Y-106494793D01*
X133879167Y-106494793D01*
X133879167Y-107076876D01*
G37*
X133879167Y-107076876D02*
X132715000Y-107076876D01*
X132715000Y-106494793D01*
X133879167Y-106494793D01*
X133879167Y-107076876D01*
G36*
X132132917Y-108241042D02*
G01*
X131550834Y-108241042D01*
X131550834Y-107658959D01*
X132132917Y-107658959D01*
X132132917Y-108241042D01*
G37*
X132132917Y-108241042D02*
X131550834Y-108241042D01*
X131550834Y-107658959D01*
X132132917Y-107658959D01*
X132132917Y-108241042D01*
G36*
X135043334Y-109987292D02*
G01*
X134461250Y-109987292D01*
X134461250Y-109405209D01*
X135043334Y-109405209D01*
X135043334Y-109987292D01*
G37*
X135043334Y-109987292D02*
X134461250Y-109987292D01*
X134461250Y-109405209D01*
X135043334Y-109405209D01*
X135043334Y-109987292D01*
G36*
X135625417Y-100673959D02*
G01*
X135043334Y-100673959D01*
X135043334Y-101838126D01*
X133879167Y-101838126D01*
X133879167Y-101256042D01*
X134461250Y-101256042D01*
X134461250Y-100673959D01*
X133879167Y-100673959D01*
X133879167Y-100091876D01*
X135625417Y-100091876D01*
X135625417Y-100673959D01*
G37*
X135625417Y-100673959D02*
X135043334Y-100673959D01*
X135043334Y-101838126D01*
X133879167Y-101838126D01*
X133879167Y-101256042D01*
X134461250Y-101256042D01*
X134461250Y-100673959D01*
X133879167Y-100673959D01*
X133879167Y-100091876D01*
X135625417Y-100091876D01*
X135625417Y-100673959D01*
G36*
X138535834Y-105912709D02*
G01*
X137953750Y-105912709D01*
X137953750Y-106494793D01*
X137371667Y-106494793D01*
X137371667Y-105330626D01*
X138535834Y-105330626D01*
X138535834Y-105912709D01*
G37*
X138535834Y-105912709D02*
X137953750Y-105912709D01*
X137953750Y-106494793D01*
X137371667Y-106494793D01*
X137371667Y-105330626D01*
X138535834Y-105330626D01*
X138535834Y-105912709D01*
G36*
X140282083Y-101256042D02*
G01*
X140864167Y-101256042D01*
X140864167Y-101838126D01*
X141446250Y-101838126D01*
X141446250Y-104166459D01*
X142028334Y-104166459D01*
X142028334Y-104748542D01*
X141446250Y-104748542D01*
X141446250Y-106494793D01*
X140282083Y-106494793D01*
X140282083Y-105912709D01*
X140864167Y-105912709D01*
X140864167Y-105330626D01*
X139700000Y-105330626D01*
X139700000Y-104748542D01*
X140864167Y-104748542D01*
X140864167Y-102420209D01*
X140282083Y-102420209D01*
X140282083Y-104166459D01*
X139700000Y-104166459D01*
X139700000Y-102420209D01*
X138535834Y-102420209D01*
X138535834Y-103002292D01*
X137953750Y-103002292D01*
X137953750Y-103584376D01*
X137371667Y-103584376D01*
X137371667Y-102420209D01*
X138535834Y-102420209D01*
X138535834Y-101838126D01*
X137371667Y-101838126D01*
X137371667Y-102420209D01*
X136789584Y-102420209D01*
X136789584Y-103584376D01*
X136207501Y-103584376D01*
X136207501Y-102420209D01*
X136789584Y-102420209D01*
X136789584Y-101838126D01*
X136207501Y-101838126D01*
X136207501Y-102420209D01*
X135625417Y-102420209D01*
X135625417Y-101838126D01*
X136207501Y-101838126D01*
X136207501Y-101256042D01*
X137371667Y-101256042D01*
X137371667Y-100673959D01*
X136789584Y-100673959D01*
X136789584Y-99509792D01*
X137371667Y-99509792D01*
X137371667Y-100091876D01*
X138535834Y-100091876D01*
X138535834Y-100673959D01*
X137953750Y-100673959D01*
X137953750Y-101256042D01*
X139700000Y-101256042D01*
X139700000Y-100673959D01*
X140282083Y-100673959D01*
X140282083Y-101256042D01*
X139700000Y-101256042D01*
X139700000Y-101838126D01*
X140282083Y-101838126D01*
X140282083Y-101256042D01*
G37*
X140282083Y-101256042D02*
X140864167Y-101256042D01*
X140864167Y-101838126D01*
X141446250Y-101838126D01*
X141446250Y-104166459D01*
X142028334Y-104166459D01*
X142028334Y-104748542D01*
X141446250Y-104748542D01*
X141446250Y-106494793D01*
X140282083Y-106494793D01*
X140282083Y-105912709D01*
X140864167Y-105912709D01*
X140864167Y-105330626D01*
X139700000Y-105330626D01*
X139700000Y-104748542D01*
X140864167Y-104748542D01*
X140864167Y-102420209D01*
X140282083Y-102420209D01*
X140282083Y-104166459D01*
X139700000Y-104166459D01*
X139700000Y-102420209D01*
X138535834Y-102420209D01*
X138535834Y-103002292D01*
X137953750Y-103002292D01*
X137953750Y-103584376D01*
X137371667Y-103584376D01*
X137371667Y-102420209D01*
X138535834Y-102420209D01*
X138535834Y-101838126D01*
X137371667Y-101838126D01*
X137371667Y-102420209D01*
X136789584Y-102420209D01*
X136789584Y-103584376D01*
X136207501Y-103584376D01*
X136207501Y-102420209D01*
X136789584Y-102420209D01*
X136789584Y-101838126D01*
X136207501Y-101838126D01*
X136207501Y-102420209D01*
X135625417Y-102420209D01*
X135625417Y-101838126D01*
X136207501Y-101838126D01*
X136207501Y-101256042D01*
X137371667Y-101256042D01*
X137371667Y-100673959D01*
X136789584Y-100673959D01*
X136789584Y-99509792D01*
X137371667Y-99509792D01*
X137371667Y-100091876D01*
X138535834Y-100091876D01*
X138535834Y-100673959D01*
X137953750Y-100673959D01*
X137953750Y-101256042D01*
X139700000Y-101256042D01*
X139700000Y-100673959D01*
X140282083Y-100673959D01*
X140282083Y-101256042D01*
X139700000Y-101256042D01*
X139700000Y-101838126D01*
X140282083Y-101838126D01*
X140282083Y-101256042D01*
G36*
X132715000Y-108823126D02*
G01*
X132132917Y-108823126D01*
X132132917Y-108241042D01*
X132715000Y-108241042D01*
X132715000Y-108823126D01*
G37*
X132715000Y-108823126D02*
X132132917Y-108823126D01*
X132132917Y-108241042D01*
X132715000Y-108241042D01*
X132715000Y-108823126D01*
G36*
X145520834Y-106494793D02*
G01*
X144938751Y-106494793D01*
X144938751Y-105912709D01*
X145520834Y-105912709D01*
X145520834Y-106494793D01*
G37*
X145520834Y-106494793D02*
X144938751Y-106494793D01*
X144938751Y-105912709D01*
X145520834Y-105912709D01*
X145520834Y-106494793D01*
G36*
X144938751Y-102420209D02*
G01*
X143192500Y-102420209D01*
X143192500Y-100673959D01*
X144938751Y-100673959D01*
X144938751Y-102420209D01*
G37*
X144938751Y-102420209D02*
X143192500Y-102420209D01*
X143192500Y-100673959D01*
X144938751Y-100673959D01*
X144938751Y-102420209D01*
G36*
X133297084Y-109405209D02*
G01*
X132715000Y-109405209D01*
X132715000Y-108823126D01*
X133297084Y-108823126D01*
X133297084Y-109405209D01*
G37*
X133297084Y-109405209D02*
X132715000Y-109405209D01*
X132715000Y-108823126D01*
X133297084Y-108823126D01*
X133297084Y-109405209D01*
G36*
X144938751Y-110569375D02*
G01*
X144356668Y-110569375D01*
X144356668Y-109405209D01*
X143774584Y-109405209D01*
X143774584Y-108823126D01*
X144938751Y-108823126D01*
X144938751Y-110569375D01*
G37*
X144938751Y-110569375D02*
X144356668Y-110569375D01*
X144356668Y-109405209D01*
X143774584Y-109405209D01*
X143774584Y-108823126D01*
X144938751Y-108823126D01*
X144938751Y-110569375D01*
G36*
X129804584Y-107076876D02*
G01*
X129222500Y-107076876D01*
X129222500Y-106494793D01*
X129804584Y-106494793D01*
X129804584Y-107076876D01*
G37*
X129804584Y-107076876D02*
X129222500Y-107076876D01*
X129222500Y-106494793D01*
X129804584Y-106494793D01*
X129804584Y-107076876D01*
G36*
X146102917Y-99509792D02*
G01*
X146102917Y-103584376D01*
X142028334Y-103584376D01*
X142028334Y-103002292D01*
X142610417Y-103002292D01*
X145520834Y-103002292D01*
X145520834Y-100091876D01*
X142610417Y-100091876D01*
X142610417Y-103002292D01*
X142028334Y-103002292D01*
X142028334Y-99509792D01*
X146102917Y-99509792D01*
G37*
X146102917Y-99509792D02*
X146102917Y-103584376D01*
X142028334Y-103584376D01*
X142028334Y-103002292D01*
X142610417Y-103002292D01*
X145520834Y-103002292D01*
X145520834Y-100091876D01*
X142610417Y-100091876D01*
X142610417Y-103002292D01*
X142028334Y-103002292D01*
X142028334Y-99509792D01*
X146102917Y-99509792D01*
G36*
X146102917Y-105330626D02*
G01*
X145520834Y-105330626D01*
X145520834Y-104748542D01*
X146102917Y-104748542D01*
X146102917Y-105330626D01*
G37*
X146102917Y-105330626D02*
X145520834Y-105330626D01*
X145520834Y-104748542D01*
X146102917Y-104748542D01*
X146102917Y-105330626D01*
G36*
X146102917Y-113479792D02*
G01*
X145520834Y-113479792D01*
X145520834Y-112897709D01*
X146102917Y-112897709D01*
X146102917Y-113479792D01*
G37*
X146102917Y-113479792D02*
X145520834Y-113479792D01*
X145520834Y-112897709D01*
X146102917Y-112897709D01*
X146102917Y-113479792D01*
G36*
X141446250Y-100673959D02*
G01*
X140864167Y-100673959D01*
X140864167Y-100091876D01*
X138535834Y-100091876D01*
X138535834Y-99509792D01*
X141446250Y-99509792D01*
X141446250Y-100673959D01*
G37*
X141446250Y-100673959D02*
X140864167Y-100673959D01*
X140864167Y-100091876D01*
X138535834Y-100091876D01*
X138535834Y-99509792D01*
X141446250Y-99509792D01*
X141446250Y-100673959D01*
G36*
X143192500Y-104748542D02*
G01*
X143774584Y-104748542D01*
X143774584Y-105912709D01*
X143192500Y-105912709D01*
X143192500Y-105330626D01*
X142028334Y-105330626D01*
X142028334Y-104748542D01*
X142610417Y-104748542D01*
X142610417Y-104166459D01*
X143192500Y-104166459D01*
X143192500Y-104748542D01*
G37*
X143192500Y-104748542D02*
X143774584Y-104748542D01*
X143774584Y-105912709D01*
X143192500Y-105912709D01*
X143192500Y-105330626D01*
X142028334Y-105330626D01*
X142028334Y-104748542D01*
X142610417Y-104748542D01*
X142610417Y-104166459D01*
X143192500Y-104166459D01*
X143192500Y-104748542D01*
G36*
X142028334Y-115226043D02*
G01*
X142028334Y-115808126D01*
X140864167Y-115808126D01*
X140864167Y-116390209D01*
X135625417Y-116390209D01*
X135625417Y-115808126D01*
X134461250Y-115808126D01*
X134461250Y-116390209D01*
X133879167Y-116390209D01*
X133879167Y-115226043D01*
X135625417Y-115226043D01*
X136207501Y-115226043D01*
X136207501Y-115808126D01*
X140864167Y-115808126D01*
X140864167Y-115226043D01*
X139117917Y-115226043D01*
X139117917Y-114643960D01*
X140282083Y-114643960D01*
X141446250Y-114643960D01*
X143774584Y-114643960D01*
X143774584Y-114061876D01*
X141446250Y-114061876D01*
X141446250Y-114643960D01*
X140282083Y-114643960D01*
X140282083Y-114061876D01*
X140864167Y-114061876D01*
X140864167Y-113479792D01*
X141446250Y-113479792D01*
X143192500Y-113479792D01*
X143192500Y-111733542D01*
X141446250Y-111733542D01*
X141446250Y-113479792D01*
X140864167Y-113479792D01*
X140282083Y-113479792D01*
X140282083Y-114061876D01*
X139117917Y-114061876D01*
X139117917Y-113479792D01*
X140282083Y-113479792D01*
X140282083Y-112315626D01*
X140864167Y-112315626D01*
X140864167Y-111733542D01*
X140282083Y-111733542D01*
X140282083Y-112315626D01*
X139700000Y-112315626D01*
X139700000Y-111733542D01*
X139117917Y-111733542D01*
X139117917Y-113479792D01*
X138535834Y-113479792D01*
X138535834Y-112897709D01*
X137953750Y-112897709D01*
X137953750Y-114643960D01*
X137371667Y-114643960D01*
X137371667Y-114061876D01*
X136207501Y-114061876D01*
X136207501Y-114643960D01*
X135625417Y-114643960D01*
X135625417Y-115226043D01*
X133879167Y-115226043D01*
X133879167Y-113479792D01*
X134461250Y-113479792D01*
X135043334Y-113479792D01*
X135625417Y-113479792D01*
X135625417Y-112897709D01*
X136207501Y-112897709D01*
X136207501Y-113479792D01*
X137371667Y-113479792D01*
X137371667Y-112897709D01*
X136789584Y-112897709D01*
X136789584Y-112315626D01*
X137371667Y-112315626D01*
X138535834Y-112315626D01*
X138535834Y-111733542D01*
X137371667Y-111733542D01*
X137371667Y-112315626D01*
X136789584Y-112315626D01*
X135043334Y-112315626D01*
X135043334Y-113479792D01*
X134461250Y-113479792D01*
X134461250Y-112897709D01*
X133879167Y-112897709D01*
X133879167Y-111733542D01*
X135043334Y-111733542D01*
X135043334Y-111151459D01*
X138535834Y-111151459D01*
X138535834Y-111733542D01*
X139117917Y-111733542D01*
X139117917Y-111151459D01*
X139700000Y-111151459D01*
X139700000Y-111733542D01*
X140282083Y-111733542D01*
X140282083Y-111151459D01*
X140864167Y-111151459D01*
X140864167Y-110569375D01*
X141446250Y-110569375D01*
X142028334Y-110569375D01*
X142028334Y-109987292D01*
X141446250Y-109987292D01*
X141446250Y-110569375D01*
X140864167Y-110569375D01*
X140864167Y-109987292D01*
X141446250Y-109987292D01*
X141446250Y-109405209D01*
X142028334Y-109405209D01*
X142610417Y-109405209D01*
X142610417Y-108823126D01*
X142028334Y-108823126D01*
X142028334Y-109405209D01*
X141446250Y-109405209D01*
X141446250Y-108823126D01*
X140864167Y-108823126D01*
X140864167Y-109987292D01*
X139117917Y-109987292D01*
X139117917Y-110569375D01*
X136789584Y-110569375D01*
X136789584Y-109987292D01*
X138535834Y-109987292D01*
X138535834Y-109405209D01*
X139117917Y-109405209D01*
X139700000Y-109405209D01*
X140282083Y-109405209D01*
X140282083Y-108823126D01*
X139700000Y-108823126D01*
X139700000Y-109405209D01*
X139117917Y-109405209D01*
X139117917Y-108823126D01*
X139700000Y-108823126D01*
X139700000Y-108241042D01*
X139117917Y-108241042D01*
X139117917Y-108823126D01*
X138535834Y-108823126D01*
X138535834Y-108241042D01*
X137953750Y-108241042D01*
X137953750Y-109405209D01*
X135625417Y-109405209D01*
X135625417Y-108823126D01*
X137371667Y-108823126D01*
X137371667Y-107658959D01*
X138535834Y-107658959D01*
X138535834Y-107076876D01*
X139117917Y-107076876D01*
X139117917Y-107658959D01*
X140282083Y-107658959D01*
X140282083Y-108241042D01*
X140864167Y-108241042D01*
X142028334Y-108241042D01*
X143192500Y-108241042D01*
X143192500Y-107658959D01*
X142028334Y-107658959D01*
X142028334Y-108241042D01*
X140864167Y-108241042D01*
X140864167Y-107076876D01*
X143774584Y-107076876D01*
X143774584Y-107658959D01*
X144938751Y-107658959D01*
X144938751Y-108241042D01*
X143774584Y-108241042D01*
X143774584Y-108823126D01*
X143192500Y-108823126D01*
X143192500Y-109405209D01*
X143774584Y-109405209D01*
X143774584Y-110569375D01*
X142610417Y-110569375D01*
X142610417Y-111151459D01*
X143774584Y-111151459D01*
X143774584Y-111733542D01*
X144356668Y-111733542D01*
X144356668Y-111151459D01*
X144938751Y-111151459D01*
X144938751Y-110569375D01*
X145520834Y-110569375D01*
X145520834Y-111151459D01*
X146102917Y-111151459D01*
X146102917Y-112315626D01*
X144938751Y-112315626D01*
X144938751Y-112897709D01*
X143774584Y-112897709D01*
X143774584Y-114061876D01*
X144356668Y-114061876D01*
X144356668Y-113479792D01*
X145520834Y-113479792D01*
X145520834Y-114061876D01*
X144938751Y-114061876D01*
X144938751Y-114643960D01*
X145520834Y-114643960D01*
X145520834Y-115808126D01*
X144938751Y-115808126D01*
X144938751Y-116390209D01*
X144356668Y-116390209D01*
X144356668Y-115808126D01*
X144938751Y-115808126D01*
X144938751Y-115226043D01*
X144356668Y-115226043D01*
X144356668Y-115808126D01*
X143774584Y-115808126D01*
X143774584Y-116390209D01*
X142028334Y-116390209D01*
X142028334Y-115808126D01*
X142610417Y-115808126D01*
X143192500Y-115808126D01*
X143774584Y-115808126D01*
X143774584Y-115226043D01*
X143192500Y-115226043D01*
X143192500Y-115808126D01*
X142610417Y-115808126D01*
X142610417Y-115226043D01*
X142028334Y-115226043D01*
G37*
X142028334Y-115226043D02*
X142028334Y-115808126D01*
X140864167Y-115808126D01*
X140864167Y-116390209D01*
X135625417Y-116390209D01*
X135625417Y-115808126D01*
X134461250Y-115808126D01*
X134461250Y-116390209D01*
X133879167Y-116390209D01*
X133879167Y-115226043D01*
X135625417Y-115226043D01*
X136207501Y-115226043D01*
X136207501Y-115808126D01*
X140864167Y-115808126D01*
X140864167Y-115226043D01*
X139117917Y-115226043D01*
X139117917Y-114643960D01*
X140282083Y-114643960D01*
X141446250Y-114643960D01*
X143774584Y-114643960D01*
X143774584Y-114061876D01*
X141446250Y-114061876D01*
X141446250Y-114643960D01*
X140282083Y-114643960D01*
X140282083Y-114061876D01*
X140864167Y-114061876D01*
X140864167Y-113479792D01*
X141446250Y-113479792D01*
X143192500Y-113479792D01*
X143192500Y-111733542D01*
X141446250Y-111733542D01*
X141446250Y-113479792D01*
X140864167Y-113479792D01*
X140282083Y-113479792D01*
X140282083Y-114061876D01*
X139117917Y-114061876D01*
X139117917Y-113479792D01*
X140282083Y-113479792D01*
X140282083Y-112315626D01*
X140864167Y-112315626D01*
X140864167Y-111733542D01*
X140282083Y-111733542D01*
X140282083Y-112315626D01*
X139700000Y-112315626D01*
X139700000Y-111733542D01*
X139117917Y-111733542D01*
X139117917Y-113479792D01*
X138535834Y-113479792D01*
X138535834Y-112897709D01*
X137953750Y-112897709D01*
X137953750Y-114643960D01*
X137371667Y-114643960D01*
X137371667Y-114061876D01*
X136207501Y-114061876D01*
X136207501Y-114643960D01*
X135625417Y-114643960D01*
X135625417Y-115226043D01*
X133879167Y-115226043D01*
X133879167Y-113479792D01*
X134461250Y-113479792D01*
X135043334Y-113479792D01*
X135625417Y-113479792D01*
X135625417Y-112897709D01*
X136207501Y-112897709D01*
X136207501Y-113479792D01*
X137371667Y-113479792D01*
X137371667Y-112897709D01*
X136789584Y-112897709D01*
X136789584Y-112315626D01*
X137371667Y-112315626D01*
X138535834Y-112315626D01*
X138535834Y-111733542D01*
X137371667Y-111733542D01*
X137371667Y-112315626D01*
X136789584Y-112315626D01*
X135043334Y-112315626D01*
X135043334Y-113479792D01*
X134461250Y-113479792D01*
X134461250Y-112897709D01*
X133879167Y-112897709D01*
X133879167Y-111733542D01*
X135043334Y-111733542D01*
X135043334Y-111151459D01*
X138535834Y-111151459D01*
X138535834Y-111733542D01*
X139117917Y-111733542D01*
X139117917Y-111151459D01*
X139700000Y-111151459D01*
X139700000Y-111733542D01*
X140282083Y-111733542D01*
X140282083Y-111151459D01*
X140864167Y-111151459D01*
X140864167Y-110569375D01*
X141446250Y-110569375D01*
X142028334Y-110569375D01*
X142028334Y-109987292D01*
X141446250Y-109987292D01*
X141446250Y-110569375D01*
X140864167Y-110569375D01*
X140864167Y-109987292D01*
X141446250Y-109987292D01*
X141446250Y-109405209D01*
X142028334Y-109405209D01*
X142610417Y-109405209D01*
X142610417Y-108823126D01*
X142028334Y-108823126D01*
X142028334Y-109405209D01*
X141446250Y-109405209D01*
X141446250Y-108823126D01*
X140864167Y-108823126D01*
X140864167Y-109987292D01*
X139117917Y-109987292D01*
X139117917Y-110569375D01*
X136789584Y-110569375D01*
X136789584Y-109987292D01*
X138535834Y-109987292D01*
X138535834Y-109405209D01*
X139117917Y-109405209D01*
X139700000Y-109405209D01*
X140282083Y-109405209D01*
X140282083Y-108823126D01*
X139700000Y-108823126D01*
X139700000Y-109405209D01*
X139117917Y-109405209D01*
X139117917Y-108823126D01*
X139700000Y-108823126D01*
X139700000Y-108241042D01*
X139117917Y-108241042D01*
X139117917Y-108823126D01*
X138535834Y-108823126D01*
X138535834Y-108241042D01*
X137953750Y-108241042D01*
X137953750Y-109405209D01*
X135625417Y-109405209D01*
X135625417Y-108823126D01*
X137371667Y-108823126D01*
X137371667Y-107658959D01*
X138535834Y-107658959D01*
X138535834Y-107076876D01*
X139117917Y-107076876D01*
X139117917Y-107658959D01*
X140282083Y-107658959D01*
X140282083Y-108241042D01*
X140864167Y-108241042D01*
X142028334Y-108241042D01*
X143192500Y-108241042D01*
X143192500Y-107658959D01*
X142028334Y-107658959D01*
X142028334Y-108241042D01*
X140864167Y-108241042D01*
X140864167Y-107076876D01*
X143774584Y-107076876D01*
X143774584Y-107658959D01*
X144938751Y-107658959D01*
X144938751Y-108241042D01*
X143774584Y-108241042D01*
X143774584Y-108823126D01*
X143192500Y-108823126D01*
X143192500Y-109405209D01*
X143774584Y-109405209D01*
X143774584Y-110569375D01*
X142610417Y-110569375D01*
X142610417Y-111151459D01*
X143774584Y-111151459D01*
X143774584Y-111733542D01*
X144356668Y-111733542D01*
X144356668Y-111151459D01*
X144938751Y-111151459D01*
X144938751Y-110569375D01*
X145520834Y-110569375D01*
X145520834Y-111151459D01*
X146102917Y-111151459D01*
X146102917Y-112315626D01*
X144938751Y-112315626D01*
X144938751Y-112897709D01*
X143774584Y-112897709D01*
X143774584Y-114061876D01*
X144356668Y-114061876D01*
X144356668Y-113479792D01*
X145520834Y-113479792D01*
X145520834Y-114061876D01*
X144938751Y-114061876D01*
X144938751Y-114643960D01*
X145520834Y-114643960D01*
X145520834Y-115808126D01*
X144938751Y-115808126D01*
X144938751Y-116390209D01*
X144356668Y-116390209D01*
X144356668Y-115808126D01*
X144938751Y-115808126D01*
X144938751Y-115226043D01*
X144356668Y-115226043D01*
X144356668Y-115808126D01*
X143774584Y-115808126D01*
X143774584Y-116390209D01*
X142028334Y-116390209D01*
X142028334Y-115808126D01*
X142610417Y-115808126D01*
X143192500Y-115808126D01*
X143774584Y-115808126D01*
X143774584Y-115226043D01*
X143192500Y-115226043D01*
X143192500Y-115808126D01*
X142610417Y-115808126D01*
X142610417Y-115226043D01*
X142028334Y-115226043D01*
G36*
X146102917Y-109987292D02*
G01*
X145520834Y-109987292D01*
X145520834Y-109405209D01*
X146102917Y-109405209D01*
X146102917Y-109987292D01*
G37*
X146102917Y-109987292D02*
X145520834Y-109987292D01*
X145520834Y-109405209D01*
X146102917Y-109405209D01*
X146102917Y-109987292D01*
G36*
X146102917Y-107658959D02*
G01*
X145520834Y-107658959D01*
X145520834Y-107076876D01*
X146102917Y-107076876D01*
X146102917Y-107658959D01*
G37*
X146102917Y-107658959D02*
X145520834Y-107658959D01*
X145520834Y-107076876D01*
X146102917Y-107076876D01*
X146102917Y-107658959D01*
G36*
X145520834Y-108823126D02*
G01*
X144938751Y-108823126D01*
X144938751Y-108241042D01*
X145520834Y-108241042D01*
X145520834Y-108823126D01*
G37*
X145520834Y-108823126D02*
X144938751Y-108823126D01*
X144938751Y-108241042D01*
X145520834Y-108241042D01*
X145520834Y-108823126D01*
G36*
X133297084Y-112315626D02*
G01*
X133297084Y-116390209D01*
X129222500Y-116390209D01*
X129222500Y-115808126D01*
X129804584Y-115808126D01*
X132715000Y-115808126D01*
X132715000Y-112897709D01*
X129804584Y-112897709D01*
X129804584Y-115808126D01*
X129222500Y-115808126D01*
X129222500Y-112315626D01*
X133297084Y-112315626D01*
G37*
X133297084Y-112315626D02*
X133297084Y-116390209D01*
X129222500Y-116390209D01*
X129222500Y-115808126D01*
X129804584Y-115808126D01*
X132715000Y-115808126D01*
X132715000Y-112897709D01*
X129804584Y-112897709D01*
X129804584Y-115808126D01*
X129222500Y-115808126D01*
X129222500Y-112315626D01*
X133297084Y-112315626D01*
G36*
X139117917Y-104166459D02*
G01*
X139700000Y-104166459D01*
X139700000Y-104748542D01*
X139117917Y-104748542D01*
X139117917Y-105330626D01*
X138535834Y-105330626D01*
X138535834Y-104748542D01*
X136789584Y-104748542D01*
X136789584Y-104166459D01*
X137953750Y-104166459D01*
X137953750Y-103584376D01*
X138535834Y-103584376D01*
X138535834Y-103002292D01*
X139117917Y-103002292D01*
X139117917Y-104166459D01*
G37*
X139117917Y-104166459D02*
X139700000Y-104166459D01*
X139700000Y-104748542D01*
X139117917Y-104748542D01*
X139117917Y-105330626D01*
X138535834Y-105330626D01*
X138535834Y-104748542D01*
X136789584Y-104748542D01*
X136789584Y-104166459D01*
X137953750Y-104166459D01*
X137953750Y-103584376D01*
X138535834Y-103584376D01*
X138535834Y-103002292D01*
X139117917Y-103002292D01*
X139117917Y-104166459D01*
G36*
X133297084Y-99509792D02*
G01*
X133297084Y-103584376D01*
X129222500Y-103584376D01*
X129222500Y-103002292D01*
X129804584Y-103002292D01*
X132715000Y-103002292D01*
X132715000Y-100091876D01*
X129804584Y-100091876D01*
X129804584Y-103002292D01*
X129222500Y-103002292D01*
X129222500Y-99509792D01*
X133297084Y-99509792D01*
G37*
X133297084Y-99509792D02*
X133297084Y-103584376D01*
X129222500Y-103584376D01*
X129222500Y-103002292D01*
X129804584Y-103002292D01*
X132715000Y-103002292D01*
X132715000Y-100091876D01*
X129804584Y-100091876D01*
X129804584Y-103002292D01*
X129222500Y-103002292D01*
X129222500Y-99509792D01*
X133297084Y-99509792D01*
G36*
X137371667Y-115226043D02*
G01*
X136207501Y-115226043D01*
X136207501Y-114643960D01*
X137371667Y-114643960D01*
X137371667Y-115226043D01*
G37*
X137371667Y-115226043D02*
X136207501Y-115226043D01*
X136207501Y-114643960D01*
X137371667Y-114643960D01*
X137371667Y-115226043D01*
G36*
X136789584Y-108241042D02*
G01*
X136207501Y-108241042D01*
X136207501Y-107658959D01*
X136789584Y-107658959D01*
X136789584Y-108241042D01*
G37*
X136789584Y-108241042D02*
X136207501Y-108241042D01*
X136207501Y-107658959D01*
X136789584Y-107658959D01*
X136789584Y-108241042D01*
G36*
X144356668Y-106494793D02*
G01*
X144938751Y-106494793D01*
X144938751Y-107076876D01*
X143774584Y-107076876D01*
X143774584Y-105912709D01*
X144356668Y-105912709D01*
X144356668Y-106494793D01*
G37*
X144356668Y-106494793D02*
X144938751Y-106494793D01*
X144938751Y-107076876D01*
X143774584Y-107076876D01*
X143774584Y-105912709D01*
X144356668Y-105912709D01*
X144356668Y-106494793D01*
G36*
X132132917Y-115226043D02*
G01*
X130386667Y-115226043D01*
X130386667Y-113479792D01*
X132132917Y-113479792D01*
X132132917Y-115226043D01*
G37*
X132132917Y-115226043D02*
X130386667Y-115226043D01*
X130386667Y-113479792D01*
X132132917Y-113479792D01*
X132132917Y-115226043D01*
G36*
X134461250Y-109405209D02*
G01*
X133879167Y-109405209D01*
X133879167Y-108823126D01*
X134461250Y-108823126D01*
X134461250Y-109405209D01*
G37*
X134461250Y-109405209D02*
X133879167Y-109405209D01*
X133879167Y-108823126D01*
X134461250Y-108823126D01*
X134461250Y-109405209D01*
G36*
X135625417Y-110569375D02*
G01*
X135043334Y-110569375D01*
X135043334Y-109987292D01*
X135625417Y-109987292D01*
X135625417Y-110569375D01*
G37*
X135625417Y-110569375D02*
X135043334Y-110569375D01*
X135043334Y-109987292D01*
X135625417Y-109987292D01*
X135625417Y-110569375D01*
G36*
X132132917Y-102420209D02*
G01*
X130386667Y-102420209D01*
X130386667Y-100673959D01*
X132132917Y-100673959D01*
X132132917Y-102420209D01*
G37*
X132132917Y-102420209D02*
X130386667Y-102420209D01*
X130386667Y-100673959D01*
X132132917Y-100673959D01*
X132132917Y-102420209D01*
G36*
X138535834Y-115226043D02*
G01*
X137953750Y-115226043D01*
X137953750Y-114643960D01*
X138535834Y-114643960D01*
X138535834Y-115226043D01*
G37*
X138535834Y-115226043D02*
X137953750Y-115226043D01*
X137953750Y-114643960D01*
X138535834Y-114643960D01*
X138535834Y-115226043D01*
G36*
X129804584Y-108241042D02*
G01*
X129222500Y-108241042D01*
X129222500Y-107658959D01*
X129804584Y-107658959D01*
X129804584Y-108241042D01*
G37*
X129804584Y-108241042D02*
X129222500Y-108241042D01*
X129222500Y-107658959D01*
X129804584Y-107658959D01*
X129804584Y-108241042D01*
G36*
X136207501Y-100091876D02*
G01*
X135625417Y-100091876D01*
X135625417Y-99509792D01*
X136207501Y-99509792D01*
X136207501Y-100091876D01*
G37*
X136207501Y-100091876D02*
X135625417Y-100091876D01*
X135625417Y-99509792D01*
X136207501Y-99509792D01*
X136207501Y-100091876D01*
G36*
X142610417Y-112897709D02*
G01*
X142028334Y-112897709D01*
X142028334Y-112315626D01*
X142610417Y-112315626D01*
X142610417Y-112897709D01*
G37*
X142610417Y-112897709D02*
X142028334Y-112897709D01*
X142028334Y-112315626D01*
X142610417Y-112315626D01*
X142610417Y-112897709D01*
G36*
X134461250Y-103584376D02*
G01*
X133879167Y-103584376D01*
X133879167Y-102420209D01*
X134461250Y-102420209D01*
X134461250Y-103584376D01*
G37*
X134461250Y-103584376D02*
X133879167Y-103584376D01*
X133879167Y-102420209D01*
X134461250Y-102420209D01*
X134461250Y-103584376D01*
G36*
X129804584Y-109405209D02*
G01*
X129804584Y-111733542D01*
X129222500Y-111733542D01*
X129222500Y-108823126D01*
X129804584Y-108823126D01*
X129804584Y-108241042D01*
X131550834Y-108241042D01*
X131550834Y-109405209D01*
X130968750Y-109405209D01*
X130968750Y-111151459D01*
X131550834Y-111151459D01*
X131550834Y-109405209D01*
X132132917Y-109405209D01*
X132132917Y-110569375D01*
X132715000Y-110569375D01*
X132715000Y-109987292D01*
X133297084Y-109987292D01*
X133297084Y-109405209D01*
X133879167Y-109405209D01*
X133879167Y-109987292D01*
X134461250Y-109987292D01*
X134461250Y-110569375D01*
X133879167Y-110569375D01*
X133879167Y-111151459D01*
X133297084Y-111151459D01*
X133297084Y-111733542D01*
X132715000Y-111733542D01*
X132715000Y-111151459D01*
X133297084Y-111151459D01*
X133297084Y-110569375D01*
X132715000Y-110569375D01*
X132715000Y-111151459D01*
X132132917Y-111151459D01*
X132132917Y-111733542D01*
X130386667Y-111733542D01*
X130386667Y-109405209D01*
X129804584Y-109405209D01*
G37*
X129804584Y-109405209D02*
X129804584Y-111733542D01*
X129222500Y-111733542D01*
X129222500Y-108823126D01*
X129804584Y-108823126D01*
X129804584Y-108241042D01*
X131550834Y-108241042D01*
X131550834Y-109405209D01*
X130968750Y-109405209D01*
X130968750Y-111151459D01*
X131550834Y-111151459D01*
X131550834Y-109405209D01*
X132132917Y-109405209D01*
X132132917Y-110569375D01*
X132715000Y-110569375D01*
X132715000Y-109987292D01*
X133297084Y-109987292D01*
X133297084Y-109405209D01*
X133879167Y-109405209D01*
X133879167Y-109987292D01*
X134461250Y-109987292D01*
X134461250Y-110569375D01*
X133879167Y-110569375D01*
X133879167Y-111151459D01*
X133297084Y-111151459D01*
X133297084Y-111733542D01*
X132715000Y-111733542D01*
X132715000Y-111151459D01*
X133297084Y-111151459D01*
X133297084Y-110569375D01*
X132715000Y-110569375D01*
X132715000Y-111151459D01*
X132132917Y-111151459D01*
X132132917Y-111733542D01*
X130386667Y-111733542D01*
X130386667Y-109405209D01*
X129804584Y-109405209D01*
D11*
%TO.P,REF\u002A\u002A,1*%
%TO.N,N/C*%
X201930000Y-149860000D03*
%TD*%
%TO.P,REF\u002A\u002A,1*%
%TO.N,N/C*%
X88900000Y-149860000D03*
%TD*%
%TO.P,REF\u002A\u002A,1*%
%TO.N,N/C*%
X201930000Y-33020000D03*
%TD*%
D12*
%TO.P,JP1,1,A*%
%TO.N,/5v'*%
X187960000Y-118110000D03*
%TO.P,JP1,2,B*%
%TO.N,+5V*%
X187960000Y-128110000D03*
%TD*%
D13*
%TO.P,U1,1,~{RST}*%
%TO.N,/reset*%
X143490000Y-144470000D03*
%TO.P,U1,2,ADC*%
%TO.N,/multiplex_out*%
X143490000Y-142470000D03*
%TO.P,U1,3,EN*%
%TO.N,/Enable*%
X143490000Y-140470000D03*
%TO.P,U1,4,GPIO16*%
%TO.N,/multiplex_C*%
X143490000Y-138470000D03*
%TO.P,U1,5,GPIO14*%
%TO.N,/multiplex_B*%
X143490000Y-136470000D03*
%TO.P,U1,6,GPIO12*%
%TO.N,/multiplex_A*%
X143490000Y-134470000D03*
%TO.P,U1,7,GPIO13*%
%TO.N,/det_0_intr*%
X143490000Y-132470000D03*
%TO.P,U1,8,VCC*%
%TO.N,/3v3'1*%
X143490000Y-130470000D03*
D14*
%TO.P,U1,9,CS0*%
%TO.N,unconnected-(U1-Pad9)*%
X140890000Y-128970000D03*
%TO.P,U1,10,MISO*%
%TO.N,unconnected-(U1-Pad10)*%
X138890000Y-128970000D03*
%TO.P,U1,11,GPIO9*%
%TO.N,unconnected-(U1-Pad11)*%
X136890000Y-128970000D03*
%TO.P,U1,12,GPIO10*%
%TO.N,unconnected-(U1-Pad12)*%
X134890000Y-128970000D03*
%TO.P,U1,13,MOSI*%
%TO.N,unconnected-(U1-Pad13)*%
X132890000Y-128970000D03*
%TO.P,U1,14,SCLK*%
%TO.N,unconnected-(U1-Pad14)*%
X130890000Y-128970000D03*
D13*
%TO.P,U1,15,GND*%
%TO.N,/gnd'*%
X128290000Y-130470000D03*
%TO.P,U1,16,GPIO15*%
%TO.N,/steady_state*%
X128290000Y-132470000D03*
%TO.P,U1,17,GPIO2*%
%TO.N,/wifi_status*%
X128290000Y-134470000D03*
%TO.P,U1,18,GPIO0*%
%TO.N,/exit_intr*%
X128290000Y-136470000D03*
%TO.P,U1,19,GPIO4*%
%TO.N,/drive_load_1*%
X128290000Y-138470000D03*
%TO.P,U1,20,GPIO5*%
%TO.N,/drive_load_2*%
X128290000Y-140470000D03*
%TO.P,U1,21,GPIO3/RXD*%
%TO.N,/Serial_rx*%
X128290000Y-142470000D03*
%TO.P,U1,22,GPIO1/TXD*%
%TO.N,/Serial_tx*%
X128290000Y-144470000D03*
%TD*%
D11*
%TO.P,REF\u002A\u002A,1*%
%TO.N,N/C*%
X88900000Y-33020000D03*
%TD*%
D15*
%TO.P,Rreset1,1*%
%TO.N,/3v3'2*%
X109220000Y-130250000D03*
D16*
%TO.P,Rreset1,2*%
%TO.N,/reset*%
X109220000Y-137870000D03*
%TD*%
D17*
%TO.P,Don1,1,K*%
%TO.N,GND*%
X100330000Y-96520000D03*
D18*
%TO.P,Don1,2,A*%
%TO.N,Net-(Don1-Pad2)*%
X102870000Y-96520000D03*
%TD*%
D19*
%TO.P,SWexit1,1,1*%
%TO.N,/exit_intr*%
X104830000Y-118110000D03*
X104830000Y-124610000D03*
%TO.P,SWexit1,2,2*%
%TO.N,GND*%
X100330000Y-124610000D03*
X100330000Y-118110000D03*
%TD*%
D12*
%TO.P,JP6,1,A*%
%TO.N,/gnd'*%
X147480000Y-130810000D03*
%TO.P,JP6,2,B*%
%TO.N,GND*%
X157480000Y-130810000D03*
%TD*%
D20*
%TO.P,D2,1,K*%
%TO.N,/AC1'*%
X137160000Y-59690000D03*
D21*
%TO.P,D2,2,A*%
%TO.N,Net-(D2-Pad2)*%
X137160000Y-64770000D03*
%TD*%
D12*
%TO.P,JP3,1,A*%
%TO.N,/AC2*%
X163735000Y-54610000D03*
%TO.P,JP3,2,B*%
%TO.N,/AC2'*%
X153735000Y-54610000D03*
%TD*%
D22*
%TO.P,Jserial_power1,1,Pin_1*%
%TO.N,+5V*%
X194310000Y-137160000D03*
D23*
%TO.P,Jserial_power1,2,Pin_2*%
%TO.N,GND*%
X194310000Y-139700000D03*
%TD*%
D15*
%TO.P,Rz2,1*%
%TO.N,/3v3'1*%
X142240000Y-85090000D03*
D16*
%TO.P,Rz2,2*%
%TO.N,/det_0_intr*%
X134620000Y-85090000D03*
%TD*%
D22*
%TO.P,Jpwr_sens2,1,Pin_1*%
%TO.N,GND*%
X181610000Y-93980000D03*
D23*
%TO.P,Jpwr_sens2,2,Pin_2*%
X181610000Y-96520000D03*
%TO.P,Jpwr_sens2,3,Pin_3*%
X181610000Y-99060000D03*
%TO.P,Jpwr_sens2,4,Pin_4*%
X181610000Y-101600000D03*
%TO.P,Jpwr_sens2,5,Pin_5*%
X181610000Y-104140000D03*
%TO.P,Jpwr_sens2,6,Pin_6*%
X181610000Y-106680000D03*
%TO.P,Jpwr_sens2,7,Pin_7*%
X181610000Y-109220000D03*
%TO.P,Jpwr_sens2,8,Pin_8*%
X181610000Y-111760000D03*
%TD*%
D24*
%TO.P,U3v3,1,GND*%
%TO.N,GND*%
X176360000Y-125730000D03*
D25*
%TO.P,U3v3,2,VO*%
%TO.N,+3V3*%
X178900000Y-125730000D03*
%TO.P,U3v3,3,VI*%
%TO.N,+5V*%
X181440000Y-125730000D03*
%TD*%
D19*
%TO.P,SWreset1,1,1*%
%TO.N,/reset*%
X104830000Y-137310000D03*
X104830000Y-130810000D03*
%TO.P,SWreset1,2,2*%
%TO.N,GND*%
X100330000Y-137310000D03*
X100330000Y-130810000D03*
%TD*%
D15*
%TO.P,Rtriac2,1*%
%TO.N,Net-(Rtriac2-Pad1)*%
X101600000Y-59690000D03*
D16*
%TO.P,Rtriac2,2*%
%TO.N,Net-(Jl2-Pad1)*%
X114300000Y-59690000D03*
%TD*%
D26*
%TO.P,Jl1,1,Pin_1*%
%TO.N,/AC1*%
X198120000Y-62230000D03*
D27*
%TO.P,Jl1,2,Pin_2*%
%TO.N,Net-(Jl1-Pad2)*%
X198120000Y-67310000D03*
%TD*%
D12*
%TO.P,JP4,1,A*%
%TO.N,/AC1*%
X134620000Y-46990000D03*
%TO.P,JP4,2,B*%
%TO.N,/AC1'*%
X134620000Y-56990000D03*
%TD*%
D26*
%TO.P,Jac1,1,Pin_1*%
%TO.N,/AC2*%
X198120000Y-74930000D03*
D27*
%TO.P,Jac1,2,Pin_2*%
%TO.N,Net-(F1-Pad1)*%
X198120000Y-80010000D03*
%TD*%
D15*
%TO.P,Ron1,1*%
%TO.N,/3v3'2*%
X114300000Y-96520000D03*
D16*
%TO.P,Ron1,2*%
%TO.N,Net-(Don1-Pad2)*%
X106680000Y-96520000D03*
%TD*%
D15*
%TO.P,Ren1,1*%
%TO.N,/Enable*%
X151130000Y-140462000D03*
D16*
%TO.P,Ren1,2*%
%TO.N,+3V3*%
X158750000Y-140462000D03*
%TD*%
D12*
%TO.P,JP2,1,A*%
%TO.N,/AC2*%
X163735000Y-57150000D03*
%TO.P,JP2,2,B*%
%TO.N,/AC2'*%
X153735000Y-57150000D03*
%TD*%
D28*
%TO.P,Uload1,1*%
%TO.N,Net-(Rtriac1-Pad1)*%
X161290000Y-73645000D03*
D29*
%TO.P,Uload1,2*%
%TO.N,Net-(Q1-Pad3)*%
X163830000Y-73645000D03*
%TO.P,Uload1,3,NC*%
%TO.N,unconnected-(Uload1-Pad3)*%
X166370000Y-73645000D03*
%TO.P,Uload1,4*%
%TO.N,GND*%
X166370000Y-81265000D03*
%TO.P,Uload1,5,NC*%
%TO.N,unconnected-(Uload1-Pad5)*%
X163830000Y-81265000D03*
%TO.P,Uload1,6*%
%TO.N,Net-(Rmoc1-Pad1)*%
X161290000Y-81265000D03*
%TD*%
D20*
%TO.P,D4,1,K*%
%TO.N,/AC2'*%
X132080000Y-59690000D03*
D21*
%TO.P,D4,2,A*%
%TO.N,Net-(D2-Pad2)*%
X132080000Y-64770000D03*
%TD*%
D12*
%TO.P,JP7,1,A*%
%TO.N,Net-(JP7-Pad1)*%
X123190000Y-125890000D03*
%TO.P,JP7,2,B*%
%TO.N,/drive_load_1*%
X123190000Y-135890000D03*
%TD*%
D15*
%TO.P,Rmoc1,1*%
%TO.N,Net-(Rmoc1-Pad1)*%
X166370000Y-85090000D03*
D16*
%TO.P,Rmoc1,2*%
%TO.N,Net-(JP7-Pad1)*%
X158750000Y-85090000D03*
%TD*%
D15*
%TO.P,Rtriac1,1*%
%TO.N,Net-(Rtriac1-Pad1)*%
X152385000Y-60960000D03*
D16*
%TO.P,Rtriac1,2*%
%TO.N,Net-(Jl1-Pad2)*%
X165085000Y-60960000D03*
%TD*%
D15*
%TO.P,Rsens2,1*%
%TO.N,/multiplex_out*%
X154940000Y-123190000D03*
D16*
%TO.P,Rsens2,2*%
%TO.N,GND*%
X162560000Y-123190000D03*
%TD*%
D17*
%TO.P,Dwifi1,1,K*%
%TO.N,GND*%
X100330000Y-109220000D03*
D18*
%TO.P,Dwifi1,2,A*%
%TO.N,Net-(Dwifi1-Pad2)*%
X102870000Y-109220000D03*
%TD*%
D15*
%TO.P,Rz1,1*%
%TO.N,Net-(Rz1-Pad1)*%
X127000000Y-68580000D03*
D16*
%TO.P,Rz1,2*%
%TO.N,Net-(D2-Pad2)*%
X139700000Y-68580000D03*
%TD*%
D26*
%TO.P,Jl2,1,Pin_1*%
%TO.N,Net-(Jl2-Pad1)*%
X198120000Y-50800000D03*
D27*
%TO.P,Jl2,2,Pin_2*%
%TO.N,/AC1*%
X198120000Y-55880000D03*
%TD*%
D12*
%TO.P,JP9,1,A*%
%TO.N,/3v3'1*%
X125730000Y-121920000D03*
%TO.P,JP9,2,B*%
%TO.N,/3v3'2*%
X115730000Y-121920000D03*
%TD*%
D20*
%TO.P,D3,1,K*%
%TO.N,Net-(D1-Pad1)*%
X127000000Y-64770000D03*
D21*
%TO.P,D3,2,A*%
%TO.N,/AC2'*%
X127000000Y-59690000D03*
%TD*%
D28*
%TO.P,Uload2,1*%
%TO.N,Net-(Rtriac2-Pad1)*%
X107965000Y-73645000D03*
D29*
%TO.P,Uload2,2*%
%TO.N,Net-(Q2-Pad3)*%
X110505000Y-73645000D03*
%TO.P,Uload2,3,NC*%
%TO.N,unconnected-(Uload2-Pad3)*%
X113045000Y-73645000D03*
%TO.P,Uload2,4*%
%TO.N,GND*%
X113045000Y-81265000D03*
%TO.P,Uload2,5,NC*%
%TO.N,unconnected-(Uload2-Pad5)*%
X110505000Y-81265000D03*
%TO.P,Uload2,6*%
%TO.N,Net-(Rmoc2-Pad1)*%
X107965000Y-81265000D03*
%TD*%
D22*
%TO.P,Jpwr_sens1,1,Pin_1*%
%TO.N,/5v'*%
X189230000Y-93980000D03*
D23*
%TO.P,Jpwr_sens1,2,Pin_2*%
X189230000Y-96520000D03*
%TO.P,Jpwr_sens1,3,Pin_3*%
X189230000Y-99060000D03*
%TO.P,Jpwr_sens1,4,Pin_4*%
X189230000Y-101600000D03*
%TO.P,Jpwr_sens1,5,Pin_5*%
X189230000Y-104140000D03*
%TO.P,Jpwr_sens1,6,Pin_6*%
X189230000Y-106680000D03*
%TO.P,Jpwr_sens1,7,Pin_7*%
X189230000Y-109220000D03*
%TO.P,Jpwr_sens1,8,Pin_8*%
X189230000Y-111760000D03*
%TD*%
D15*
%TO.P,C1,1*%
%TO.N,+5V*%
X177800000Y-137200000D03*
%TO.P,C1,2*%
%TO.N,GND*%
X177800000Y-142200000D03*
%TD*%
%TO.P,Rwifi1,1*%
%TO.N,/wifi_status*%
X114300000Y-109220000D03*
D16*
%TO.P,Rwifi1,2*%
%TO.N,Net-(Dwifi1-Pad2)*%
X106680000Y-109220000D03*
%TD*%
D22*
%TO.P,Jserial_com1,1,Pin_1*%
%TO.N,/Serial_rx*%
X123190000Y-140970000D03*
D23*
%TO.P,Jserial_com1,2,Pin_2*%
%TO.N,/Serial_tx*%
X123190000Y-143510000D03*
%TD*%
D30*
%TO.P,Umultiplex1,1,X4*%
%TO.N,/S4*%
X162550000Y-97780000D03*
D16*
%TO.P,Umultiplex1,2,X6*%
%TO.N,/S6*%
X162550000Y-100320000D03*
%TO.P,Umultiplex1,3,X*%
%TO.N,Net-(Rsens1-Pad1)*%
X162550000Y-102860000D03*
%TO.P,Umultiplex1,4,X7*%
%TO.N,/S7*%
X162550000Y-105400000D03*
%TO.P,Umultiplex1,5,X5*%
%TO.N,/S5*%
X162550000Y-107940000D03*
%TO.P,Umultiplex1,6,INH*%
%TO.N,GND*%
X162550000Y-110480000D03*
%TO.P,Umultiplex1,7,VEE*%
X162550000Y-113020000D03*
%TO.P,Umultiplex1,8,VSS*%
X162550000Y-115560000D03*
%TO.P,Umultiplex1,9,C*%
%TO.N,/multiplex_C*%
X154930000Y-115560000D03*
%TO.P,Umultiplex1,10,B*%
%TO.N,/multiplex_B*%
X154930000Y-113020000D03*
%TO.P,Umultiplex1,11,A*%
%TO.N,/multiplex_A*%
X154930000Y-110480000D03*
%TO.P,Umultiplex1,12,X3*%
%TO.N,/S3*%
X154930000Y-107940000D03*
%TO.P,Umultiplex1,13,X0*%
%TO.N,/S0*%
X154930000Y-105400000D03*
%TO.P,Umultiplex1,14,X1*%
%TO.N,/S1*%
X154930000Y-102860000D03*
%TO.P,Umultiplex1,15,X2*%
%TO.N,/S2*%
X154930000Y-100320000D03*
%TO.P,Umultiplex1,16,VDD*%
%TO.N,+3V3*%
X154930000Y-97780000D03*
%TD*%
D31*
%TO.P,Jdc1,1*%
%TO.N,+5V*%
X191750000Y-125730000D03*
D32*
%TO.P,Jdc1,2*%
%TO.N,GND*%
X197750000Y-125730000D03*
%TO.P,Jdc1,3*%
%TO.N,unconnected-(Jdc1-Pad3)*%
X194750000Y-130430000D03*
%TD*%
D15*
%TO.P,C2,1*%
%TO.N,+3V3*%
X166370000Y-137200000D03*
%TO.P,C2,2*%
%TO.N,GND*%
X166370000Y-142200000D03*
%TD*%
%TO.P,Rss1,1*%
%TO.N,/steady_state*%
X114300000Y-102870000D03*
D16*
%TO.P,Rss1,2*%
%TO.N,Net-(Dss1-Pad2)*%
X106680000Y-102870000D03*
%TD*%
D24*
%TO.P,Q1,1,A1*%
%TO.N,/AC2*%
X157480000Y-46990000D03*
D25*
%TO.P,Q1,2,A2*%
%TO.N,Net-(Jl1-Pad2)*%
X154940000Y-46990000D03*
%TO.P,Q1,3,G*%
%TO.N,Net-(Q1-Pad3)*%
X152400000Y-46990000D03*
D33*
%TO.P,Q1,sink2*%
%TO.N,N/C*%
X145980000Y-45990000D03*
X163980000Y-45990000D03*
%TD*%
D28*
%TO.P,Udet_0,1*%
%TO.N,Net-(D5-Pad2)*%
X137160000Y-73660000D03*
D29*
%TO.P,Udet_0,2*%
%TO.N,Net-(Rz1-Pad1)*%
X139700000Y-73660000D03*
%TO.P,Udet_0,3,NC*%
%TO.N,unconnected-(Udet_0-Pad3)*%
X142240000Y-73660000D03*
%TO.P,Udet_0,4*%
%TO.N,GND*%
X142240000Y-81280000D03*
%TO.P,Udet_0,5*%
%TO.N,/det_0_intr*%
X139700000Y-81280000D03*
%TO.P,Udet_0,6*%
%TO.N,unconnected-(Udet_0-Pad6)*%
X137160000Y-81280000D03*
%TD*%
D15*
%TO.P,Rexit1,1*%
%TO.N,/3v3'2*%
X109220000Y-125170000D03*
D16*
%TO.P,Rexit1,2*%
%TO.N,/exit_intr*%
X109220000Y-117550000D03*
%TD*%
D22*
%TO.P,Jsens1,1,Pin_1*%
%TO.N,/S3*%
X173990000Y-93995000D03*
D23*
%TO.P,Jsens1,2,Pin_2*%
%TO.N,/S0*%
X173990000Y-96535000D03*
%TO.P,Jsens1,3,Pin_3*%
%TO.N,/S1*%
X173990000Y-99075000D03*
%TO.P,Jsens1,4,Pin_4*%
%TO.N,/S2*%
X173990000Y-101615000D03*
%TO.P,Jsens1,5,Pin_5*%
%TO.N,/S4*%
X173990000Y-104155000D03*
%TO.P,Jsens1,6,Pin_6*%
%TO.N,/S6*%
X173990000Y-106695000D03*
%TO.P,Jsens1,7,Pin_7*%
%TO.N,/S7*%
X173990000Y-109235000D03*
%TO.P,Jsens1,8,Pin_8*%
%TO.N,/S5*%
X173990000Y-111775000D03*
%TD*%
D12*
%TO.P,JP5,1,A*%
%TO.N,+3V3*%
X157480000Y-127000000D03*
%TO.P,JP5,2,B*%
%TO.N,/3v3'1*%
X147480000Y-127000000D03*
%TD*%
D24*
%TO.P,Q2,1,A1*%
%TO.N,/AC2'*%
X116840000Y-46990000D03*
D25*
%TO.P,Q2,2,A2*%
%TO.N,Net-(Jl2-Pad1)*%
X114300000Y-46990000D03*
%TO.P,Q2,3,G*%
%TO.N,Net-(Q2-Pad3)*%
X111760000Y-46990000D03*
D33*
%TO.P,Q2,sink2*%
%TO.N,N/C*%
X105340000Y-45990000D03*
X123340000Y-45990000D03*
%TD*%
D17*
%TO.P,Dss1,1,K*%
%TO.N,GND*%
X100330000Y-102870000D03*
D18*
%TO.P,Dss1,2,A*%
%TO.N,Net-(Dss1-Pad2)*%
X102870000Y-102870000D03*
%TD*%
D15*
%TO.P,Rmoc2,1*%
%TO.N,Net-(Rmoc2-Pad1)*%
X113030000Y-85090000D03*
D16*
%TO.P,Rmoc2,2*%
%TO.N,Net-(JP8-Pad1)*%
X105410000Y-85090000D03*
%TD*%
D27*
%TO.P,F1,1*%
%TO.N,Net-(F1-Pad1)*%
X180340000Y-80010000D03*
%TO.P,F1,2*%
%TO.N,/AC1*%
X180340000Y-57410000D03*
%TD*%
D12*
%TO.P,JP8,1,A*%
%TO.N,Net-(JP8-Pad1)*%
X119380000Y-125890000D03*
%TO.P,JP8,2,B*%
%TO.N,/drive_load_2*%
X119380000Y-135890000D03*
%TD*%
D20*
%TO.P,D1,1,K*%
%TO.N,Net-(D1-Pad1)*%
X142240000Y-64770000D03*
D21*
%TO.P,D1,2,A*%
%TO.N,/AC1'*%
X142240000Y-59690000D03*
%TD*%
D15*
%TO.P,Rsens1,1*%
%TO.N,Net-(Rsens1-Pad1)*%
X162560000Y-119380000D03*
D16*
%TO.P,Rsens1,2*%
%TO.N,/multiplex_out*%
X154940000Y-119380000D03*
%TD*%
D20*
%TO.P,D5,1,K*%
%TO.N,Net-(D1-Pad1)*%
X127000000Y-73660000D03*
D21*
%TO.P,D5,2,A*%
%TO.N,Net-(D5-Pad2)*%
X132080000Y-73660000D03*
%TD*%
D34*
%TO.N,+5V*%
X194310000Y-134620000D02*
X190500000Y-130810000D01*
X187960000Y-128110000D02*
X187960000Y-125730000D01*
X181570000Y-137200000D02*
X177800000Y-137200000D01*
X194310000Y-137160000D02*
X194310000Y-134620000D01*
X186690000Y-130810000D02*
X186690000Y-125730000D01*
X186690000Y-125730000D02*
X181440000Y-125730000D01*
X186690000Y-132120000D02*
X186650000Y-132120000D01*
X187960000Y-125730000D02*
X186690000Y-125730000D01*
X186650000Y-132120000D02*
X181570000Y-137200000D01*
X190500000Y-130810000D02*
X186690000Y-130810000D01*
X191750000Y-125730000D02*
X187960000Y-125730000D01*
X186690000Y-130810000D02*
X186690000Y-132120000D01*
%TO.N,GND*%
X193940000Y-121920000D02*
X180170000Y-121920000D01*
X165100000Y-116840000D02*
X163820000Y-115560000D01*
X162560000Y-123190000D02*
X162560000Y-125730000D01*
X100330000Y-96520000D02*
X100330000Y-102870000D01*
X181610000Y-93980000D02*
X181610000Y-91440000D01*
X113045000Y-78755000D02*
X113030000Y-78740000D01*
X181610000Y-104140000D02*
X181610000Y-101600000D01*
X179070000Y-88900000D02*
X171450000Y-88900000D01*
X181610000Y-101600000D02*
X181610000Y-99060000D01*
X163820000Y-115560000D02*
X162550000Y-115560000D01*
X177800000Y-142200000D02*
X166370000Y-142200000D01*
X100330000Y-137310000D02*
X100330000Y-130810000D01*
X181610000Y-106680000D02*
X181610000Y-104140000D01*
X181610000Y-111760000D02*
X181610000Y-121920000D01*
X171450000Y-88900000D02*
X168910000Y-86360000D01*
X100330000Y-130810000D02*
X100330000Y-124610000D01*
X165100000Y-120650000D02*
X165100000Y-116840000D01*
X162550000Y-115560000D02*
X162550000Y-113020000D01*
X165100000Y-78740000D02*
X166370000Y-78740000D01*
X162560000Y-125730000D02*
X157480000Y-130810000D01*
X175260000Y-116840000D02*
X165100000Y-116840000D01*
X168910000Y-86360000D02*
X168910000Y-80010000D01*
X100330000Y-81280000D02*
X100330000Y-96520000D01*
X162550000Y-113020000D02*
X162550000Y-110480000D01*
X100330000Y-118110000D02*
X100330000Y-109220000D01*
X162560000Y-123190000D02*
X165100000Y-120650000D01*
X166370000Y-78740000D02*
X166370000Y-81265000D01*
X197750000Y-125730000D02*
X197750000Y-138800000D01*
X189270000Y-142200000D02*
X191770000Y-139700000D01*
X100330000Y-124610000D02*
X100330000Y-118110000D01*
X181610000Y-109220000D02*
X181610000Y-106680000D01*
X181610000Y-91440000D02*
X179070000Y-88900000D01*
X191770000Y-139700000D02*
X194310000Y-139700000D01*
X189270000Y-142200000D02*
X177800000Y-142200000D01*
X100330000Y-81280000D02*
X102870000Y-78740000D01*
X168910000Y-80010000D02*
X167640000Y-78740000D01*
X197750000Y-125730000D02*
X193940000Y-121920000D01*
X196850000Y-139700000D02*
X194310000Y-139700000D01*
X167640000Y-78740000D02*
X165100000Y-78740000D01*
X181610000Y-99060000D02*
X181610000Y-96520000D01*
X180170000Y-121920000D02*
X180170000Y-121750000D01*
X113045000Y-81265000D02*
X113045000Y-78755000D01*
X181610000Y-96520000D02*
X181610000Y-93980000D01*
X102870000Y-78740000D02*
X165100000Y-78740000D01*
X142240000Y-81280000D02*
X142240000Y-78740000D01*
X197750000Y-138800000D02*
X196850000Y-139700000D01*
X180170000Y-121750000D02*
X175260000Y-116840000D01*
X180170000Y-121920000D02*
X176360000Y-125730000D01*
X181610000Y-111760000D02*
X181610000Y-109220000D01*
X100330000Y-102870000D02*
X100330000Y-109220000D01*
%TO.N,+3V3*%
X178900000Y-125730000D02*
X178900000Y-128480000D01*
X157480000Y-133350000D02*
X160020000Y-135890000D01*
X156210000Y-123757787D02*
X156210000Y-132080000D01*
X175300000Y-132080000D02*
X175260000Y-132080000D01*
X154930000Y-97780000D02*
X156239511Y-99089511D01*
X160020000Y-135890000D02*
X171450000Y-135890000D01*
X157480000Y-127000000D02*
X156210000Y-127000000D01*
X160020000Y-138430000D02*
X158750000Y-139700000D01*
X170140000Y-137200000D02*
X166370000Y-137200000D01*
X158750000Y-139700000D02*
X158750000Y-140462000D01*
X168910000Y-138430000D02*
X160020000Y-138430000D01*
X156239511Y-123728276D02*
X156210000Y-123757787D01*
X156239511Y-99089511D02*
X156239511Y-123728276D01*
X175260000Y-132080000D02*
X171450000Y-135890000D01*
X171450000Y-135890000D02*
X170140000Y-137200000D01*
X178900000Y-128480000D02*
X175300000Y-132080000D01*
X170140000Y-137200000D02*
X168910000Y-138430000D01*
X156210000Y-132080000D02*
X157480000Y-133350000D01*
D35*
%TO.N,Net-(D1-Pad1)*%
X128270000Y-62230000D02*
X140970000Y-62230000D01*
X142240000Y-63500000D02*
X142240000Y-64770000D01*
X125730000Y-64770000D02*
X124460000Y-66040000D01*
X124460000Y-66040000D02*
X124460000Y-72390000D01*
X140970000Y-62230000D02*
X142240000Y-63500000D01*
X127000000Y-63500000D02*
X128270000Y-62230000D01*
X125730000Y-73660000D02*
X127000000Y-73660000D01*
X127000000Y-64770000D02*
X125730000Y-64770000D01*
X124460000Y-72390000D02*
X125730000Y-73660000D01*
X127000000Y-64770000D02*
X127000000Y-63500000D01*
D36*
%TO.N,/AC1*%
X180340000Y-57150000D02*
X181610000Y-55880000D01*
D35*
X180340000Y-57410000D02*
X180340000Y-52070000D01*
D36*
X198120000Y-62230000D02*
X181610000Y-62230000D01*
X180340000Y-60960000D02*
X180340000Y-57410000D01*
D35*
X167640000Y-39370000D02*
X137160000Y-39370000D01*
X137160000Y-39370000D02*
X134620000Y-41910000D01*
D36*
X181610000Y-55880000D02*
X198120000Y-55880000D01*
X180340000Y-57410000D02*
X180340000Y-57150000D01*
X181610000Y-62230000D02*
X180340000Y-60960000D01*
D35*
X180340000Y-52070000D02*
X167640000Y-39370000D01*
X134620000Y-41910000D02*
X134620000Y-46990000D01*
D34*
%TO.N,Net-(D2-Pad2)*%
X135890000Y-68580000D02*
X139700000Y-68580000D01*
X134620000Y-64770000D02*
X132080000Y-64770000D01*
X134620000Y-67310000D02*
X135890000Y-68580000D01*
X134620000Y-64770000D02*
X134620000Y-67310000D01*
X137160000Y-64770000D02*
X134620000Y-64770000D01*
D36*
%TO.N,/AC2*%
X198120000Y-74930000D02*
X184150000Y-74930000D01*
X166370000Y-50800000D02*
X158750000Y-50800000D01*
X158750000Y-50800000D02*
X157480000Y-49530000D01*
X184150000Y-74930000D02*
X170180000Y-60960000D01*
X170180000Y-60960000D02*
X170180000Y-54610000D01*
X157480000Y-49530000D02*
X157480000Y-46990000D01*
X163735000Y-54610000D02*
X170180000Y-54610000D01*
X170180000Y-54610000D02*
X166370000Y-50800000D01*
X163735000Y-57150000D02*
X163735000Y-54610000D01*
D35*
%TO.N,Net-(D5-Pad2)*%
X132080000Y-73660000D02*
X137160000Y-73660000D01*
D34*
%TO.N,Net-(Dss1-Pad2)*%
X102870000Y-102870000D02*
X106680000Y-102870000D01*
D36*
%TO.N,Net-(F1-Pad1)*%
X198120000Y-80010000D02*
X180340000Y-80010000D01*
D35*
%TO.N,Net-(Jl1-Pad2)*%
X161585480Y-57135480D02*
X154940000Y-50490000D01*
D36*
X181610000Y-67310000D02*
X175260000Y-60960000D01*
X154940000Y-43180000D02*
X154940000Y-46990000D01*
X165100000Y-41910000D02*
X156210000Y-41910000D01*
X156210000Y-41910000D02*
X154940000Y-43180000D01*
D35*
X165085000Y-60960000D02*
X164505120Y-60960000D01*
D36*
X198120000Y-67310000D02*
X181610000Y-67310000D01*
D35*
X164505120Y-60960000D02*
X161585480Y-58040360D01*
X161585480Y-58040360D02*
X161585480Y-57135480D01*
D36*
X175260000Y-60960000D02*
X175260000Y-52070000D01*
X175260000Y-52070000D02*
X165100000Y-41910000D01*
D35*
X154940000Y-50490000D02*
X154940000Y-46990000D01*
D34*
%TO.N,/Serial_rx*%
X123190000Y-140970000D02*
X124460000Y-140970000D01*
X125960000Y-142470000D02*
X128290000Y-142470000D01*
X124460000Y-140970000D02*
X125960000Y-142470000D01*
%TO.N,/Serial_tx*%
X123190000Y-143510000D02*
X124460000Y-143510000D01*
X125420000Y-144470000D02*
X128290000Y-144470000D01*
X124460000Y-143510000D02*
X125420000Y-144470000D01*
D35*
%TO.N,Net-(Q1-Pad3)*%
X160020000Y-57855120D02*
X160020000Y-67945000D01*
X152400000Y-46990000D02*
X152400000Y-50235120D01*
X152400000Y-50235120D02*
X160020000Y-57855120D01*
X160020000Y-67945000D02*
X163830000Y-71755000D01*
X163830000Y-71755000D02*
X163830000Y-73645000D01*
%TO.N,Net-(Q2-Pad3)*%
X111760000Y-46990000D02*
X110505000Y-48245000D01*
X110505000Y-48245000D02*
X110505000Y-73645000D01*
D34*
%TO.N,/Enable*%
X143498000Y-140462000D02*
X143490000Y-140470000D01*
X151130000Y-140462000D02*
X143498000Y-140462000D01*
%TO.N,/exit_intr*%
X126310000Y-136470000D02*
X128290000Y-136470000D01*
X108660000Y-118110000D02*
X109220000Y-117550000D01*
X104830000Y-124610000D02*
X104830000Y-118110000D01*
X110498489Y-134628489D02*
X124468489Y-134628489D01*
X106680000Y-128270000D02*
X106680000Y-130810000D01*
X104830000Y-126420000D02*
X106680000Y-128270000D01*
X106680000Y-130810000D02*
X110498489Y-134628489D01*
X104830000Y-118110000D02*
X108660000Y-118110000D01*
X124468489Y-134628489D02*
X126310000Y-136470000D01*
X104830000Y-124610000D02*
X104830000Y-126420000D01*
%TO.N,Net-(Rmoc1-Pad1)*%
X161290000Y-81265000D02*
X161290000Y-83820000D01*
X162560000Y-85090000D02*
X166370000Y-85090000D01*
X161290000Y-83820000D02*
X162560000Y-85090000D01*
%TO.N,/drive_load_1*%
X124460000Y-135890000D02*
X123190000Y-135890000D01*
X128290000Y-138470000D02*
X127040000Y-138470000D01*
X127040000Y-138470000D02*
X124460000Y-135890000D01*
%TO.N,Net-(Rmoc2-Pad1)*%
X107965000Y-83805000D02*
X107965000Y-81265000D01*
X109220000Y-85090000D02*
X113030000Y-85090000D01*
X109220000Y-85060000D02*
X109220000Y-85090000D01*
X107965000Y-83805000D02*
X109220000Y-85060000D01*
%TO.N,/drive_load_2*%
X120650000Y-138430000D02*
X119380000Y-137160000D01*
X127540000Y-140470000D02*
X125500000Y-138430000D01*
X119380000Y-137160000D02*
X119380000Y-135890000D01*
X128290000Y-140470000D02*
X127540000Y-140470000D01*
X125500000Y-138430000D02*
X120650000Y-138430000D01*
%TO.N,/reset*%
X104830000Y-137310000D02*
X108660000Y-137310000D01*
X104830000Y-130810000D02*
X104830000Y-137310000D01*
X124691467Y-139620489D02*
X126541467Y-141470489D01*
X141930000Y-144470000D02*
X143490000Y-144470000D01*
X118560489Y-139620489D02*
X116810000Y-137870000D01*
X124691467Y-139620489D02*
X118560489Y-139620489D01*
X126541467Y-141470489D02*
X138930489Y-141470489D01*
X109220000Y-137870000D02*
X116810000Y-137870000D01*
X138930489Y-141470489D02*
X141930000Y-144470000D01*
X108660000Y-137310000D02*
X109220000Y-137870000D01*
%TO.N,Net-(Rsens1-Pad1)*%
X160020000Y-116840000D02*
X160020000Y-104140000D01*
X162560000Y-102870000D02*
X161290000Y-102870000D01*
X162560000Y-119380000D02*
X160020000Y-116840000D01*
X160020000Y-104140000D02*
X161290000Y-102870000D01*
X162550000Y-102860000D02*
X162560000Y-102870000D01*
%TO.N,/multiplex_out*%
X154940000Y-123190000D02*
X154940000Y-124460000D01*
X153670000Y-125730000D02*
X153670000Y-139759787D01*
X143490000Y-142470000D02*
X152170000Y-142470000D01*
X153670000Y-140970000D02*
X153670000Y-139700000D01*
X152170000Y-142470000D02*
X153670000Y-140970000D01*
X154940000Y-123190000D02*
X154940000Y-119380000D01*
X154940000Y-124460000D02*
X153670000Y-125730000D01*
%TO.N,/steady_state*%
X118110000Y-132080000D02*
X118110000Y-104820000D01*
X118110000Y-104820000D02*
X116160000Y-102870000D01*
X116160000Y-102870000D02*
X114300000Y-102870000D01*
X128290000Y-132470000D02*
X118500000Y-132470000D01*
X118500000Y-132470000D02*
X118110000Y-132080000D01*
D35*
%TO.N,Net-(Rtriac1-Pad1)*%
X152385000Y-67295000D02*
X152385000Y-60960000D01*
X158735000Y-73645000D02*
X152385000Y-67295000D01*
X161290000Y-73645000D02*
X158735000Y-73645000D01*
%TO.N,Net-(Rtriac2-Pad1)*%
X107965000Y-62245000D02*
X107965000Y-73645000D01*
X101600000Y-59690000D02*
X105410000Y-59690000D01*
X105410000Y-59690000D02*
X107965000Y-62245000D01*
D34*
%TO.N,Net-(Dwifi1-Pad2)*%
X106680000Y-109220000D02*
X102870000Y-109220000D01*
%TO.N,/det_0_intr*%
X123849511Y-131469511D02*
X121920000Y-129540000D01*
X134190480Y-82979520D02*
X138000480Y-82979520D01*
X138000480Y-82979520D02*
X139700000Y-81280000D01*
X124030480Y-82979520D02*
X134190480Y-82979520D01*
X134620000Y-85090000D02*
X134620000Y-82979520D01*
X121920000Y-85090000D02*
X124030480Y-82979520D01*
X143490000Y-132470000D02*
X131039022Y-132470000D01*
X121920000Y-129540000D02*
X121920000Y-85090000D01*
X131039022Y-132470000D02*
X130038533Y-131469511D01*
X130038533Y-131469511D02*
X123849511Y-131469511D01*
%TO.N,/multiplex_A*%
X149880960Y-134470000D02*
X151000961Y-133349999D01*
X151000961Y-133349999D02*
X151000961Y-113159039D01*
X153680000Y-110480000D02*
X154930000Y-110480000D01*
X143490000Y-134470000D02*
X149880960Y-134470000D01*
X151000961Y-113159039D02*
X153680000Y-110480000D01*
%TO.N,/multiplex_B*%
X143490000Y-136470000D02*
X150550000Y-136470000D01*
X151700480Y-114999520D02*
X153680000Y-113020000D01*
X153680000Y-113020000D02*
X154930000Y-113020000D01*
X151700480Y-135319520D02*
X151700480Y-114999520D01*
X150550000Y-136470000D02*
X151700480Y-135319520D01*
%TO.N,/multiplex_C*%
X143490000Y-138470000D02*
X151090000Y-138470000D01*
X151090000Y-138470000D02*
X152400000Y-137160000D01*
X152400000Y-116840000D02*
X153680000Y-115560000D01*
X153680000Y-115560000D02*
X154930000Y-115560000D01*
X152400000Y-137160000D02*
X152400000Y-116840000D01*
%TO.N,/wifi_status*%
X117410480Y-132369750D02*
X117410480Y-111060480D01*
X126850000Y-134470000D02*
X125549520Y-133169520D01*
X118210249Y-133169519D02*
X117410480Y-132369750D01*
X117410480Y-111060480D02*
X115570000Y-109220000D01*
X125549520Y-133169520D02*
X118210249Y-133169519D01*
X128290000Y-134470000D02*
X126850000Y-134470000D01*
X115570000Y-109220000D02*
X114300000Y-109220000D01*
%TO.N,Net-(Rz1-Pad1)*%
X127000000Y-69850000D02*
X127000000Y-68580000D01*
X138430000Y-71120000D02*
X128270000Y-71120000D01*
X139700000Y-73660000D02*
X139700000Y-72390000D01*
X128270000Y-71120000D02*
X127000000Y-69850000D01*
X139700000Y-72390000D02*
X138430000Y-71120000D01*
%TO.N,/S2*%
X154524250Y-96093560D02*
X153630489Y-96987321D01*
X153630489Y-96987321D02*
X153630489Y-99020489D01*
X173990000Y-101600000D02*
X168483560Y-96093560D01*
X153630489Y-99020489D02*
X154930000Y-100320000D01*
X168483560Y-96093560D02*
X154524250Y-96093560D01*
X173990000Y-101615000D02*
X173990000Y-101600000D01*
%TO.N,/S1*%
X153670000Y-102870000D02*
X153680000Y-102860000D01*
X170324040Y-95394040D02*
X154234500Y-95394040D01*
X152930969Y-102130969D02*
X153670000Y-102870000D01*
X153680000Y-102860000D02*
X154930000Y-102860000D01*
X173990000Y-99075000D02*
X173990000Y-99060000D01*
X154234500Y-95394040D02*
X152930969Y-96697571D01*
X173990000Y-99060000D02*
X170324040Y-95394040D01*
X152930969Y-96697571D02*
X152930969Y-102130969D01*
%TO.N,/S0*%
X152231449Y-103971449D02*
X153670000Y-105410000D01*
X173990000Y-96520000D02*
X172164520Y-94694520D01*
X172164520Y-94694520D02*
X153944750Y-94694520D01*
X153944750Y-94694520D02*
X152231449Y-96407821D01*
X173990000Y-96535000D02*
X173990000Y-96520000D01*
X153680000Y-105400000D02*
X154930000Y-105400000D01*
X153670000Y-105410000D02*
X153680000Y-105400000D01*
X152231449Y-96407821D02*
X152231449Y-103971449D01*
%TO.N,/S3*%
X153680000Y-107940000D02*
X154930000Y-107940000D01*
X153670000Y-107950000D02*
X153680000Y-107940000D01*
X153655000Y-93995000D02*
X151531929Y-96118071D01*
X173990000Y-93995000D02*
X153655000Y-93995000D01*
X151531929Y-96118071D02*
X151531929Y-105811929D01*
X151531929Y-105811929D02*
X153670000Y-107950000D01*
%TO.N,/S4*%
X173990000Y-104140000D02*
X167630000Y-97780000D01*
X173990000Y-104155000D02*
X173990000Y-104140000D01*
X167630000Y-97780000D02*
X162550000Y-97780000D01*
%TO.N,/S6*%
X167630000Y-100320000D02*
X162550000Y-100320000D01*
X173990000Y-106695000D02*
X173990000Y-106680000D01*
X173990000Y-106680000D02*
X167630000Y-100320000D01*
%TO.N,/S7*%
X173990000Y-109220000D02*
X170170000Y-105400000D01*
X170170000Y-105400000D02*
X162550000Y-105400000D01*
X173990000Y-109235000D02*
X173990000Y-109220000D01*
%TO.N,/S5*%
X173990000Y-111760000D02*
X170170000Y-107940000D01*
X173990000Y-111775000D02*
X173990000Y-111760000D01*
X170170000Y-107940000D02*
X162550000Y-107940000D01*
D36*
%TO.N,Net-(Jl2-Pad1)*%
X114300000Y-39370000D02*
X114300000Y-46990000D01*
X116840000Y-36830000D02*
X114300000Y-39370000D01*
X172720000Y-36830000D02*
X116840000Y-36830000D01*
D34*
X114300000Y-59690000D02*
X114300000Y-46990000D01*
D36*
X198120000Y-50800000D02*
X186690000Y-50800000D01*
X186690000Y-50800000D02*
X172720000Y-36830000D01*
%TO.N,/AC2'*%
X118110000Y-49530000D02*
X116840000Y-48260000D01*
X120650000Y-49530000D02*
X118110000Y-49530000D01*
X125730000Y-54610000D02*
X120650000Y-49530000D01*
X153735000Y-57150000D02*
X153735000Y-54610000D01*
X127000000Y-59690000D02*
X132080000Y-59690000D01*
X116840000Y-48260000D02*
X116840000Y-46990000D01*
X142240000Y-54610000D02*
X127000000Y-54610000D01*
D35*
X127000000Y-59690000D02*
X127000000Y-54610000D01*
D36*
X127000000Y-54610000D02*
X125730000Y-54610000D01*
X153735000Y-54610000D02*
X142240000Y-54610000D01*
D34*
%TO.N,Net-(Don1-Pad2)*%
X106680000Y-96520000D02*
X102870000Y-96520000D01*
%TO.N,Net-(JP7-Pad1)*%
X140999511Y-83790489D02*
X157450489Y-83790489D01*
X137160000Y-87630000D02*
X140999511Y-83790489D01*
X124460000Y-87630000D02*
X137160000Y-87630000D01*
X122619520Y-89470480D02*
X124460000Y-87630000D01*
X122619520Y-125319520D02*
X122619520Y-89470480D01*
X157450489Y-83790489D02*
X158750000Y-85090000D01*
X123190000Y-125890000D02*
X122619520Y-125319520D01*
%TO.N,Net-(JP8-Pad1)*%
X106709511Y-86389511D02*
X105410000Y-85090000D01*
X119380000Y-125890000D02*
X119380000Y-92710000D01*
X119380000Y-92710000D02*
X113059511Y-86389511D01*
X113059511Y-86389511D02*
X106709511Y-86389511D01*
%TO.N,/3v3'1*%
X125730000Y-121920000D02*
X123319040Y-121920000D01*
X123319040Y-123319040D02*
X127000000Y-127000000D01*
X142240000Y-85090000D02*
X140689270Y-85090000D01*
X143490000Y-128290000D02*
X143490000Y-130470000D01*
X127000000Y-127000000D02*
X144780000Y-127000000D01*
X123319040Y-90040960D02*
X123319040Y-123319040D01*
X147480000Y-127000000D02*
X144780000Y-127000000D01*
X144780000Y-127000000D02*
X143490000Y-128290000D01*
X125030481Y-88329519D02*
X123319040Y-90040960D01*
X140689270Y-85090000D02*
X137449751Y-88329519D01*
X137449751Y-88329519D02*
X125030481Y-88329519D01*
D35*
%TO.N,/AC1'*%
X137160000Y-58420000D02*
X137160000Y-59690000D01*
X135730000Y-56990000D02*
X137160000Y-58420000D01*
D34*
X142240000Y-59690000D02*
X137160000Y-59690000D01*
D35*
X134620000Y-56990000D02*
X135730000Y-56990000D01*
D34*
%TO.N,/5v'*%
X189230000Y-104140000D02*
X189230000Y-101600000D01*
X189230000Y-96520000D02*
X189230000Y-93980000D01*
X187960000Y-113030000D02*
X189230000Y-111760000D01*
X187960000Y-118110000D02*
X187960000Y-113030000D01*
X189230000Y-101600000D02*
X189230000Y-99060000D01*
X189230000Y-99060000D02*
X189230000Y-96520000D01*
X189230000Y-109220000D02*
X189230000Y-106680000D01*
X189230000Y-111760000D02*
X189230000Y-109220000D01*
X189230000Y-106680000D02*
X189230000Y-104140000D01*
%TO.N,/gnd'*%
X130470000Y-130470000D02*
X128290000Y-130470000D01*
X147480000Y-130810000D02*
X146820489Y-131469511D01*
X131469511Y-131469511D02*
X130470000Y-130470000D01*
X146820489Y-131469511D02*
X131469511Y-131469511D01*
%TO.N,/3v3'2*%
X111050000Y-125170000D02*
X109220000Y-125170000D01*
X109220000Y-127000000D02*
X109220000Y-130250000D01*
X115730000Y-121920000D02*
X114300000Y-121920000D01*
X114300000Y-121920000D02*
X111050000Y-125170000D01*
X111760000Y-97790000D02*
X111760000Y-119380000D01*
X113030000Y-96520000D02*
X111760000Y-97790000D01*
X114300000Y-96520000D02*
X113030000Y-96520000D01*
X111050000Y-125170000D02*
X109220000Y-127000000D01*
X111760000Y-119380000D02*
X114300000Y-121920000D01*
%TD*%
M02*
