M48
; DRILL file {KiCad (6.0.5)} date Sun Jun 26 15:21:43 2022
; FORMAT={-:-/ absolute / inch / decimal}
; #@! TF.CreationDate,2022-06-26T15:21:43-03:00
; #@! TF.GenerationSoftware,Kicad,Pcbnew,(6.0.5)
; #@! TF.FileFunction,Plated,1,2,PTH
FMAT,2
INCH
; #@! TA.AperFunction,Plated,PTH,ComponentDrill
T1C0.0315
; #@! TA.AperFunction,Plated,PTH,ComponentDrill
T2C0.0354
; #@! TA.AperFunction,Plated,PTH,ComponentDrill
T3C0.0394
; #@! TA.AperFunction,Plated,PTH,ComponentDrill
T4C0.0433
; #@! TA.AperFunction,Plated,PTH,ComponentDrill
T5C0.0591
; #@! TA.AperFunction,Plated,PTH,ComponentDrill
T6C0.0598
; #@! TA.AperFunction,Plated,PTH,ComponentDrill
T7C0.0630
; #@! TA.AperFunction,Plated,PTH,ComponentDrill
T8C0.1181
%
G90
G05
T1
X5.75Y-2.6
X5.9Y-3.6
X5.95Y-4.05
X5.95Y-4.3
X5.95Y-4.55
X6.0006Y-3.1494
X6.0006Y-3.4494
X6.05Y-4.878
X6.05Y-5.178
X6.05Y-5.378
X6.05Y-5.678
X6.1006Y-3.1494
X6.1006Y-3.4494
X6.2Y-3.6
X6.2006Y-3.1494
X6.2006Y-3.4494
X6.25Y-2.6
X6.25Y-4.05
X6.25Y-4.3
X6.25Y-4.55
X6.3063Y-5.05
X6.45Y-5.2063
X6.45Y-5.6
X6.6Y-5.2063
X6.6Y-5.6
X6.7Y-5.05
X6.75Y-2.95
X7.05Y-2.1
X7.05Y-2.4937
X7.05Y-3.6
X7.15Y-3.15
X7.15Y-3.45
X7.25Y-2.95
X7.25Y-3.15
X7.25Y-3.45
X7.35Y-3.15
X7.35Y-3.45
X7.35Y-3.6
X7.5563Y-5.25
X7.5563Y-5.4
X7.7Y-5.78
X7.7494Y-2.65
X7.8026Y-2.4
X7.8026Y-2.5
X7.8496Y-4.0996
X7.8496Y-4.1996
X7.8496Y-4.2996
X7.8496Y-4.3996
X7.8496Y-4.4996
X7.8496Y-4.5996
X7.8496Y-4.6996
X7.8496Y-4.7996
X7.85Y-4.95
X7.85Y-5.1
X7.95Y-5.25
X7.95Y-5.4
X8.0Y-3.6
X8.0Y-5.78
X8.1Y-3.1494
X8.1Y-3.4494
X8.1496Y-4.0996
X8.1496Y-4.1996
X8.1496Y-4.2996
X8.1496Y-4.3996
X8.1496Y-4.4996
X8.1496Y-4.5996
X8.1496Y-4.6996
X8.1496Y-4.7996
X8.15Y-4.95
X8.15Y-5.1
X8.1963Y-2.4
X8.1963Y-2.5
X8.2Y-3.1494
X8.2Y-3.4494
X8.2494Y-2.65
X8.3Y-3.1494
X8.3Y-3.4494
X8.3Y-3.6
X8.3Y-5.6516
X8.3Y-5.8484
X8.75Y-5.6516
X8.75Y-5.8484
X9.15Y-4.9
X9.15Y-5.2937
T2
X5.7Y-4.05
X5.7Y-4.3
X5.7Y-4.55
X5.8Y-4.05
X5.8Y-4.3
X5.8Y-4.55
T3
X6.6Y-5.8
X6.6Y-5.9
X6.75Y-2.6
X6.75Y-2.8
X6.75Y-3.15
X6.95Y-2.6
X6.95Y-2.8
X6.95Y-3.15
X7.15Y-2.6
X7.15Y-2.8
X7.35Y-2.6
X7.35Y-2.8
X8.6Y-3.9506
X8.6Y-4.0506
X8.6Y-4.1506
X8.6Y-4.2506
X8.6Y-4.3506
X8.6Y-4.4506
X8.6Y-4.5506
X8.6Y-4.6506
X8.9Y-3.95
X8.9Y-4.05
X8.9Y-4.15
X8.9Y-4.25
X8.9Y-4.35
X8.9Y-4.45
X8.9Y-4.55
X8.9Y-4.65
X9.2Y-3.95
X9.2Y-4.05
X9.2Y-4.15
X9.2Y-4.25
X9.2Y-4.35
X9.2Y-4.45
X9.2Y-4.55
X9.2Y-4.65
X9.4Y-5.65
X9.4Y-5.75
T4
X5.7Y-4.9
X5.7Y-5.1559
X5.7Y-5.4
X5.7Y-5.6559
X5.8772Y-4.9
X5.8772Y-5.1559
X5.8772Y-5.4
X5.8772Y-5.6559
X6.15Y-2.1
X6.25Y-2.1
X6.35Y-2.1
X7.75Y-2.1
X7.85Y-2.1
X7.95Y-2.1
X8.6933Y-5.2
X8.7933Y-5.2
X8.8933Y-5.2
T5
X5.8972Y-2.0606
X6.6059Y-2.0606
X7.4972Y-2.0606
X8.2059Y-2.0606
X8.85Y-2.5102
X8.85Y-3.4
T6
X9.55Y-2.25
X9.55Y-2.45
X9.55Y-2.7
X9.55Y-2.9
X9.55Y-3.2
X9.55Y-3.4
T7
X9.2992Y-5.2
X9.4173Y-5.385
X9.5354Y-5.2
T8
X5.25Y-1.55
X5.25Y-6.15
X9.7Y-1.55
X9.7Y-6.15
T0
M30
